STARTFONT 2.1
COMMENT
COMMENT Converted from OpenType font "OldStandard-Regular.ttf" by "otf2bdf 3.0".
COMMENT
FONT -FreeType-Old Standard TT-Medium-R-Normal--36-360-72-72-P-189-ISO10646-1
SIZE 36 72 72
FONTBOUNDINGBOX 94 46 -29 -11
STARTPROPERTIES 19
FOUNDRY "FreeType"
FAMILY_NAME "Old Standard TT"
WEIGHT_NAME "Medium"
SLANT "R"
SETWIDTH_NAME "Normal"
ADD_STYLE_NAME ""
PIXEL_SIZE 36
POINT_SIZE 360
RESOLUTION_X 72
RESOLUTION_Y 72
SPACING "P"
AVERAGE_WIDTH 189
CHARSET_REGISTRY "ISO10646"
CHARSET_ENCODING "1"
FONT_ASCENT 34
FONT_DESCENT 10
COPYRIGHT "Copyright (C) 2006-2008 Alexey Kryukov <alexios@thessalonica.org.ru>"
_OTF_FONTFILE "OldStandard-Regular.ttf"
_OTF_PSNAME "OldStandardTT-Regular"
ENDPROPERTIES
CHARS 1456
STARTCHAR 0020
ENCODING 32
SWIDTH 277 0
DWIDTH 10 0
BBX 0 0 0 0
BITMAP
ENDCHAR
STARTCHAR 0021
ENCODING 33
SWIDTH 277 0
DWIDTH 10 0
BBX 4 25 3 0
BITMAP
60
F0
F0
F0
F0
F0
F0
F0
60
60
60
60
60
60
60
60
60
60
20
40
60
F0
F0
F0
60
ENDCHAR
STARTCHAR 0022
ENCODING 34
SWIDTH 388 0
DWIDTH 14 0
BBX 8 7 3 20
BITMAP
C3
C3
C3
C3
C3
C3
42
ENDCHAR
STARTCHAR 0023
ENCODING 35
SWIDTH 694 0
DWIDTH 25 0
BBX 19 25 3 0
BITMAP
018200
018200
010200
010600
030600
030600
030600
FFFFE0
020400
020400
020C00
060C00
060C00
060C00
060800
040800
040800
FFFFE0
0C1800
0C1800
0C1000
081000
083000
083000
183000
ENDCHAR
STARTCHAR 0024
ENCODING 36
SWIDTH 583 0
DWIDTH 21 0
BBX 16 31 2 -3
BITMAP
0240
0240
0240
07E0
1A5C
3246
2242
6243
6247
624F
624F
724E
3A40
3F40
1FC0
07F0
03FC
027E
024E
2247
F243
F243
E243
E243
C242
4246
224C
1E70
03C0
0240
0240
ENDCHAR
STARTCHAR 0025
ENCODING 37
SWIDTH 833 0
DWIDTH 30 0
BBX 24 25 3 0
BITMAP
1E0030
210020
618060
C0C040
C0C0C0
C0C080
C0C100
C0C300
C0C200
408600
618400
220800
1C1870
001084
003186
002102
004303
00C303
008303
018303
010303
030303
060106
040186
0C00FC
ENDCHAR
STARTCHAR 0026
ENCODING 38
SWIDTH 777 0
DWIDTH 28 0
BBX 24 25 2 0
BITMAP
01F000
030800
060C00
0C0400
0C0400
0C0C00
0E0800
0E1800
073000
07C000
03C1FF
07C038
0DE030
18F030
307020
707860
703C40
E01C80
E00F80
E00F00
E00700
F00381
700FC2
7819E4
1FE0FC
ENDCHAR
STARTCHAR 0027
ENCODING 39
SWIDTH 222 0
DWIDTH 8 0
BBX 2 7 3 20
BITMAP
C0
C0
C0
C0
C0
C0
40
ENDCHAR
STARTCHAR 0028
ENCODING 40
SWIDTH 388 0
DWIDTH 14 0
BBX 8 33 4 -6
BITMAP
03
06
0C
0C
18
10
30
30
60
60
60
C0
C0
C0
C0
C0
C0
C0
C0
C0
C0
40
60
60
60
30
30
18
18
0C
06
06
03
ENDCHAR
STARTCHAR 0029
ENCODING 41
SWIDTH 361 0
DWIDTH 13 0
BBX 8 33 2 -6
BITMAP
C0
60
60
30
18
18
0C
0C
06
06
06
02
03
03
03
03
03
03
03
03
02
06
06
06
04
0C
0C
18
18
30
60
C0
80
ENDCHAR
STARTCHAR 002A
ENCODING 42
SWIDTH 500 0
DWIDTH 18 0
BBX 13 15 3 10
BITMAP
0700
0700
0700
C318
E238
F278
3AE0
0700
0780
7AF0
F278
E238
0700
0700
0700
ENDCHAR
STARTCHAR 002B
ENCODING 43
SWIDTH 944 0
DWIDTH 34 0
BBX 30 31 2 -6
BITMAP
00030000
00030000
00030000
00030000
00030000
00030000
00030000
00030000
00030000
00030000
00030000
00030000
00030000
00030000
00030000
FFFFFFFC
00030000
00030000
00030000
00030000
00030000
00030000
00030000
00030000
00030000
00030000
00030000
00030000
00030000
00030000
00030000
ENDCHAR
STARTCHAR 002C
ENCODING 44
SWIDTH 277 0
DWIDTH 10 0
BBX 5 11 2 -6
BITMAP
70
F8
F8
78
08
08
08
10
10
20
40
ENDCHAR
STARTCHAR 002D
ENCODING 45
SWIDTH 361 0
DWIDTH 13 0
BBX 9 2 2 8
BITMAP
FF80
FF80
ENDCHAR
STARTCHAR 002E
ENCODING 46
SWIDTH 277 0
DWIDTH 10 0
BBX 4 5 3 0
BITMAP
60
F0
F0
F0
60
ENDCHAR
STARTCHAR 002F
ENCODING 47
SWIDTH 444 0
DWIDTH 16 0
BBX 12 34 2 -7
BITMAP
0010
0030
0030
0020
0060
0060
0040
00C0
00C0
0080
0080
0180
0100
0100
0300
0200
0200
0600
0400
0400
0C00
0800
0800
1800
1800
1000
3000
3000
2000
6000
6000
4000
C000
C000
ENDCHAR
STARTCHAR 0030
ENCODING 48
SWIDTH 583 0
DWIDTH 21 0
BBX 17 25 2 0
BITMAP
03E000
0E3800
1C1C00
180C00
380E00
700700
700700
700700
F00780
F00780
F00780
F00780
F00780
F00780
F00780
F00780
F00780
700700
700700
700700
380E00
380E00
180C00
0C1800
077000
ENDCHAR
STARTCHAR 0031
ENCODING 49
SWIDTH 583 0
DWIDTH 21 0
BBX 12 25 4 0
BITMAP
0100
0300
0300
0F00
FF00
0700
0700
0700
0700
0700
0700
0700
0700
0700
0700
0700
0700
0700
0700
0700
0700
0700
0700
0700
FFF0
ENDCHAR
STARTCHAR 0032
ENCODING 50
SWIDTH 583 0
DWIDTH 21 0
BBX 15 25 3 0
BITMAP
0FC0
3070
6038
403C
C01E
C01E
E01E
F81E
F81E
781C
003C
0038
0070
00E0
01C0
0300
0E00
1C04
3804
3004
6004
600C
FFFC
FFFC
FFFC
ENDCHAR
STARTCHAR 0033
ENCODING 51
SWIDTH 583 0
DWIDTH 21 0
BBX 15 25 3 0
BITMAP
0FC0
3070
2038
601C
701C
781C
781C
301C
001C
0038
0070
1FC0
1870
0038
003C
001E
001E
701E
F81E
F81E
F81E
C03C
C038
6070
3FE0
ENDCHAR
STARTCHAR 0034
ENCODING 52
SWIDTH 583 0
DWIDTH 21 0
BBX 17 25 2 0
BITMAP
001000
003000
007000
007000
00F000
01F000
017000
037000
067000
067000
0C7000
087000
187000
307000
207000
607000
C07000
FFFF80
007000
007000
007000
007000
007000
007000
07FF80
ENDCHAR
STARTCHAR 0035
ENCODING 53
SWIDTH 583 0
DWIDTH 21 0
BBX 15 26 3 0
BITMAP
2000
3038
3FF0
3FC0
2F00
2000
2000
2000
2000
27C0
3870
3038
203C
201C
001E
001E
001E
001E
781E
F81E
F81C
F03C
E03C
6038
7070
3FC0
ENDCHAR
STARTCHAR 0036
ENCODING 54
SWIDTH 583 0
DWIDTH 21 0
BBX 15 25 3 0
BITMAP
03E0
0618
0C0C
181C
383C
303C
7010
7000
7000
F3E0
F638
FC1C
F81C
F80E
F00E
F00E
F00E
F00E
700E
700E
700C
381C
3818
1838
0EE0
ENDCHAR
STARTCHAR 0037
ENCODING 55
SWIDTH 583 0
DWIDTH 21 0
BBX 14 25 3 0
BITMAP
FFFC
FFFC
FFFC
C00C
8008
8008
8008
8010
0010
0020
0060
0040
0080
0180
0180
0300
0300
0700
0700
0F80
0F80
0F80
0F80
0F80
0780
ENDCHAR
STARTCHAR 0038
ENCODING 56
SWIDTH 583 0
DWIDTH 21 0
BBX 17 25 2 0
BITMAP
07F000
1C1C00
300E00
700600
E00300
E00300
E00300
F00300
F00600
7C0600
7F8C00
1FF000
07FC00
19FE00
303F00
600F80
E00780
E00380
E00380
E00380
E00300
600700
700600
380C00
0FF800
ENDCHAR
STARTCHAR 0039
ENCODING 57
SWIDTH 583 0
DWIDTH 21 0
BBX 15 25 3 0
BITMAP
07C0
1860
3030
7038
701C
E01C
E01C
E01E
E01E
E01E
E01E
703E
703E
385E
0F9E
001E
001C
001C
381C
781C
7838
7038
6070
30E0
1FC0
ENDCHAR
STARTCHAR 003A
ENCODING 58
SWIDTH 277 0
DWIDTH 10 0
BBX 4 17 3 0
BITMAP
60
F0
F0
F0
60
00
00
00
00
00
00
00
60
F0
F0
F0
60
ENDCHAR
STARTCHAR 003B
ENCODING 59
SWIDTH 305 0
DWIDTH 11 0
BBX 5 23 3 -6
BITMAP
70
F8
F8
F8
70
00
00
00
00
00
00
00
70
F8
F8
78
18
18
18
10
30
20
40
ENDCHAR
STARTCHAR 003C
ENCODING 60
SWIDTH 944 0
DWIDTH 34 0
BBX 28 29 3 -5
BITMAP
00000070
000001C0
00000700
00001C00
00007000
0001E000
00038000
000E0000
00380000
00E00000
03800000
0F000000
1C000000
70000000
C0000000
70000000
1C000000
07000000
01C00000
00F00000
00380000
000E0000
00038000
0000E000
00003800
00000E00
00000700
000001C0
00000070
ENDCHAR
STARTCHAR 003D
ENCODING 61
SWIDTH 944 0
DWIDTH 34 0
BBX 30 8 2 6
BITMAP
FFFFFFFC
00000000
00000000
00000000
00000000
00000000
00000000
FFFFFFFC
ENDCHAR
STARTCHAR 003E
ENCODING 62
SWIDTH 944 0
DWIDTH 34 0
BBX 28 29 3 -5
BITMAP
E0000000
38000000
0E000000
03800000
00E00000
00700000
001C0000
00070000
0001C000
00007000
00001C00
00000F00
00000380
000000E0
00000030
000000E0
00000380
00000E00
00003800
0000F000
0001C000
00070000
001C0000
00700000
01C00000
07000000
1E000000
38000000
E0000000
ENDCHAR
STARTCHAR 003F
ENCODING 63
SWIDTH 472 0
DWIDTH 17 0
BBX 13 25 2 0
BITMAP
0F80
30E0
4070
C038
C038
F838
F838
7038
0070
00E0
01C0
0380
0300
0400
0C00
0840
0840
0880
0700
0000
0300
0780
0780
0780
0300
ENDCHAR
STARTCHAR 0040
ENCODING 64
SWIDTH 833 0
DWIDTH 30 0
BBX 26 27 2 0
BITMAP
00040000
00FBE000
03003800
06000C00
0C000600
18000300
300F0100
3031F180
6060F180
60C0E080
C1C0E0C0
C180E0C0
C180C0C0
C380C0C0
C301C0C0
C301C0C0
C3018180
C3038180
43078100
63078200
61898400
20F0F800
30000000
18000000
0C001000
07003000
01FFC000
ENDCHAR
STARTCHAR 0041
ENCODING 65
SWIDTH 777 0
DWIDTH 28 0
BBX 25 26 2 0
BITMAP
00080000
000C0000
001C0000
001C0000
001E0000
003E0000
002E0000
002F0000
00670000
00670000
00478000
00C38000
00C38000
0083C000
0181C000
0181C000
0301E000
03FFE000
0200E000
0600F000
06007000
06007000
0C007800
0C007800
1E007800
FFC3FF80
ENDCHAR
STARTCHAR 0042
ENCODING 66
SWIDTH 694 0
DWIDTH 25 0
BBX 20 26 3 0
BITMAP
FFFC00
1C0300
1C01C0
1C01C0
1C00E0
1C00E0
1C00E0
1C00E0
1C00E0
1C01C0
1C0180
1C0300
1FFC00
1C0700
1C01C0
1C01E0
1C00E0
1C00F0
1C00F0
1C00F0
1C00F0
1C00F0
1C01E0
1C01C0
1C0380
FFFE00
ENDCHAR
STARTCHAR 0043
ENCODING 67
SWIDTH 666 0
DWIDTH 24 0
BBX 19 26 3 1
BITMAP
03FC20
0E0660
1C03E0
1801E0
3800E0
7800E0
700060
700060
F00060
F00020
F00000
F00000
F00000
F00000
F00000
F00000
F00000
700020
700020
780060
380040
380040
1C0080
0C0080
060300
03DE00
ENDCHAR
STARTCHAR 0044
ENCODING 68
SWIDTH 805 0
DWIDTH 29 0
BBX 24 26 3 0
BITMAP
FFFF00
1C01C0
1C0070
1C0038
1C0038
1C001C
1C001E
1C001E
1C000E
1C000F
1C000F
1C000F
1C000F
1C000F
1C000F
1C000F
1C000F
1C000E
1C001E
1C001E
1C001C
1C0038
1C0038
1C0070
1C01C0
FFFF00
ENDCHAR
STARTCHAR 0045
ENCODING 69
SWIDTH 694 0
DWIDTH 25 0
BBX 21 26 2 0
BITMAP
FFFFF8
0E0078
0E0038
0E0018
0E0018
0E0008
0E0008
0E0408
0E0400
0E0400
0E0C00
0E0C00
0FFC00
0E0C00
0E0400
0E0400
0E0408
0E0408
0E0008
0E0008
0E0018
0E0018
0E0038
0E0038
0E00F8
FFFFF8
ENDCHAR
STARTCHAR 0046
ENCODING 70
SWIDTH 666 0
DWIDTH 24 0
BBX 20 26 2 0
BITMAP
FFFFF0
0E00F0
0E0070
0E0030
0E0030
0E0010
0E0010
0E0410
0E0400
0E0400
0E0C00
0E0C00
0FFC00
0E0C00
0E0C00
0E0400
0E0400
0E0400
0E0000
0E0000
0E0000
0E0000
0E0000
0E0000
0E0000
FFE000
ENDCHAR
STARTCHAR 0047
ENCODING 71
SWIDTH 722 0
DWIDTH 26 0
BBX 22 27 3 0
BITMAP
002000
03DC20
060720
0C03E0
1801E0
3800E0
380060
700060
700060
700020
F00020
F00000
F00000
F00000
F00FFC
F000E0
F000E0
F000E0
F000E0
7000E0
7000E0
3800E0
3801E0
180120
0C0320
060620
03FC20
ENDCHAR
STARTCHAR 0048
ENCODING 72
SWIDTH 777 0
DWIDTH 28 0
BBX 24 26 2 0
BITMAP
FFC3FF
0E0038
0E0038
0E0038
0E0038
0E0038
0E0038
0E0038
0E0038
0E0038
0E0038
0E0038
0FFFF8
0E0038
0E0038
0E0038
0E0038
0E0038
0E0038
0E0038
0E0038
0E0038
0E0038
0E0038
0E0038
FFC3FF
ENDCHAR
STARTCHAR 0049
ENCODING 73
SWIDTH 388 0
DWIDTH 14 0
BBX 10 26 2 0
BITMAP
FFC0
0E00
0E00
0E00
0E00
0E00
0E00
0E00
0E00
0E00
0E00
0E00
0E00
0E00
0E00
0E00
0E00
0E00
0E00
0E00
0E00
0E00
0E00
0E00
0E00
FFC0
ENDCHAR
STARTCHAR 004A
ENCODING 74
SWIDTH 527 0
DWIDTH 19 0
BBX 16 26 2 0
BITMAP
03FF
0038
0038
0038
0038
0038
0038
0038
0038
0038
0038
0038
0038
0038
0038
0038
0038
0038
7038
F838
F838
F038
C030
C070
6060
3FC0
ENDCHAR
STARTCHAR 004B
ENCODING 75
SWIDTH 777 0
DWIDTH 28 0
BBX 24 26 2 0
BITMAP
FFC7FE
0E01F0
0E00E0
0E00C0
0E0180
0E0300
0E0600
0E0C00
0E1800
0E1800
0E3800
0E7C00
0EBC00
0F3E00
0F1E00
0E1F00
0E0F00
0E0F80
0E0780
0E07C0
0E03C0
0E01E0
0E01F0
0E00F0
0E00F8
FFC7FF
ENDCHAR
STARTCHAR 004C
ENCODING 76
SWIDTH 666 0
DWIDTH 24 0
BBX 20 26 2 0
BITMAP
FFE000
0E0000
0E0000
0E0000
0E0000
0E0000
0E0000
0E0000
0E0000
0E0000
0E0000
0E0000
0E0000
0E0000
0E0000
0E0000
0E0010
0E0010
0E0020
0E0030
0E0030
0E0030
0E0070
0E00F0
0E03F0
FFFFF0
ENDCHAR
STARTCHAR 004D
ENCODING 77
SWIDTH 833 0
DWIDTH 30 0
BBX 26 26 2 0
BITMAP
FF001FC0
0F001E00
0F801E00
0F802E00
0B802E00
0B802E00
0BC06E00
09C04E00
09C04E00
09E04E00
08E08E00
08E08E00
08E08E00
08F18E00
08710E00
08710E00
08790E00
083B0E00
083A0E00
083A0E00
081E0E00
081C0E00
081C0E00
080C0E00
1C0C0E00
FF88FFC0
ENDCHAR
STARTCHAR 004E
ENCODING 78
SWIDTH 777 0
DWIDTH 28 0
BBX 25 26 2 0
BITMAP
FE00FF80
0F001C00
0F800800
0F800800
0BC00800
0BC00800
09E00800
08F00800
08F00800
08780800
083C0800
083C0800
081E0800
081E0800
080F0800
08078800
08078800
0803C800
0801E800
0801E800
0800F800
08007800
08007800
08003800
1C001800
FF801800
ENDCHAR
STARTCHAR 004F
ENCODING 79
SWIDTH 722 0
DWIDTH 26 0
BBX 21 27 3 0
BITMAP
002000
03DC00
060300
0C0180
1C01C0
3800E0
3800E0
7800F0
700070
700070
F00078
F00078
F00078
F00078
F00078
F00078
F00078
F00078
700070
700070
7800F0
3800E0
3800E0
1C01C0
0C0180
060300
03FE00
ENDCHAR
STARTCHAR 0050
ENCODING 80
SWIDTH 694 0
DWIDTH 25 0
BBX 21 26 2 0
BITMAP
FFFF00
0E01C0
0E00E0
0E00F0
0E0078
0E0078
0E0078
0E0078
0E0078
0E0070
0E00F0
0E00E0
0E01C0
0FFE00
0E0000
0E0000
0E0000
0E0000
0E0000
0E0000
0E0000
0E0000
0E0000
0E0000
0E0000
FFE000
ENDCHAR
STARTCHAR 0051
ENCODING 81
SWIDTH 722 0
DWIDTH 26 0
BBX 21 33 3 -6
BITMAP
002000
03DC00
060300
0C0180
1C01C0
3800E0
3800E0
7800F0
700070
700070
F00078
F00078
F00078
F00078
F00078
F00078
F00078
F00078
700070
700070
7800F0
3870E0
3998E0
1D0DC0
0D0D80
070F08
039E08
006E08
000E08
000E18
0007B0
0007F0
0003C0
ENDCHAR
STARTCHAR 0052
ENCODING 82
SWIDTH 694 0
DWIDTH 25 0
BBX 22 26 2 0
BITMAP
FFFF00
0E03C0
0E01E0
0E00F0
0E00F0
0E00F0
0E00F0
0E00F0
0E01E0
0E01C0
0E0780
0FFC00
0E0600
0E0700
0E0380
0E0380
0E0380
0E03C0
0E03C0
0E03C0
0E03C4
0E01C4
0E01C4
0E01EC
0E01F8
FFE0F0
ENDCHAR
STARTCHAR 0053
ENCODING 83
SWIDTH 611 0
DWIDTH 22 0
BBX 17 26 3 1
BITMAP
1FE300
303300
601F00
C00F00
C00700
C00300
C00300
E00300
F00100
780000
7F0000
3FC000
1FF800
07FC00
01FE00
803F00
800F80
800380
C00380
C00180
C00180
E00180
F00100
F80300
8C0600
87FC00
ENDCHAR
STARTCHAR 0054
ENCODING 84
SWIDTH 722 0
DWIDTH 26 0
BBX 21 26 3 0
BITMAP
FFFFF8
F07078
E07038
C07018
C07018
C07018
807008
807008
807008
807008
007000
007000
007000
007000
007000
007000
007000
007000
007000
007000
007000
007000
007000
007000
007000
07FF80
ENDCHAR
STARTCHAR 0055
ENCODING 85
SWIDTH 805 0
DWIDTH 29 0
BBX 25 26 2 0
BITMAP
FFC0FF80
0E000E00
0E000400
0E000400
0E000400
0E000400
0E000400
0E000400
0E000400
0E000400
0E000400
0E000400
0E000400
0E000400
0E000400
0E000400
0E000400
0E000400
0E000400
0E000400
0E000400
06000800
07000800
03001000
01C02000
007FC000
ENDCHAR
STARTCHAR 0056
ENCODING 86
SWIDTH 777 0
DWIDTH 28 0
BBX 25 26 2 0
BITMAP
FFF1FF80
0F003C00
0F001800
07801800
07801000
03803000
03C03000
03C03000
01C02000
01E06000
01E06000
00E04000
00F0C000
00F0C000
00708000
00718000
00798000
00390000
003B0000
003F0000
001E0000
001E0000
000E0000
000E0000
000C0000
00040000
ENDCHAR
STARTCHAR 0057
ENCODING 87
SWIDTH 1055 0
DWIDTH 38 0
BBX 36 26 1 0
BITMAP
FFE7FF3FF0
0F00F80780
0F00780300
0700780300
0780780600
0780F80600
0380FC0600
0380FC0400
03C09C0C00
01C19C0C00
01C19E0C00
01E10E1800
01E30E1800
00E30E1800
00E30F1000
00F2073000
0076073000
0076072000
007403E000
007C03E000
003C03C000
003C01C000
003801C000
001801C000
0018018000
0010008000
ENDCHAR
STARTCHAR 0058
ENCODING 88
SWIDTH 750 0
DWIDTH 27 0
BBX 24 26 2 0
BITMAP
FFE3FF
0F8070
078060
07C060
03C0C0
01E080
01E180
00E300
00F200
007600
007C00
003800
003C00
003C00
003E00
004F00
00CF00
008780
018780
0103C0
0303C0
0601E0
0600E0
0E00F0
1E00F0
FFC7FF
ENDCHAR
STARTCHAR 0059
ENCODING 89
SWIDTH 750 0
DWIDTH 27 0
BBX 24 26 2 0
BITMAP
FFE1FF
1F0038
0F0030
078030
078020
03C060
03C040
01E080
00E080
00F100
007100
007A00
003A00
003C00
001C00
001C00
001C00
001C00
001C00
001C00
001C00
001C00
001C00
001C00
001C00
01FFE0
ENDCHAR
STARTCHAR 005A
ENCODING 90
SWIDTH 638 0
DWIDTH 23 0
BBX 19 26 2 0
BITMAP
3FFFE0
3C03C0
3803C0
700780
600F00
600F00
401E00
401E00
403C00
007800
007800
00F000
00E000
01E000
03C000
03C000
078020
070020
0F0020
1E0060
1E0060
3C00E0
3800E0
7801E0
F003C0
FFFFC0
ENDCHAR
STARTCHAR 005B
ENCODING 91
SWIDTH 388 0
DWIDTH 14 0
BBX 7 33 4 -7
BITMAP
FE
F0
E0
E0
E0
E0
E0
E0
E0
E0
E0
E0
E0
E0
E0
E0
E0
E0
E0
E0
E0
E0
E0
E0
E0
E0
E0
E0
E0
E0
E0
F0
FE
ENDCHAR
STARTCHAR 005C
ENCODING 92
SWIDTH 444 0
DWIDTH 16 0
BBX 12 34 2 -7
BITMAP
8000
C000
4000
4000
6000
2000
2000
3000
1000
1000
1800
0800
0800
0C00
0400
0400
0600
0600
0200
0300
0300
0100
0180
0180
0080
0080
00C0
0040
0040
0060
0020
0020
0030
0010
ENDCHAR
STARTCHAR 005D
ENCODING 93
SWIDTH 416 0
DWIDTH 15 0
BBX 7 33 3 -7
BITMAP
FE
0E
0E
0E
0E
0E
0E
0E
0E
0E
0E
0E
0E
0E
0E
0E
0E
0E
0E
0E
0E
0E
0E
0E
0E
0E
0E
0E
0E
0E
0E
0E
FE
ENDCHAR
STARTCHAR 005E
ENCODING 94
SWIDTH 583 0
DWIDTH 21 0
BBX 15 13 3 12
BITMAP
0100
0380
0380
06C0
0440
0C60
1830
1010
3018
6008
600C
C006
8002
ENDCHAR
STARTCHAR 005F
ENCODING 95
SWIDTH 527 0
DWIDTH 19 0
BBX 19 1 0 -6
BITMAP
FFFFE0
ENDCHAR
STARTCHAR 0060
ENCODING 96
SWIDTH 444 0
DWIDTH 16 0
BBX 6 6 3 19
BITMAP
C0
E0
70
30
18
0C
ENDCHAR
STARTCHAR 0061
ENCODING 97
SWIDTH 527 0
DWIDTH 19 0
BBX 16 17 2 0
BITMAP
0F80
30E0
6070
6070
7870
7870
0070
01F0
1E70
7070
6070
E070
E071
E0F1
E171
717E
3E3C
ENDCHAR
STARTCHAR 0062
ENCODING 98
SWIDTH 500 0
DWIDTH 18 0
BBX 16 26 0 0
BITMAP
FC00
1C00
1C00
1C00
1C00
1C00
1C00
1C00
1C00
1C70
1D8C
1D0E
1E06
1E07
1C07
1C07
1C07
1C07
1C07
1C07
1C07
1C07
1E06
1A0E
110C
10F0
ENDCHAR
STARTCHAR 0063
ENCODING 99
SWIDTH 444 0
DWIDTH 16 0
BBX 12 17 2 0
BITMAP
0F80
1860
3030
7030
6070
E070
E070
E000
E000
E000
E000
E000
6010
7010
3020
1840
0F80
ENDCHAR
STARTCHAR 0064
ENCODING 100
SWIDTH 527 0
DWIDTH 19 0
BBX 16 26 2 0
BITMAP
01F8
0038
0038
0038
0038
0038
0038
0038
0038
0E38
39B8
30B8
7078
6078
E038
E038
E038
E038
E038
E038
E038
6038
7078
3078
30F8
0F3F
ENDCHAR
STARTCHAR 0065
ENCODING 101
SWIDTH 472 0
DWIDTH 17 0
BBX 13 17 2 0
BITMAP
0F80
18E0
3060
7070
6030
E038
E038
FFF8
E000
E000
E000
E008
7010
7010
3020
1860
0780
ENDCHAR
STARTCHAR 0066
ENCODING 102
SWIDTH 333 0
DWIDTH 12 0
BBX 12 26 1 0
BITMAP
07C0
0C20
1C30
3870
3870
3800
3800
3800
3800
FF80
3800
3800
3800
3800
3800
3800
3800
3800
3800
3800
3800
3800
3800
3800
3800
FF80
ENDCHAR
STARTCHAR 0067
ENCODING 103
SWIDTH 555 0
DWIDTH 20 0
BBX 17 25 2 -8
BITMAP
07C700
1C7580
383B80
701F80
701C00
701C00
701C00
701C00
383800
1C7000
07C000
380000
400000
400000
400000
7FE000
3FF800
0E1C00
700200
C00200
C00200
C00200
E00400
700800
0FF000
ENDCHAR
STARTCHAR 0068
ENCODING 104
SWIDTH 583 0
DWIDTH 21 0
BBX 18 26 1 0
BITMAP
FC0000
1C0000
1C0000
1C0000
1C0000
1C0000
1C0000
1C0000
1C0000
1C7C00
1C8E00
1D0700
1E0700
1E0700
1C0700
1C0700
1C0700
1C0700
1C0700
1C0700
1C0700
1C0700
1C0700
1C0700
1C0700
FF1FC0
ENDCHAR
STARTCHAR 0069
ENCODING 105
SWIDTH 277 0
DWIDTH 10 0
BBX 7 25 2 0
BITMAP
30
78
78
30
00
00
00
00
F8
38
38
38
38
38
38
38
38
38
38
38
38
38
38
38
FE
ENDCHAR
STARTCHAR 006A
ENCODING 106
SWIDTH 305 0
DWIDTH 11 0
BBX 9 34 -1 -8
BITMAP
0180
0380
0380
0180
0000
0000
0000
0000
0000
1F80
0380
0380
0380
0380
0380
0380
0380
0380
0380
0380
0380
0380
0380
0380
0380
0380
0380
0380
4380
E380
E300
C300
4600
3C00
ENDCHAR
STARTCHAR 006B
ENCODING 107
SWIDTH 527 0
DWIDTH 19 0
BBX 17 26 1 0
BITMAP
FC0000
1C0000
1C0000
1C0000
1C0000
1C0000
1C0000
1C0000
1C0000
1C7F00
1C1800
1C1000
1C3000
1C2000
1C4000
1C8000
1DC000
1DC000
1EE000
1C7000
1C7000
1C3800
1C3C00
1C1C00
1C1E00
FF7F80
ENDCHAR
STARTCHAR 006C
ENCODING 108
SWIDTH 305 0
DWIDTH 11 0
BBX 9 26 1 0
BITMAP
FC00
1C00
1C00
1C00
1C00
1C00
1C00
1C00
1C00
1C00
1C00
1C00
1C00
1C00
1C00
1C00
1C00
1C00
1C00
1C00
1C00
1C00
1C00
1C00
1C00
FF80
ENDCHAR
STARTCHAR 006D
ENCODING 109
SWIDTH 805 0
DWIDTH 29 0
BBX 25 17 2 0
BITMAP
F8F07800
39389C00
3A1D0E00
3C1E0E00
3C1E0E00
381C0E00
381C0E00
381C0E00
381C0E00
381C0E00
381C0E00
381C0E00
381C0E00
381C0E00
381C0E00
381C0E00
FE7F3F80
ENDCHAR
STARTCHAR 006E
ENCODING 110
SWIDTH 583 0
DWIDTH 21 0
BBX 17 17 2 0
BITMAP
F8F800
391C00
3A0E00
3C0E00
3C0E00
380E00
380E00
380E00
380E00
380E00
380E00
380E00
380E00
380E00
380E00
380E00
FE3F80
ENDCHAR
STARTCHAR 006F
ENCODING 111
SWIDTH 500 0
DWIDTH 18 0
BBX 14 17 2 0
BITMAP
0780
1860
3030
7038
7018
E01C
E01C
E01C
E01C
E01C
E01C
E01C
7018
7038
3030
1860
0780
ENDCHAR
STARTCHAR 0070
ENCODING 112
SWIDTH 527 0
DWIDTH 19 0
BBX 16 25 1 -8
BITMAP
FCF0
1D8C
1F0E
1E06
1E07
1C07
1C07
1C07
1C07
1C07
1C07
1C07
1C07
1E06
1E0E
1D0C
1CF0
1C00
1C00
1C00
1C00
1C00
1C00
1C00
FF80
ENDCHAR
STARTCHAR 0071
ENCODING 113
SWIDTH 500 0
DWIDTH 18 0
BBX 16 25 2 -8
BITMAP
0F08
3888
30D8
7058
6078
E038
E038
E038
E038
E038
E038
E038
6038
7078
3078
30B8
0F38
0038
0038
0038
0038
0038
0038
0038
01FF
ENDCHAR
STARTCHAR 0072
ENCODING 114
SWIDTH 416 0
DWIDTH 15 0
BBX 12 17 2 0
BITMAP
F8E0
3910
3A30
3A70
3C70
3C00
3C00
3800
3800
3800
3800
3800
3800
3800
3800
3800
FE00
ENDCHAR
STARTCHAR 0073
ENCODING 115
SWIDTH 444 0
DWIDTH 16 0
BBX 12 17 2 0
BITMAP
3E40
6140
C0C0
C040
C040
E040
7800
7F00
1FC0
07E0
80F0
C070
C030
E030
E030
9860
87C0
ENDCHAR
STARTCHAR 0074
ENCODING 116
SWIDTH 361 0
DWIDTH 13 0
BBX 11 24 1 0
BITMAP
0800
0800
0800
0800
1800
1800
3800
FFC0
3800
3800
3800
3800
3800
3800
3800
3800
3800
3800
3820
3820
3820
3860
1FC0
0F80
ENDCHAR
STARTCHAR 0075
ENCODING 117
SWIDTH 555 0
DWIDTH 20 0
BBX 17 17 1 0
BITMAP
F83E00
380E00
380E00
380E00
380E00
380E00
380E00
380E00
380E00
380E00
380E00
380E00
381E00
381E00
382E00
1C4E00
0F8F80
ENDCHAR
STARTCHAR 0076
ENCODING 118
SWIDTH 527 0
DWIDTH 19 0
BBX 18 17 0 0
BITMAP
FF1FC0
1C0700
1C0600
0C0400
0E0400
0E0400
070800
070800
030800
039000
019000
01D000
01E000
00E000
00E000
004000
004000
ENDCHAR
STARTCHAR 0077
ENCODING 119
SWIDTH 777 0
DWIDTH 28 0
BBX 27 17 0 0
BITMAP
FF3FCFE0
1C0F0300
1C070300
0C070200
0E070200
0E0F8200
070B8400
07098400
0389C400
0391C800
0190C800
01D0E800
01E0F000
00E07000
00E07000
00406000
00402000
ENDCHAR
STARTCHAR 0078
ENCODING 120
SWIDTH 527 0
DWIDTH 19 0
BBX 16 17 2 0
BITMAP
FE7E
3C38
1C30
1C20
0E40
0E40
0780
0380
0380
03C0
03C0
04E0
0860
0870
1038
3038
FCFF
ENDCHAR
STARTCHAR 0079
ENCODING 121
SWIDTH 555 0
DWIDTH 20 0
BBX 18 25 1 -8
BITMAP
FF1FC0
1C0600
1C0600
0C0400
0E0400
0E0400
060800
070800
070800
031000
039000
039000
01F000
01E000
01E000
00E000
00C000
004000
00C000
008000
708000
718000
710000
730000
3C0000
ENDCHAR
STARTCHAR 007A
ENCODING 122
SWIDTH 416 0
DWIDTH 15 0
BBX 12 17 1 0
BITMAP
FFF0
E070
C0E0
80E0
81C0
8380
8380
0700
0700
0E00
1C10
1C10
3810
3810
7030
E070
FFF0
ENDCHAR
STARTCHAR 007B
ENCODING 123
SWIDTH 416 0
DWIDTH 15 0
BBX 8 33 3 -7
BITMAP
03
04
08
18
18
18
18
1C
1C
1C
0C
0C
0C
0C
08
18
E0
18
08
0C
0C
0C
0C
1C
1C
1C
18
18
18
18
08
04
03
ENDCHAR
STARTCHAR 007C
ENCODING 124
SWIDTH 277 0
DWIDTH 10 0
BBX 2 34 4 -7
BITMAP
C0
C0
C0
C0
C0
C0
C0
C0
C0
C0
C0
C0
C0
C0
C0
C0
C0
C0
C0
C0
C0
C0
C0
C0
C0
C0
C0
C0
C0
C0
C0
C0
C0
C0
ENDCHAR
STARTCHAR 007D
ENCODING 125
SWIDTH 388 0
DWIDTH 14 0
BBX 8 33 3 -7
BITMAP
C0
20
10
18
18
18
18
18
38
38
30
30
30
30
10
18
07
18
10
30
30
30
30
38
38
18
18
18
18
18
10
20
C0
ENDCHAR
STARTCHAR 007E
ENCODING 126
SWIDTH 666 0
DWIDTH 24 0
BBX 20 6 2 6
BITMAP
3E0020
7FC010
87F810
80FF30
803FE0
6007C0
ENDCHAR
STARTCHAR 00A0
ENCODING 160
SWIDTH 277 0
DWIDTH 10 0
BBX 0 0 0 0
BITMAP
ENDCHAR
STARTCHAR 00A1
ENCODING 161
SWIDTH 277 0
DWIDTH 10 0
BBX 4 25 3 -8
BITMAP
60
F0
F0
F0
60
40
40
60
60
60
60
60
60
60
60
60
60
F0
F0
F0
F0
F0
F0
F0
60
ENDCHAR
STARTCHAR 00A2
ENCODING 162
SWIDTH 583 0
DWIDTH 21 0
BBX 12 25 4 -4
BITMAP
0100
0100
0100
0100
07C0
1920
3930
7130
7170
E170
E120
E100
E100
E100
E100
E100
7110
7110
3910
1D20
07C0
0100
0100
0100
0100
ENDCHAR
STARTCHAR 00A3
ENCODING 163
SWIDTH 694 0
DWIDTH 25 0
BBX 20 25 2 0
BITMAP
000F80
001860
003020
006070
00C0F0
00C0F0
01C0E0
01C000
01C000
01C000
01C000
3FC000
01FE00
01C000
01C000
01C000
01C000
01C000
01C000
398010
C78010
838030
83E060
86FFC0
783F80
ENDCHAR
STARTCHAR 00A4
ENCODING 164
SWIDTH 611 0
DWIDTH 22 0
BBX 18 16 2 5
BITMAP
C3F1C0
7C0F80
300700
200300
600100
400180
400080
400080
400080
400080
400180
600100
200300
300700
7C0F80
E3F1C0
ENDCHAR
STARTCHAR 00A5
ENCODING 165
SWIDTH 611 0
DWIDTH 22 0
BBX 20 25 1 0
BITMAP
FF07F0
3C01C0
1C0180
1E0100
0E0300
0F0200
070600
078400
038C00
038800
01D800
01D000
01E000
1FFF00
00E000
00E000
1FFF00
00E000
00E000
00E000
00E000
00E000
00E000
00E000
0FFE00
ENDCHAR
STARTCHAR 00A6
ENCODING 166
SWIDTH 277 0
DWIDTH 10 0
BBX 2 33 4 -6
BITMAP
C0
C0
C0
C0
C0
C0
C0
C0
C0
C0
C0
C0
C0
00
00
00
00
00
00
00
C0
C0
C0
C0
C0
C0
C0
C0
C0
C0
C0
C0
C0
ENDCHAR
STARTCHAR 00A7
ENCODING 167
SWIDTH 638 0
DWIDTH 23 0
BBX 13 32 4 -7
BITMAP
0780
1840
1060
30E0
30E0
3040
3800
1C00
1E00
0F00
1780
63C0
81E0
80F0
8078
8018
C018
E008
7808
3C10
1E20
0F40
0780
03C0
01C0
00E0
1060
3860
3860
3040
10C0
0F00
ENDCHAR
STARTCHAR 00A8
ENCODING 168
SWIDTH 444 0
DWIDTH 16 0
BBX 10 4 3 20
BITMAP
60C0
E1C0
E1C0
60C0
ENDCHAR
STARTCHAR 00A9
ENCODING 169
SWIDTH 833 0
DWIDTH 30 0
BBX 26 26 2 1
BITMAP
00FFC000
03003000
04000800
08000400
101E0200
2071E100
20E0E100
41C06080
41C06080
81802040
83802040
83800040
83800040
83800040
83800040
83800040
83802040
41C04080
41C04080
20E04100
20708100
101F0200
08000400
04000800
03003000
00FFC000
ENDCHAR
STARTCHAR 00AA
ENCODING 170
SWIDTH 361 0
DWIDTH 13 0
BBX 9 13 2 12
BITMAP
7800
8400
C600
C600
0E00
3600
4600
C600
C680
CE80
7300
0000
FF00
ENDCHAR
STARTCHAR 00AB
ENCODING 171
SWIDTH 500 0
DWIDTH 18 0
BBX 10 14 4 2
BITMAP
1040
3080
6180
6100
C300
C300
C300
C300
C300
4300
6100
2080
10C0
0800
ENDCHAR
STARTCHAR 00AC
ENCODING 172
SWIDTH 611 0
DWIDTH 22 0
BBX 18 7 2 6
BITMAP
FFFFC0
0000C0
0000C0
0000C0
0000C0
0000C0
0000C0
ENDCHAR
STARTCHAR 00AD
ENCODING 173
SWIDTH 361 0
DWIDTH 13 0
BBX 9 2 2 8
BITMAP
FF80
FF80
ENDCHAR
STARTCHAR 00AE
ENCODING 174
SWIDTH 833 0
DWIDTH 30 0
BBX 26 26 2 1
BITMAP
00FFC000
03003000
04000800
08000400
13FF0200
20E1C100
20E0E100
40E0E080
40E0E080
80E0E040
80E0E040
80E1C040
80FE0040
80E18040
80E0C040
80E0E040
80E0E040
40E0E480
40E0E480
20E0E900
23F87900
10000200
08000400
04000800
03003000
00FFC000
ENDCHAR
STARTCHAR 00AF
ENCODING 175
SWIDTH 416 0
DWIDTH 15 0
BBX 9 1 3 21
BITMAP
FF80
ENDCHAR
STARTCHAR 00B0
ENCODING 176
SWIDTH 611 0
DWIDTH 22 0
BBX 10 9 6 16
BITMAP
1E00
6180
C080
8040
8040
8040
4080
6180
1E00
ENDCHAR
STARTCHAR 00B1
ENCODING 177
SWIDTH 944 0
DWIDTH 34 0
BBX 30 25 2 -1
BITMAP
00030000
00030000
00030000
00030000
00030000
00030000
00030000
00030000
00030000
00030000
FFFFFFFC
00030000
00030000
00030000
00030000
00030000
00030000
00030000
00030000
00030000
00030000
00000000
00000000
00000000
FFFFFFFC
ENDCHAR
STARTCHAR 00B2
ENCODING 178
SWIDTH 444 0
DWIDTH 16 0
BBX 10 15 3 10
BITMAP
3F00
4380
81C0
81C0
E1C0
E1C0
0180
0300
0600
0800
3000
4040
4040
FFC0
FFC0
ENDCHAR
STARTCHAR 00B3
ENCODING 179
SWIDTH 444 0
DWIDTH 16 0
BBX 10 16 4 9
BITMAP
3E00
4300
C180
E180
E180
0180
0300
7C00
0380
01C0
01C0
E1C0
E1C0
81C0
8380
7E00
ENDCHAR
STARTCHAR 00B4
ENCODING 180
SWIDTH 444 0
DWIDTH 16 0
BBX 6 6 7 19
BITMAP
0C
1C
38
30
60
C0
ENDCHAR
STARTCHAR 00B5
ENCODING 181
SWIDTH 611 0
DWIDTH 22 0
BBX 19 27 2 -10
BITMAP
601800
E03C00
E03C00
E03C00
E03C00
E03C00
E03C00
E03C00
E03C00
C01800
401800
401800
403800
603020
707C60
5FE7E0
47C3C0
800000
C00000
C00000
C00000
C00000
E00000
E00000
E00000
F00000
600000
ENDCHAR
STARTCHAR 00B6
ENCODING 182
SWIDTH 527 0
DWIDTH 19 0
BBX 15 31 2 -5
BITMAP
1FFE
3E10
7E10
FE10
FE10
FE10
FE10
FE10
FE10
7E10
3E10
0210
0210
0210
0210
0210
0210
0210
0210
0210
0210
0210
0210
0210
0210
0210
0210
0210
0210
0210
0210
ENDCHAR
STARTCHAR 00B7
ENCODING 183
SWIDTH 277 0
DWIDTH 10 0
BBX 4 5 3 9
BITMAP
60
F0
F0
F0
60
ENDCHAR
STARTCHAR 00B8
ENCODING 184
SWIDTH 444 0
DWIDTH 16 0
BBX 7 7 4 -8
BITMAP
10
20
1C
06
06
86
7C
ENDCHAR
STARTCHAR 00B9
ENCODING 185
SWIDTH 444 0
DWIDTH 16 0
BBX 8 15 4 10
BITMAP
08
18
F8
18
18
18
18
18
18
18
18
18
18
18
FF
ENDCHAR
STARTCHAR 00BA
ENCODING 186
SWIDTH 416 0
DWIDTH 15 0
BBX 9 13 3 12
BITMAP
1C00
6300
4300
C180
C180
C180
C180
C180
4300
6300
1C00
0000
FF80
ENDCHAR
STARTCHAR 00BB
ENCODING 187
SWIDTH 472 0
DWIDTH 17 0
BBX 9 14 4 2
BITMAP
8400
4200
6300
2100
3180
3180
3180
3180
3180
2180
6300
4300
8600
0400
ENDCHAR
STARTCHAR 00BC
ENCODING 188
SWIDTH 861 0
DWIDTH 31 0
BBX 24 25 4 0
BITMAP
080010
180030
F80020
180040
180040
180080
180180
180100
180200
180600
18040C
18081C
18081C
18102C
FF304C
00204C
00408C
00C08C
00810C
01020C
0103FF
02000C
06000C
04000C
08007F
ENDCHAR
STARTCHAR 00BD
ENCODING 189
SWIDTH 861 0
DWIDTH 31 0
BBX 24 25 4 0
BITMAP
080020
180060
F80040
1800C0
180080
180100
180100
180200
180600
180400
180CF8
18090E
18120F
181207
FF2387
006187
00400E
00800C
008018
010020
0300C1
020101
060101
0403FF
0803FE
ENDCHAR
STARTCHAR 00BE
ENCODING 190
SWIDTH 861 0
DWIDTH 31 0
BBX 24 25 4 0
BITMAP
3E0020
430020
C18040
E180C0
018080
030180
7C0100
038200
01C200
01C400
E1CC18
E1C818
81D038
839058
7E2058
006098
004098
00C118
008118
010218
0303FF
020018
060018
040018
08007F
ENDCHAR
STARTCHAR 00BF
ENCODING 191
SWIDTH 472 0
DWIDTH 17 0
BBX 13 25 1 -8
BITMAP
0600
0F00
0F00
0F00
0600
0700
08C0
1040
1040
10C0
0080
0100
0700
0E00
1C00
3800
7000
F070
E078
E078
E018
E018
7010
3860
0FC0
ENDCHAR
STARTCHAR 00C0
ENCODING 192
SWIDTH 777 0
DWIDTH 28 0
BBX 25 34 2 0
BITMAP
00C00000
00E00000
00E00000
00300000
00180000
00080000
00000000
00000000
00080000
000C0000
001C0000
001C0000
001E0000
003E0000
002E0000
002F0000
00670000
00670000
00478000
00C38000
00C38000
0083C000
0181C000
0181C000
0301E000
03FFE000
0200E000
0600F000
06007000
06007000
0C007800
0C007800
1E007800
FFC3FF80
ENDCHAR
STARTCHAR 00C1
ENCODING 193
SWIDTH 777 0
DWIDTH 28 0
BBX 25 34 2 0
BITMAP
0000C000
0001C000
00038000
00070000
00060000
00080000
00000000
00000000
00080000
000C0000
001C0000
001C0000
001E0000
003E0000
002E0000
002F0000
00670000
00670000
00478000
00C38000
00C38000
0183C000
0181C000
0181C000
0301E000
03FFE000
0200E000
0600F000
06007000
04007000
0C007800
0C003800
1E007C00
FFC3FF80
ENDCHAR
STARTCHAR 00C2
ENCODING 194
SWIDTH 777 0
DWIDTH 28 0
BBX 25 34 2 0
BITMAP
00080000
001C0000
001E0000
00330000
00418000
01804000
00000000
00000000
00080000
000C0000
001C0000
001C0000
001E0000
003E0000
002E0000
002F0000
00670000
00670000
00478000
00C38000
00C38000
0083C000
0181C000
0181C000
0301E000
03FFE000
0200E000
0600F000
06007000
06007000
0C007800
0C007800
1E007800
FFC3FF80
ENDCHAR
STARTCHAR 00C3
ENCODING 195
SWIDTH 777 0
DWIDTH 28 0
BBX 25 33 2 0
BITMAP
00704000
00FC4000
009FC000
01078000
00000000
00000000
00000000
00080000
000C0000
001C0000
001C0000
001E0000
003E0000
002E0000
002F0000
00670000
00670000
00478000
00C38000
00C38000
0183C000
0181C000
0181C000
0301E000
03FFE000
0200E000
0600F000
06007000
04007000
0C007800
0C003800
1E007C00
FFC3FF80
ENDCHAR
STARTCHAR 00C4
ENCODING 196
SWIDTH 777 0
DWIDTH 28 0
BBX 25 33 2 0
BITMAP
00C18000
01C1C000
01C1C000
00C18000
00000000
00000000
00000000
00080000
00180000
001C0000
001C0000
003C0000
003E0000
003E0000
006E0000
004F0000
00470000
00C70000
00C78000
00838000
01838000
0181C000
0101C000
0301C000
03FFE000
0200E000
0600E000
06007000
04007000
0C007000
0C007800
1E007800
FFC3FF80
ENDCHAR
STARTCHAR 00C5
ENCODING 197
SWIDTH 777 0
DWIDTH 28 0
BBX 25 35 2 0
BITMAP
001C0000
00220000
00410000
00410000
00410000
00410000
00220000
001C0000
00000000
00080000
000C0000
001C0000
001C0000
001E0000
003E0000
002E0000
002F0000
006F0000
00470000
00478000
00C78000
00838000
0183C000
0183C000
0101C000
0301E000
03FFE000
0200E000
0600F000
0600F000
04007000
0C007800
0C007800
1C007800
FFC3FF80
ENDCHAR
STARTCHAR 00C6
ENCODING 198
SWIDTH 1000 0
DWIDTH 36 0
BBX 33 26 1 0
BITMAP
0007FFFF80
0001E00780
0001E00380
0003E00180
0002E00180
0006E00080
0004E00080
000CE02080
0008E02000
0018E02000
0010E06000
0030E06000
0030FFE000
0060E06000
0060E06000
00C0E02000
00C0E02080
01FFE02080
0100E00080
0300E00080
0200E00180
0600E00180
0600E00180
0E00E00380
1E00E00F80
FFC7FFFF80
ENDCHAR
STARTCHAR 00C7
ENCODING 199
SWIDTH 666 0
DWIDTH 24 0
BBX 19 34 3 -7
BITMAP
03FC40
0E0660
1C03E0
1801E0
3800E0
7800E0
700060
700060
F00060
F00020
F00000
F00000
F00000
F00000
F00000
F00000
F00000
700020
700020
780060
380040
380040
180080
0C0080
060300
03CC00
007000
004000
00F000
001C00
001C00
001C00
021C00
01F000
ENDCHAR
STARTCHAR 00C8
ENCODING 200
SWIDTH 694 0
DWIDTH 25 0
BBX 21 34 2 0
BITMAP
030000
038000
01C000
00C000
006000
001000
000000
000000
FFFFF8
0E0078
0E0038
0E0018
0E0018
0E0008
0E0008
0E0408
0E0400
0E0400
0E0C00
0E0C00
0FFC00
0E0C00
0E0400
0E0400
0E0408
0E0408
0E0008
0E0008
0E0018
0E0018
0E0038
0E0038
0E00F8
FFFFF8
ENDCHAR
STARTCHAR 00C9
ENCODING 201
SWIDTH 694 0
DWIDTH 25 0
BBX 21 34 2 0
BITMAP
000300
000780
000700
000C00
001800
003000
000000
000000
FFFFF8
0E0078
0E0038
0E0018
0E0018
0E0008
0E0008
0E0408
0E0400
0E0400
0E0C00
0E0C00
0FFC00
0E0C00
0E0400
0E0400
0E0408
0E0408
0E0008
0E0008
0E0018
0E0018
0E0038
0E0038
0E00F8
FFFFF8
ENDCHAR
STARTCHAR 00CA
ENCODING 202
SWIDTH 694 0
DWIDTH 25 0
BBX 21 34 2 0
BITMAP
003000
003000
007800
00CC00
018600
020180
000000
000000
FFFFF8
0E0078
0E0038
0E0018
0E0018
0E0008
0E0008
0E0408
0E0400
0E0400
0E0C00
0E0C00
0FFC00
0E0C00
0E0400
0E0400
0E0408
0E0408
0E0008
0E0008
0E0018
0E0018
0E0038
0E0038
0E00F8
FFFFF8
ENDCHAR
STARTCHAR 00CB
ENCODING 203
SWIDTH 694 0
DWIDTH 25 0
BBX 21 33 2 0
BITMAP
018300
038700
038700
018300
000000
000000
000000
FFFFF8
0E0078
0E0038
0E0018
0E0018
0E0008
0E0008
0E0408
0E0400
0E0400
0E0C00
0E0C00
0FFC00
0E0C00
0E0400
0E0400
0E0408
0E0408
0E0008
0E0008
0E0018
0E0018
0E0038
0E0038
0E00F8
FFFFF8
ENDCHAR
STARTCHAR 00CC
ENCODING 204
SWIDTH 388 0
DWIDTH 14 0
BBX 10 34 2 0
BITMAP
C000
E000
7000
3800
0800
0400
0000
0000
FFC0
0E00
0E00
0E00
0E00
0E00
0E00
0E00
0E00
0E00
0E00
0E00
0E00
0E00
0E00
0E00
0E00
0E00
0E00
0E00
0E00
0E00
0E00
0E00
0E00
FFC0
ENDCHAR
STARTCHAR 00CD
ENCODING 205
SWIDTH 388 0
DWIDTH 14 0
BBX 10 34 2 0
BITMAP
00C0
01C0
0180
0300
0600
0400
0000
0000
FFC0
0E00
0E00
0E00
0E00
0E00
0E00
0E00
0E00
0E00
0E00
0E00
0E00
0E00
0E00
0E00
0E00
0E00
0E00
0E00
0E00
0E00
0E00
0E00
0E00
FFC0
ENDCHAR
STARTCHAR 00CE
ENCODING 206
SWIDTH 388 0
DWIDTH 14 0
BBX 10 34 2 0
BITMAP
0400
0E00
1E00
3B00
6180
8040
0000
0000
FFC0
0E00
0E00
0E00
0E00
0E00
0E00
0E00
0E00
0E00
0E00
0E00
0E00
0E00
0E00
0E00
0E00
0E00
0E00
0E00
0E00
0E00
0E00
0E00
0E00
FFC0
ENDCHAR
STARTCHAR 00CF
ENCODING 207
SWIDTH 388 0
DWIDTH 14 0
BBX 11 33 2 0
BITMAP
60C0
E0E0
E0E0
60C0
0000
0000
0000
7FE0
0E00
0E00
0E00
0E00
0E00
0E00
0E00
0E00
0E00
0E00
0E00
0E00
0E00
0E00
0E00
0E00
0E00
0E00
0E00
0E00
0E00
0E00
0E00
0E00
7FE0
ENDCHAR
STARTCHAR 00D0
ENCODING 208
SWIDTH 750 0
DWIDTH 27 0
BBX 24 26 2 0
BITMAP
FFFF00
0E00C0
0E0070
0E0038
0E003C
0E001C
0E001E
0E001E
0E000E
0E000F
0E000F
0E000F
FFE00F
0E000F
0E000F
0E000F
0E000F
0E000E
0E001E
0E001E
0E001C
0E0038
0E0038
0E0070
0E00C0
FFFF00
ENDCHAR
STARTCHAR 00D1
ENCODING 209
SWIDTH 777 0
DWIDTH 28 0
BBX 25 33 2 0
BITMAP
00782000
00FE6000
008FC000
00838000
00000000
00000000
00000000
FE00FF80
0F001C00
0F800800
0F800800
0BC00800
0BC00800
09E00800
08F00800
08F00800
08780800
083C0800
083C0800
081E0800
081E0800
080F0800
08078800
08078800
0803C800
0801E800
0801E800
0800F800
08007800
08007800
08003800
1C001800
FF801800
ENDCHAR
STARTCHAR 00D2
ENCODING 210
SWIDTH 722 0
DWIDTH 26 0
BBX 21 34 3 0
BITMAP
030000
070000
038000
01C000
004000
002000
000000
002000
03DC00
060300
0C0180
1C01C0
3800E0
3800E0
7800F0
700070
700070
F00078
F00078
F00078
F00078
F00078
F00078
F00078
F00078
700070
700070
7800F0
3800E0
3800E0
1C01C0
0C0180
060300
03FE00
ENDCHAR
STARTCHAR 00D3
ENCODING 211
SWIDTH 722 0
DWIDTH 26 0
BBX 21 34 3 0
BITMAP
000600
000700
000E00
001C00
001000
002000
000000
002000
03DC00
060300
0C0180
1C01C0
3800E0
3800E0
7800F0
700070
700070
F00078
F00078
F00078
F00078
F00078
F00078
F00078
F00078
700070
700070
7800F0
3800E0
3800E0
1C01C0
0C0180
060300
03FE00
ENDCHAR
STARTCHAR 00D4
ENCODING 212
SWIDTH 722 0
DWIDTH 26 0
BBX 21 34 3 0
BITMAP
002000
007000
007000
00D800
010400
060300
000000
002000
03DC00
060300
0C0180
1C01C0
3800E0
3800E0
7800F0
700070
700070
F00078
F00078
F00078
F00078
F00078
F00078
F00078
F00078
700070
700070
7800F0
3800E0
3800E0
1C01C0
0C0180
060300
03FE00
ENDCHAR
STARTCHAR 00D5
ENCODING 213
SWIDTH 722 0
DWIDTH 26 0
BBX 21 33 3 0
BITMAP
03E100
03FF00
043E00
000000
000000
000000
002000
03DC00
060300
0C0180
1C01C0
3800E0
3800E0
7800F0
700070
700070
F00078
F00078
F00078
F00078
F00078
F00078
F00078
F00078
700070
700070
7800F0
3800E0
3800E0
1C01C0
0C0180
060300
03FE00
ENDCHAR
STARTCHAR 00D6
ENCODING 214
SWIDTH 722 0
DWIDTH 26 0
BBX 21 33 3 0
BITMAP
030600
070700
070700
030600
000000
000000
002000
03DC00
060300
0C0180
1C01C0
3800E0
3800E0
7800F0
700070
700070
F00078
F00078
F00078
F00078
F00078
F00078
F00078
F00078
700070
700070
7800F0
3800E0
3800E0
1C01C0
0C0180
060300
03FE00
ENDCHAR
STARTCHAR 00D7
ENCODING 215
SWIDTH 944 0
DWIDTH 34 0
BBX 22 23 6 -2
BITMAP
800004
C0000C
600018
300030
180060
0C00C0
060180
030300
018600
00CC00
007800
003000
007800
00CC00
018600
030300
060180
0C00C0
180060
300030
600018
C0000C
800000
ENDCHAR
STARTCHAR 00D8
ENCODING 216
SWIDTH 722 0
DWIDTH 26 0
BBX 21 27 3 0
BITMAP
002000
03DE18
060330
0C01E0
1C01C0
3800E0
3801E0
7803F0
700270
700670
F00C78
F01878
F01078
F03078
F06078
F0C078
F0C078
F18078
730070
720070
7E00F0
3C00E0
3800E0
1C01C0
3C0180
660300
C3DE00
ENDCHAR
STARTCHAR 00D9
ENCODING 217
SWIDTH 805 0
DWIDTH 29 0
BBX 25 34 2 0
BITMAP
00C00000
00E00000
00E00000
00300000
00100000
00080000
00000000
00000000
FFC0FF80
0E000E00
0E000400
0E000400
0E000400
0E000400
0E000400
0E000400
0E000400
0E000400
0E000400
0E000400
0E000400
0E000400
0E000400
0E000400
0E000400
0E000400
0E000400
0E000400
0E000400
06000800
07000800
03001000
01C02000
007FC000
ENDCHAR
STARTCHAR 00DA
ENCODING 218
SWIDTH 805 0
DWIDTH 29 0
BBX 25 34 2 0
BITMAP
0000C000
0001C000
00038000
00070000
00040000
00080000
00000000
00000000
FFC0FF80
0E000E00
0E000400
0E000400
0E000400
0E000400
0E000400
0E000400
0E000400
0E000400
0E000400
0E000400
0E000400
0E000400
0E000400
0E000400
0E000400
0E000400
0E000400
0E000400
0E000400
06000800
07000800
03001000
01C02000
007FC000
ENDCHAR
STARTCHAR 00DB
ENCODING 219
SWIDTH 805 0
DWIDTH 29 0
BBX 25 34 2 0
BITMAP
00080000
001C0000
001E0000
00370000
00418000
01806000
00000000
00000000
FFC0FF80
0E000E00
0E000400
0E000400
0E000400
0E000400
0E000400
0E000400
0E000400
0E000400
0E000400
0E000400
0E000400
0E000400
0E000400
0E000400
0E000400
0E000400
0E000400
0E000400
0E000400
06000800
07000800
03801000
01C06000
007FC000
ENDCHAR
STARTCHAR 00DC
ENCODING 220
SWIDTH 805 0
DWIDTH 29 0
BBX 25 33 2 0
BITMAP
00C0C000
00E1C000
00E1C000
00C0C000
00000000
00000000
00000000
FFC0FF80
0E000E00
0E000400
0E000400
0E000400
0E000400
0E000400
0E000400
0E000400
0E000400
0E000400
0E000400
0E000400
0E000400
0E000400
0E000400
0E000400
0E000400
0E000400
0E000400
0E000400
06000800
07000800
03001000
01C02000
007FC000
ENDCHAR
STARTCHAR 00DD
ENCODING 221
SWIDTH 750 0
DWIDTH 27 0
BBX 24 34 2 0
BITMAP
0000C0
0001C0
000380
000700
000400
000800
000000
000000
FFE1FF
1F0038
0F0030
078030
078020
03C060
03C040
01E080
00E080
00F100
007100
007A00
003A00
003C00
001C00
001C00
001C00
001C00
001C00
001C00
001C00
001C00
001C00
001C00
001C00
01FFE0
ENDCHAR
STARTCHAR 00DE
ENCODING 222
SWIDTH 694 0
DWIDTH 25 0
BBX 21 26 2 0
BITMAP
FFE000
0E0000
0E0000
0E0000
0E0000
0FFF00
0E01C0
0E00E0
0E00F0
0E0078
0E0078
0E0078
0E0078
0E0078
0E00F0
0E00E0
0E01C0
0FFF00
0E0000
0E0000
0E0000
0E0000
0E0000
0E0000
0E0000
FFE000
ENDCHAR
STARTCHAR 00DF
ENCODING 223
SWIDTH 527 0
DWIDTH 19 0
BBX 16 26 1 0
BITMAP
01F0
031C
060E
0E0E
1C0E
1C0E
1C0C
1C1C
1C30
1DC0
1C30
1C18
1C0C
1C0E
1C06
1C07
1C07
1C07
1C07
1C07
1C87
1DC7
1DC7
1D8E
1D8C
FC78
ENDCHAR
STARTCHAR 00E0
ENCODING 224
SWIDTH 527 0
DWIDTH 19 0
BBX 16 25 2 1
BITMAP
7000
7000
3800
1C00
0C00
0200
0000
0000
0F80
30E0
2070
6070
7870
7870
0070
01F0
1E70
7070
6070
E070
E071
E0F1
E171
717E
3E3C
ENDCHAR
STARTCHAR 00E1
ENCODING 225
SWIDTH 527 0
DWIDTH 19 0
BBX 16 25 2 1
BITMAP
0070
00F0
00E0
0180
0300
0200
0000
0000
0F80
30E0
6070
6070
7870
7870
0070
01F0
1E70
7070
6070
E070
E071
E0F1
E171
717E
3E3C
ENDCHAR
STARTCHAR 00E2
ENCODING 226
SWIDTH 527 0
DWIDTH 19 0
BBX 16 25 2 0
BITMAP
0600
0700
0700
0D80
18C0
3060
0000
0000
0F80
30E0
6070
6070
7870
7870
0070
01F0
1E70
7070
6070
E070
E071
E0F1
E171
717E
3E3C
ENDCHAR
STARTCHAR 00E3
ENCODING 227
SWIDTH 527 0
DWIDTH 19 0
BBX 16 24 2 0
BITMAP
1E30
3FE0
23C0
0000
0000
0000
0000
0F80
30E0
6070
6070
7870
7870
0070
01F0
1E70
7070
6070
E070
E071
E0F1
E171
717E
3E3C
ENDCHAR
STARTCHAR 00E4
ENCODING 228
SWIDTH 527 0
DWIDTH 19 0
BBX 16 24 2 0
BITMAP
3060
70E0
70E0
3060
0000
0000
0000
0F00
30C0
6060
6060
7060
7060
0060
01E0
1E60
7060
6060
E060
E061
E0E1
E163
717E
3E3C
ENDCHAR
STARTCHAR 00E5
ENCODING 229
SWIDTH 527 0
DWIDTH 19 0
BBX 16 25 2 0
BITMAP
0700
18C0
1040
1040
18C0
0700
0000
0000
0F80
30E0
6070
6070
7870
7870
0070
01F0
1E70
7070
6070
E070
E071
E0F1
E171
717E
3E3C
ENDCHAR
STARTCHAR 00E6
ENCODING 230
SWIDTH 722 0
DWIDTH 26 0
BBX 22 17 2 0
BITMAP
0F87C0
30EC70
607830
707838
787018
38701C
00701C
07FFFC
387000
707000
E07000
E07004
E0F808
E0B808
E13810
711C30
3E07C0
ENDCHAR
STARTCHAR 00E7
ENCODING 231
SWIDTH 444 0
DWIDTH 16 0
BBX 12 24 2 -7
BITMAP
0F80
1860
3030
7030
6070
E070
E070
E000
E000
E000
E000
E000
6010
7010
3020
1860
0F80
0200
0600
0180
00C0
00C0
10C0
0F80
ENDCHAR
STARTCHAR 00E8
ENCODING 232
SWIDTH 472 0
DWIDTH 17 0
BBX 13 25 2 1
BITMAP
3000
3800
1C00
0C00
0600
0300
0000
0000
0F80
18E0
3060
7070
6030
E038
E038
FFF8
E000
E000
E000
E008
7010
7010
3010
1860
0780
ENDCHAR
STARTCHAR 00E9
ENCODING 233
SWIDTH 472 0
DWIDTH 17 0
BBX 13 25 2 1
BITMAP
0070
0070
00E0
00C0
0180
0300
0000
0000
0F80
18E0
3060
7070
6030
E038
E038
FFF8
E000
E000
E000
E008
7010
7010
3010
1860
0780
ENDCHAR
STARTCHAR 00EA
ENCODING 234
SWIDTH 472 0
DWIDTH 17 0
BBX 13 25 2 0
BITMAP
0300
0300
0780
0580
0840
1020
0000
0000
0F80
18E0
3060
7070
6030
E038
E038
FFF8
E000
E000
E000
E008
7010
7010
3020
1860
0780
ENDCHAR
STARTCHAR 00EB
ENCODING 235
SWIDTH 472 0
DWIDTH 17 0
BBX 13 24 2 0
BITMAP
1860
3870
3870
1860
0000
0000
0000
0F80
18E0
3060
7030
6030
E038
E038
FFF8
E000
E000
E000
E008
7010
7010
3020
1860
0780
ENDCHAR
STARTCHAR 00EC
ENCODING 236
SWIDTH 305 0
DWIDTH 11 0
BBX 9 25 0 0
BITMAP
C000
E000
7000
3800
0800
0400
0000
0000
3E00
0E00
0E00
0E00
0E00
0E00
0E00
0E00
0E00
0E00
0E00
0E00
0E00
0E00
0E00
0E00
3F80
ENDCHAR
STARTCHAR 00ED
ENCODING 237
SWIDTH 277 0
DWIDTH 10 0
BBX 8 25 2 0
BITMAP
03
07
07
0C
18
30
00
00
F8
38
38
38
38
38
38
38
38
38
38
38
38
38
38
38
FE
ENDCHAR
STARTCHAR 00EE
ENCODING 238
SWIDTH 305 0
DWIDTH 11 0
BBX 9 25 1 0
BITMAP
1800
1C00
3C00
3600
6300
8080
0000
0000
7C00
1C00
1C00
1C00
1C00
1C00
1C00
1C00
1C00
1C00
1C00
1C00
1C00
1C00
1C00
1C00
7F00
ENDCHAR
STARTCHAR 00EF
ENCODING 239
SWIDTH 305 0
DWIDTH 11 0
BBX 9 24 1 0
BITMAP
6180
E380
E380
6180
0000
0000
0000
7E00
0E00
0E00
0E00
0E00
0E00
0E00
0E00
0E00
0E00
0E00
0E00
0E00
0E00
0E00
0E00
7F80
ENDCHAR
STARTCHAR 00F0
ENCODING 240
SWIDTH 500 0
DWIDTH 18 0
BBX 14 26 2 0
BITMAP
1C10
0E30
0FC0
0780
0780
0DC0
30E0
00E0
0070
07F0
1878
3038
703C
701C
E01C
E01C
E01C
E01C
E01C
E01C
E01C
7018
7038
3030
1860
0780
ENDCHAR
STARTCHAR 00F1
ENCODING 241
SWIDTH 583 0
DWIDTH 21 0
BBX 17 24 2 0
BITMAP
070400
0FCC00
09F800
087000
000000
000000
000000
F8F800
391C00
3A0E00
3C0E00
3C0E00
380E00
380E00
380E00
380E00
380E00
380E00
380E00
380E00
380E00
380E00
380E00
FE3F80
ENDCHAR
STARTCHAR 00F2
ENCODING 242
SWIDTH 500 0
DWIDTH 18 0
BBX 14 25 2 1
BITMAP
3800
3800
1C00
0C00
0600
0300
0000
0000
0780
1860
3030
7038
7018
E01C
E01C
E01C
E01C
E01C
E01C
E01C
7018
7038
3030
1860
0780
ENDCHAR
STARTCHAR 00F3
ENCODING 243
SWIDTH 500 0
DWIDTH 18 0
BBX 14 25 2 1
BITMAP
0030
0070
00E0
00C0
0180
0100
0000
0000
0780
1860
3030
7038
7018
E01C
E01C
E01C
E01C
E01C
E01C
E01C
7018
7038
3030
1860
0780
ENDCHAR
STARTCHAR 00F4
ENCODING 244
SWIDTH 500 0
DWIDTH 18 0
BBX 14 25 2 0
BITMAP
0300
0300
0780
0480
0840
1020
0000
0000
0780
1860
3030
7038
7018
E01C
E01C
E01C
E01C
E01C
E01C
E01C
7018
7038
3030
1860
0780
ENDCHAR
STARTCHAR 00F5
ENCODING 245
SWIDTH 500 0
DWIDTH 18 0
BBX 14 24 2 0
BITMAP
1E10
1FF0
21E0
0000
0000
0000
0000
0780
1860
3030
7038
7018
E01C
E01C
E01C
E01C
E01C
E01C
E01C
7018
7038
3030
1860
0780
ENDCHAR
STARTCHAR 00F6
ENCODING 246
SWIDTH 500 0
DWIDTH 18 0
BBX 14 24 2 0
BITMAP
1830
3870
3870
1830
0000
0000
0000
0780
1860
3030
7038
7018
E01C
E01C
E01C
E01C
E01C
E01C
E01C
7018
7038
3030
1860
0780
ENDCHAR
STARTCHAR 00F7
ENCODING 247
SWIDTH 944 0
DWIDTH 34 0
BBX 30 23 2 -2
BITMAP
00030000
00078000
00078000
00078000
00030000
00000000
00000000
00000000
00000000
00000000
00000000
FFFFFFFC
00000000
00000000
00000000
00000000
00000000
00000000
00030000
00078000
00078000
00078000
00030000
ENDCHAR
STARTCHAR 00F8
ENCODING 248
SWIDTH 500 0
DWIDTH 18 0
BBX 14 17 2 0
BITMAP
0784
1868
3038
7038
7038
E05C
E09C
E19C
E31C
E21C
E41C
E81C
7818
7038
3030
5860
87C0
ENDCHAR
STARTCHAR 00F9
ENCODING 249
SWIDTH 555 0
DWIDTH 20 0
BBX 17 25 1 1
BITMAP
1C0000
1C0000
0E0000
030000
010000
008000
000000
000000
F83E00
380E00
380E00
380E00
380E00
380E00
380E00
380E00
380E00
380E00
380E00
380E00
381E00
381E00
382E00
1C4E00
0F8F80
ENDCHAR
STARTCHAR 00FA
ENCODING 250
SWIDTH 555 0
DWIDTH 20 0
BBX 17 25 1 1
BITMAP
001C00
003C00
003000
006000
00C000
008000
000000
000000
F83E00
380E00
380E00
380E00
380E00
380E00
380E00
380E00
380E00
380E00
380E00
380E00
381E00
381E00
382E00
1C4E00
0F8F80
ENDCHAR
STARTCHAR 00FB
ENCODING 251
SWIDTH 555 0
DWIDTH 20 0
BBX 17 25 1 0
BITMAP
008000
01C000
01C000
036000
043000
080800
000000
000000
F83E00
380E00
380E00
380E00
380E00
380E00
380E00
380E00
380E00
380E00
380E00
380E00
381E00
381E00
382E00
1C4E00
0F8F80
ENDCHAR
STARTCHAR 00FC
ENCODING 252
SWIDTH 555 0
DWIDTH 20 0
BBX 17 24 1 0
BITMAP
0C3000
1C3800
1C3800
0C3000
000000
000000
000000
F83E00
380E00
380E00
380E00
380E00
380E00
380E00
380E00
380E00
380E00
380E00
380E00
381E00
381E00
382E00
1C4E00
0F8F80
ENDCHAR
STARTCHAR 00FD
ENCODING 253
SWIDTH 527 0
DWIDTH 19 0
BBX 18 33 1 -7
BITMAP
000C00
001C00
001800
003000
006000
004000
000000
000000
FF1FC0
1C0600
1C0400
0C0400
0E0400
0E0400
060800
070800
070800
031000
039000
039000
01E000
01E000
01E000
00C000
00C000
004000
008000
008000
708000
718000
710000
720000
3C0000
ENDCHAR
STARTCHAR 00FE
ENCODING 254
SWIDTH 527 0
DWIDTH 19 0
BBX 16 34 1 -9
BITMAP
0C00
3C00
5C00
1C00
1C00
1C00
1C00
1C00
1C3C
1C7E
1C8F
1D07
1E07
1E07
1E07
1C06
1C0E
1C0E
1C0C
1C18
1C10
1C20
1C40
1D80
1F00
1C00
1C00
1C00
1C00
1C00
1C00
1C00
1C00
E000
ENDCHAR
STARTCHAR 00FF
ENCODING 255
SWIDTH 527 0
DWIDTH 19 0
BBX 17 32 1 -8
BITMAP
060C00
071C00
071C00
060C00
000000
000000
000000
FF1F80
1C0600
1C0400
0E0400
0E0400
0E0800
070800
070800
071000
039000
039000
03A000
01E000
01E000
01E000
00C000
00C000
004000
008000
008000
708000
790000
790000
720000
3C0000
ENDCHAR
STARTCHAR 0100
ENCODING 256
SWIDTH 777 0
DWIDTH 28 0
BBX 25 31 2 0
BITMAP
00FFC000
00000000
00000000
00000000
00000000
00080000
000C0000
001C0000
001C0000
001E0000
003E0000
002E0000
002F0000
00670000
00670000
00478000
00C38000
00C38000
0083C000
0181C000
0181C000
0301E000
03FFE000
0300E000
06007000
06007000
06007000
0C003800
0C003800
1E003800
FFC3FF80
ENDCHAR
STARTCHAR 0101
ENCODING 257
SWIDTH 527 0
DWIDTH 19 0
BBX 16 22 2 0
BITMAP
3FE0
0000
0000
0000
0000
0F80
30E0
6070
6070
7870
7870
0070
01F0
1E70
7070
6070
E070
E071
E0F1
E171
717E
3E3C
ENDCHAR
STARTCHAR 0102
ENCODING 258
SWIDTH 777 0
DWIDTH 28 0
BBX 25 34 2 0
BITMAP
01004000
01004000
0180C000
00C18000
007F0000
003E0000
00000000
00000000
00080000
000C0000
001C0000
001C0000
001E0000
003E0000
002E0000
002F0000
00670000
00470000
00478000
00C38000
00838000
0083C000
0181C000
0101C000
0301E000
03FFE000
0200E000
0600F000
06007000
04007000
0C007800
0C007800
1C007800
FFC3FF80
ENDCHAR
STARTCHAR 0103
ENCODING 259
SWIDTH 527 0
DWIDTH 19 0
BBX 16 25 2 0
BITMAP
2010
2010
2020
1060
0F80
0000
0000
0000
0F80
30E0
6070
6070
7870
7870
0070
01F0
1E70
7070
6070
E070
E071
E0F1
E171
717E
3E3C
ENDCHAR
STARTCHAR 0104
ENCODING 260
SWIDTH 777 0
DWIDTH 28 0
BBX 25 34 2 -8
BITMAP
00080000
000C0000
001C0000
001C0000
001E0000
003E0000
002E0000
002F0000
00670000
00470000
00478000
00C38000
00838000
0081C000
0181C000
0101C000
03FFE000
0200E000
0200E000
0600F000
06007000
04007000
0C007800
0C007800
1E007800
FFC3FF80
00003000
00004000
00008000
00018000
00018000
00018000
0001F800
0000F000
ENDCHAR
STARTCHAR 0105
ENCODING 261
SWIDTH 527 0
DWIDTH 19 0
BBX 16 25 2 -8
BITMAP
0F80
30E0
2070
6070
7870
7870
3070
00F0
0F70
3070
7070
E070
E071
E0F1
E0F1
717A
3E3E
0018
0030
0060
00C0
00C0
00C2
00FC
0078
ENDCHAR
STARTCHAR 0106
ENCODING 262
SWIDTH 666 0
DWIDTH 24 0
BBX 19 34 3 0
BITMAP
000600
000600
000E00
001C00
001000
002000
000000
000000
03FC20
0E0660
1C03E0
1801E0
3800E0
7800E0
700060
700060
F00060
F00020
F00000
F00000
F00000
F00000
F00000
F00000
F00000
700020
700020
780060
380040
380040
1C0080
0C0080
060300
03DE00
ENDCHAR
STARTCHAR 0107
ENCODING 263
SWIDTH 444 0
DWIDTH 16 0
BBX 12 25 2 0
BITMAP
0030
0070
0070
00C0
0180
0100
0000
0000
0F80
1860
3030
7030
6070
E070
E070
E000
E000
E000
E000
E000
6010
7010
3030
1860
0F80
ENDCHAR
STARTCHAR 0108
ENCODING 264
SWIDTH 666 0
DWIDTH 24 0
BBX 19 34 3 0
BITMAP
002000
007000
00F000
00D800
010C00
060300
000000
000000
03FC20
0E0660
1C03E0
1801E0
3800E0
7800E0
700060
700060
F00060
F00020
F00000
F00000
F00000
F00000
F00000
F00000
F00000
700020
700020
780060
380040
380040
1C0080
0C0080
060300
03DE00
ENDCHAR
STARTCHAR 0109
ENCODING 265
SWIDTH 444 0
DWIDTH 16 0
BBX 12 25 2 0
BITMAP
0300
0380
0380
06C0
0C40
1020
0000
0000
0F80
1860
3030
7030
6070
E070
E070
E000
E000
E000
E000
E000
6010
7010
3020
1840
0F80
ENDCHAR
STARTCHAR 010A
ENCODING 266
SWIDTH 666 0
DWIDTH 24 0
BBX 19 33 3 0
BITMAP
006000
007000
007000
006000
000000
000000
000000
03FC20
0E0660
1C03E0
1801E0
3800E0
7800E0
700060
700060
F00060
F00020
F00000
F00000
F00000
F00000
F00000
F00000
F00000
700020
700020
780060
380040
380040
1C0080
0C0080
060300
03DE00
ENDCHAR
STARTCHAR 010B
ENCODING 267
SWIDTH 444 0
DWIDTH 16 0
BBX 12 24 2 0
BITMAP
0300
0380
0380
0300
0000
0000
0000
0F80
1860
3030
7030
6070
E070
E070
E000
E000
E000
E000
E000
6010
7010
3020
1840
0F80
ENDCHAR
STARTCHAR 010C
ENCODING 268
SWIDTH 666 0
DWIDTH 24 0
BBX 19 34 3 0
BITMAP
040100
060200
038C00
01DC00
00F800
007000
000000
000000
03FC20
0E0660
1C03E0
1801E0
3800E0
7800E0
700060
700060
F00060
F00020
F00000
F00000
F00000
F00000
F00000
F00000
F00000
700020
700020
780060
380040
380040
1C0080
0C0080
060300
03DE00
ENDCHAR
STARTCHAR 010D
ENCODING 269
SWIDTH 444 0
DWIDTH 16 0
BBX 12 25 2 0
BITMAP
2010
1820
0C40
06C0
0780
0300
0000
0000
0F80
1860
3030
7030
6070
E070
E070
E000
E000
E000
E000
E000
6010
7010
3020
1840
0F80
ENDCHAR
STARTCHAR 010E
ENCODING 270
SWIDTH 805 0
DWIDTH 29 0
BBX 24 33 3 0
BITMAP
040100
030600
018C00
00F800
007000
002000
000000
FFFF00
1C01C0
1C0070
1C0038
1C0038
1C001C
1C001E
1C001E
1C000E
1C000F
1C000F
1C000F
1C000F
1C000F
1C000F
1C000F
1C000F
1C000E
1C001E
1C001E
1C001C
1C0038
1C0038
1C0070
1C01C0
FFFF00
ENDCHAR
STARTCHAR 010F
ENCODING 271
SWIDTH 611 0
DWIDTH 22 0
BBX 19 26 2 0
BITMAP
01F9C0
0039E0
0039E0
003820
003820
003840
003880
003900
003800
0E3800
39B800
30B800
707800
607800
E03800
E03800
E03800
E03800
E03800
E03800
E03800
603800
707800
307800
30F800
0F3F00
ENDCHAR
STARTCHAR 0110
ENCODING 272
SWIDTH 750 0
DWIDTH 27 0
BBX 24 26 2 0
BITMAP
FFFF00
0E00C0
0E0070
0E0038
0E003C
0E001C
0E001E
0E001E
0E000E
0E000F
0E000F
0E000F
FFE00F
0E000F
0E000F
0E000F
0E000F
0E000E
0E001E
0E001E
0E001C
0E0038
0E0038
0E0070
0E00C0
FFFF00
ENDCHAR
STARTCHAR 0111
ENCODING 273
SWIDTH 527 0
DWIDTH 19 0
BBX 16 26 2 0
BITMAP
01F8
0038
0038
0038
0FFF
0038
0038
0038
0038
0E38
39B8
30B8
7078
6078
E038
E038
E038
E038
E038
E038
E038
6038
7078
3078
30F8
0F3F
ENDCHAR
STARTCHAR 0112
ENCODING 274
SWIDTH 694 0
DWIDTH 25 0
BBX 21 31 2 0
BITMAP
03FF00
000000
000000
000000
000000
FFFFF8
0E0078
0E0038
0E0018
0E0018
0E0008
0E0008
0E0408
0E0400
0E0400
0E0C00
0E0C00
0FFC00
0E0C00
0E0400
0E0400
0E0408
0E0408
0E0008
0E0008
0E0018
0E0018
0E0038
0E0038
0E00F8
FFFFF8
ENDCHAR
STARTCHAR 0113
ENCODING 275
SWIDTH 472 0
DWIDTH 17 0
BBX 13 22 2 0
BITMAP
3FE0
0000
0000
0000
0000
0F80
18E0
3060
7070
6070
E078
E038
FFF8
E000
E000
E000
E010
7010
7010
3020
1860
0F80
ENDCHAR
STARTCHAR 0114
ENCODING 276
SWIDTH 694 0
DWIDTH 25 0
BBX 21 34 2 0
BITMAP
020080
020180
030180
018300
00FE00
007C00
000000
000000
FFFFF8
0E0078
0E0038
0E0018
0E0018
0E0008
0E0008
0E0408
0E0400
0E0400
0E0C00
0E0C00
0FFC00
0E0C00
0E0400
0E0400
0E0408
0E0408
0E0008
0E0008
0E0018
0E0018
0E0038
0E0038
0E00F8
FFFFF8
ENDCHAR
STARTCHAR 0115
ENCODING 277
SWIDTH 472 0
DWIDTH 17 0
BBX 13 25 2 0
BITMAP
2010
2010
1020
1860
0780
0000
0000
0000
0F80
18E0
3060
7030
6030
E038
E038
FFF8
E000
E000
E000
E008
7010
7010
3010
1820
07C0
ENDCHAR
STARTCHAR 0116
ENCODING 278
SWIDTH 694 0
DWIDTH 25 0
BBX 21 33 2 0
BITMAP
003000
003800
003800
003000
000000
000000
000000
FFFFF8
0E0078
0E0038
0E0018
0E0018
0E0008
0E0008
0E0408
0E0400
0E0400
0E0C00
0E0C00
0FFC00
0E0C00
0E0400
0E0400
0E0408
0E0408
0E0008
0E0008
0E0018
0E0018
0E0038
0E0038
0E00F8
FFFFF8
ENDCHAR
STARTCHAR 0117
ENCODING 279
SWIDTH 472 0
DWIDTH 17 0
BBX 13 24 2 0
BITMAP
0300
0700
0700
0300
0000
0000
0000
0F80
18E0
3060
7070
6030
E038
E038
FFF8
E000
E000
E000
E008
7010
7010
3020
1860
0780
ENDCHAR
STARTCHAR 0118
ENCODING 280
SWIDTH 694 0
DWIDTH 25 0
BBX 21 34 2 -8
BITMAP
FFFFF8
0E0078
0E0038
0E0018
0E0018
0E0008
0E0008
0E0408
0E0400
0E0400
0E0C00
0E0C00
0FFC00
0E0C00
0E0400
0E0400
0E0408
0E0408
0E0008
0E0008
0E0018
0E0018
0E0018
0E0038
0E0078
FFFFF8
000100
000600
000400
000C00
000C00
000C00
000FC0
000780
ENDCHAR
STARTCHAR 0119
ENCODING 281
SWIDTH 472 0
DWIDTH 17 0
BBX 13 25 2 -8
BITMAP
0F80
18C0
3060
7070
7030
E038
E038
E038
FFF8
E000
E000
E008
6010
7010
3010
1860
07C0
0180
0100
0200
0600
0600
0620
07C0
0380
ENDCHAR
STARTCHAR 011A
ENCODING 282
SWIDTH 694 0
DWIDTH 25 0
BBX 21 33 2 0
BITMAP
020080
018300
00CE00
007C00
003800
003000
000000
FFFFF8
0E0078
0E0038
0E0018
0E0018
0E0008
0E0008
0E0408
0E0400
0E0400
0E0C00
0E0C00
0FFC00
0E0C00
0E0400
0E0400
0E0408
0E0408
0E0008
0E0008
0E0018
0E0018
0E0038
0E0038
0E00F8
FFFFF8
ENDCHAR
STARTCHAR 011B
ENCODING 283
SWIDTH 472 0
DWIDTH 17 0
BBX 13 25 2 0
BITMAP
2010
1060
0CC0
0F80
0780
0300
0000
0000
0F80
18E0
3060
7070
6030
E038
E038
FFF8
E000
E000
E000
E008
7010
7010
3020
1860
0780
ENDCHAR
STARTCHAR 011C
ENCODING 284
SWIDTH 722 0
DWIDTH 26 0
BBX 22 34 3 0
BITMAP
002000
007000
007800
00D800
010600
060300
000000
002000
03DC20
060720
0C03E0
1801E0
3800E0
380060
700060
700060
700020
F00020
F00000
F00000
F00000
F00FFC
F000E0
F000E0
F000E0
F000E0
7000E0
7000E0
3800E0
3801E0
180120
0C0320
060620
03FC20
ENDCHAR
STARTCHAR 011D
ENCODING 285
SWIDTH 555 0
DWIDTH 20 0
BBX 17 33 2 -8
BITMAP
018000
018000
03C000
024000
042000
081000
000000
000000
07C700
1C7580
383B80
701F80
701C00
701C00
701C00
701C00
383800
1C7000
07C000
380000
400000
400000
400000
7FE000
3FF800
0E1C00
700200
C00200
C00200
C00200
E00400
700800
0FF000
ENDCHAR
STARTCHAR 011E
ENCODING 286
SWIDTH 722 0
DWIDTH 26 0
BBX 22 34 3 0
BITMAP
040100
040100
060300
030600
01FC00
00F800
000000
002000
03DC20
060720
0C03E0
1801E0
3800E0
380060
700060
700060
700020
F00020
F00000
F00000
F00000
F00FFC
F001E0
F000E0
F000E0
F000E0
7000E0
7000E0
3801E0
3801E0
180120
0C0320
060620
03FC20
ENDCHAR
STARTCHAR 011F
ENCODING 287
SWIDTH 555 0
DWIDTH 20 0
BBX 17 33 2 -8
BITMAP
100800
100800
081000
042000
03C000
000000
000000
000000
07C700
1C7D80
383B80
701F80
701C00
701C00
701C00
701C00
383800
1C7000
07C000
380000
400000
400000
400000
7FF000
3FFC00
1E1C00
600200
C00200
C00200
C00200
E00400
700800
0FF000
ENDCHAR
STARTCHAR 0120
ENCODING 288
SWIDTH 722 0
DWIDTH 26 0
BBX 22 33 3 0
BITMAP
006000
007000
007000
006000
000000
000000
002000
03DC20
060720
0C03E0
1801E0
3800E0
380060
700060
700060
700020
F00020
F00000
F00000
F00000
F00FFC
F001E0
F000E0
F000E0
F000E0
7000E0
7000E0
3801E0
3801E0
180120
0C0320
060620
03FC20
ENDCHAR
STARTCHAR 0121
ENCODING 289
SWIDTH 555 0
DWIDTH 20 0
BBX 17 32 2 -8
BITMAP
018000
038000
038000
018000
000000
000000
000000
07C700
1C7580
383B80
701F80
701C00
701C00
701C00
701C00
383800
1C7000
07C000
380000
400000
400000
400000
7FE000
3FF800
0E1C00
700200
C00200
C00200
C00200
E00400
700800
0FF000
ENDCHAR
STARTCHAR 0122
ENCODING 290
SWIDTH 722 0
DWIDTH 26 0
BBX 22 35 3 -8
BITMAP
002000
03DC20
060720
0C03E0
1801E0
3800E0
380060
700060
700060
700020
F00020
F00000
F00000
F00000
F00FFC
F001E0
F000E0
F000E0
F000E0
7000E0
7000E0
3801E0
3801E0
180120
0C0320
060620
039C20
006000
006000
007000
007000
001000
001000
002000
004000
ENDCHAR
STARTCHAR 0123
ENCODING 291
SWIDTH 555 0
DWIDTH 20 0
BBX 17 35 2 -8
BITMAP
008000
010000
020000
040000
060000
078000
078000
078000
030000
000000
07C700
1C7580
383B80
701F80
701C00
701C00
701C00
701C00
383800
1C7000
07C000
380000
400000
400000
400000
7FE000
3FF800
0E1C00
700200
C00200
C00200
C00200
E00400
700800
0FF000
ENDCHAR
STARTCHAR 0124
ENCODING 292
SWIDTH 777 0
DWIDTH 28 0
BBX 24 34 2 0
BITMAP
001800
001800
003C00
006600
00C300
0100C0
000000
000000
FFC3FF
0E0038
0E0038
0E0038
0E0038
0E0038
0E0038
0E0038
0E0038
0E0038
0E0038
0E0038
0FFFF8
0E0038
0E0038
0E0038
0E0038
0E0038
0E0038
0E0038
0E0038
0E0038
0E0038
0E0038
0E0038
FFC3FF
ENDCHAR
STARTCHAR 0125
ENCODING 293
SWIDTH 583 0
DWIDTH 21 0
BBX 18 34 1 0
BITMAP
00C000
00C000
01E000
01A000
021000
040800
000000
000000
FC0000
1C0000
1C0000
1C0000
1C0000
1C0000
1C0000
1C0000
1C0000
1C7C00
1C8E00
1D0700
1E0700
1E0700
1C0700
1C0700
1C0700
1C0700
1C0700
1C0700
1C0700
1C0700
1C0700
1C0700
1C0700
FF1FC0
ENDCHAR
STARTCHAR 0126
ENCODING 294
SWIDTH 805 0
DWIDTH 29 0
BBX 26 26 2 0
BITMAP
7FE1FF80
0E003800
0E003800
0E003800
0E003800
0E003800
FFFFFFC0
0E003800
0E003800
0E003800
0E003800
0E003800
0FFFF800
0E003800
0E003800
0E003800
0E003800
0E003800
0E003800
0E003800
0E003800
0E003800
0E003800
0E003800
0E003800
7FE1FF80
ENDCHAR
STARTCHAR 0127
ENCODING 295
SWIDTH 555 0
DWIDTH 20 0
BBX 17 26 1 0
BITMAP
F80000
380000
380000
380000
380000
FFF000
380000
380000
380000
38F800
391C00
3A0E00
3C0E00
3C0E00
380E00
380E00
380E00
380E00
380E00
380E00
380E00
380E00
380E00
380E00
380E00
FE3F80
ENDCHAR
STARTCHAR 0128
ENCODING 296
SWIDTH 388 0
DWIDTH 14 0
BBX 11 33 2 0
BITMAP
7820
7E60
8FC0
83C0
0000
0000
0000
FFC0
0E00
0E00
0E00
0E00
0E00
0E00
0E00
0E00
0E00
0E00
0E00
0E00
0E00
0E00
0E00
0E00
0E00
0E00
0E00
0E00
0E00
0E00
0E00
0E00
FFC0
ENDCHAR
STARTCHAR 0129
ENCODING 297
SWIDTH 277 0
DWIDTH 10 0
BBX 10 24 0 0
BITMAP
7840
7C40
8F80
8780
0000
0000
0000
3E00
0E00
0E00
0E00
0E00
0E00
0E00
0E00
0E00
0E00
0E00
0E00
0E00
0E00
0E00
0E00
3F80
ENDCHAR
STARTCHAR 012A
ENCODING 298
SWIDTH 388 0
DWIDTH 14 0
BBX 10 31 2 0
BITMAP
FFC0
0000
0000
0000
0000
FFC0
0E00
0E00
0E00
0E00
0E00
0E00
0E00
0E00
0E00
0E00
0E00
0E00
0E00
0E00
0E00
0E00
0E00
0E00
0E00
0E00
0E00
0E00
0E00
0E00
FFC0
ENDCHAR
STARTCHAR 012B
ENCODING 299
SWIDTH 305 0
DWIDTH 11 0
BBX 9 22 1 0
BITMAP
FF80
0000
0000
0000
0000
7C00
1C00
1C00
1C00
1C00
1C00
1C00
1C00
1C00
1C00
1C00
1C00
1C00
1C00
1C00
1C00
7F00
ENDCHAR
STARTCHAR 012C
ENCODING 300
SWIDTH 388 0
DWIDTH 14 0
BBX 11 34 2 0
BITMAP
8020
8020
C060
60C0
3F80
1F00
0000
0000
FFE0
0E00
0E00
0E00
0E00
0E00
0E00
0E00
0E00
0E00
0E00
0E00
0E00
0E00
0E00
0E00
0E00
0E00
0E00
0E00
0E00
0E00
0E00
0E00
0E00
FFE0
ENDCHAR
STARTCHAR 012D
ENCODING 301
SWIDTH 277 0
DWIDTH 10 0
BBX 10 24 0 0
BITMAP
8040
8040
4080
2100
1E00
0000
0000
3E00
0E00
0E00
0E00
0E00
0E00
0E00
0E00
0E00
0E00
0E00
0E00
0E00
0E00
0E00
0E00
3F80
ENDCHAR
STARTCHAR 012E
ENCODING 302
SWIDTH 388 0
DWIDTH 14 0
BBX 10 34 2 -8
BITMAP
FFC0
0E00
0E00
0E00
0E00
0E00
0E00
0E00
0E00
0E00
0E00
0E00
0E00
0E00
0E00
0E00
0E00
0E00
0E00
0E00
0E00
0E00
0E00
0E00
0E00
FFC0
0180
0200
0600
0C00
0C00
0E00
0FC0
0780
ENDCHAR
STARTCHAR 012F
ENCODING 303
SWIDTH 250 0
DWIDTH 9 0
BBX 7 33 1 -8
BITMAP
30
38
38
30
00
00
00
00
F8
38
38
38
38
38
38
38
38
38
38
38
38
38
38
38
FE
08
10
30
60
60
62
7C
38
ENDCHAR
STARTCHAR 0130
ENCODING 304
SWIDTH 388 0
DWIDTH 14 0
BBX 10 33 2 0
BITMAP
0C00
0E00
0E00
0C00
0000
0000
0000
FFC0
0E00
0E00
0E00
0E00
0E00
0E00
0E00
0E00
0E00
0E00
0E00
0E00
0E00
0E00
0E00
0E00
0E00
0E00
0E00
0E00
0E00
0E00
0E00
0E00
FFC0
ENDCHAR
STARTCHAR 0131
ENCODING 305
SWIDTH 305 0
DWIDTH 11 0
BBX 7 17 2 0
BITMAP
F8
38
38
38
38
38
38
38
38
38
38
38
38
38
38
38
FE
ENDCHAR
STARTCHAR 0132
ENCODING 306
SWIDTH 861 0
DWIDTH 31 0
BBX 28 26 2 0
BITMAP
FFC03FF0
0E000380
0E000380
0E000380
0E000380
0E000380
0E000380
0E000380
0E000380
0E000380
0E000380
0E000380
0E000380
0E000380
0E000380
0E000380
0E000380
0E000380
0E070380
0E0F8380
0E0F8380
0E0F0380
0E0C0300
0E0C0700
0E060600
FFC3FC00
ENDCHAR
STARTCHAR 0133
ENCODING 307
SWIDTH 527 0
DWIDTH 19 0
BBX 14 34 2 -8
BITMAP
3018
781C
781C
3018
0000
0000
0000
0000
0000
F8FC
381C
381C
381C
381C
381C
381C
381C
381C
381C
381C
381C
381C
381C
381C
381C
FE1C
001C
001C
001C
071C
0718
0638
0230
01E0
ENDCHAR
STARTCHAR 0134
ENCODING 308
SWIDTH 527 0
DWIDTH 19 0
BBX 16 34 2 0
BITMAP
0010
0038
0078
00CC
0186
0201
0000
0000
03FF
0038
0038
0038
0038
0038
0038
0038
0038
0038
0038
0038
0038
0038
0038
0038
0038
0038
7038
F838
F838
F038
C030
C070
6060
3FC0
ENDCHAR
STARTCHAR 0135
ENCODING 309
SWIDTH 333 0
DWIDTH 12 0
BBX 12 33 -1 -8
BITMAP
0300
0380
0780
04C0
0860
1010
0000
0000
1F80
0380
0380
0380
0380
0380
0380
0380
0380
0380
0380
0380
0380
0380
0380
0380
0380
0380
0380
4380
E380
E300
C700
4600
3C00
ENDCHAR
STARTCHAR 0136
ENCODING 310
SWIDTH 777 0
DWIDTH 28 0
BBX 24 35 2 -9
BITMAP
FFC7FE
0E01F0
0E00E0
0E00C0
0E0180
0E0300
0E0600
0E0C00
0E0800
0E1800
0E3800
0E7C00
0EBC00
0F9E00
0F1E00
0E0F00
0E0F00
0E0780
0E0780
0E03C0
0E03C0
0E01E0
0E01F0
0E00F0
0E00F8
FFC7FF
000000
000000
003800
003800
003800
000800
000800
001000
002000
ENDCHAR
STARTCHAR 0137
ENCODING 311
SWIDTH 527 0
DWIDTH 19 0
BBX 17 35 1 -9
BITMAP
FC0000
1C0000
1C0000
1C0000
1C0000
1C0000
1C0000
1C0000
1C0000
1C7F00
1C1800
1C1000
1C2000
1C4000
1C4000
1C8000
1D8000
1DC000
1EE000
1CE000
1C7000
1C3800
1C3800
1C1C00
1C1E00
FF7F80
000000
000000
01C000
01C000
01C000
004000
004000
008000
010000
ENDCHAR
STARTCHAR 0138
ENCODING 312
SWIDTH 527 0
DWIDTH 19 0
BBX 16 17 2 0
BITMAP
F8FE
3830
3820
3860
3840
3880
3900
3B80
3B80
3DC0
38E0
38E0
3870
3878
3838
383C
FEFF
ENDCHAR
STARTCHAR 0139
ENCODING 313
SWIDTH 666 0
DWIDTH 24 0
BBX 20 34 2 0
BITMAP
006000
00E000
01C000
018000
030000
040000
000000
000000
FFE000
0E0000
0E0000
0E0000
0E0000
0E0000
0E0000
0E0000
0E0000
0E0000
0E0000
0E0000
0E0000
0E0000
0E0000
0E0000
0E0010
0E0010
0E0020
0E0030
0E0030
0E0030
0E0070
0E00F0
0E03F0
FFFFF0
ENDCHAR
STARTCHAR 013A
ENCODING 314
SWIDTH 277 0
DWIDTH 10 0
BBX 9 34 1 0
BITMAP
0180
0380
0380
0600
0C00
1800
0000
0000
FC00
1C00
1C00
1C00
1C00
1C00
1C00
1C00
1C00
1C00
1C00
1C00
1C00
1C00
1C00
1C00
1C00
1C00
1C00
1C00
1C00
1C00
1C00
1C00
1C00
FF80
ENDCHAR
STARTCHAR 013B
ENCODING 315
SWIDTH 666 0
DWIDTH 24 0
BBX 20 35 2 -9
BITMAP
FFE000
0E0000
0E0000
0E0000
0E0000
0E0000
0E0000
0E0000
0E0000
0E0000
0E0000
0E0000
0E0000
0E0000
0E0000
0E0000
0E0010
0E0010
0E0020
0E0030
0E0030
0E0030
0E0070
0E00F0
0E03F0
FFFFF0
000000
000000
006000
007000
007000
001000
001000
002000
004000
ENDCHAR
STARTCHAR 013C
ENCODING 316
SWIDTH 277 0
DWIDTH 10 0
BBX 8 35 1 -9
BITMAP
FC
1C
1C
1C
1C
1C
1C
1C
1C
1C
1C
1C
1C
1C
1C
1C
1C
1C
1C
1C
1C
1C
1C
1C
1C
FF
00
00
38
3C
3C
04
04
08
30
ENDCHAR
STARTCHAR 013D
ENCODING 317
SWIDTH 694 0
DWIDTH 25 0
BBX 22 26 2 0
BITMAP
FFE018
0E003C
0E003C
0E003C
0E000C
0E0008
0E0008
0E0010
0E0020
0E0000
0E0000
0E0000
0E0000
0E0000
0E0000
0E0000
0E0010
0E0010
0E0010
0E0010
0E0010
0E0030
0E0030
0E0070
0E01F0
FFFFF0
ENDCHAR
STARTCHAR 013E
ENCODING 318
SWIDTH 361 0
DWIDTH 13 0
BBX 11 26 1 0
BITMAP
FCC0
1CE0
1CE0
1C20
1C20
1C40
1C40
1C80
1C00
1C00
1C00
1C00
1C00
1C00
1C00
1C00
1C00
1C00
1C00
1C00
1C00
1C00
1C00
1C00
1C00
FF80
ENDCHAR
STARTCHAR 013F
ENCODING 319
SWIDTH 666 0
DWIDTH 24 0
BBX 20 26 2 0
BITMAP
FFE000
0E0000
0E0000
0E0000
0E0000
0E0000
0E0000
0E0000
0E0000
0E00C0
0E01C0
0E01C0
0E00C0
0E0000
0E0000
0E0000
0E0030
0E0030
0E0030
0E0030
0E0070
0E0070
0E0070
0E00F0
0E03F0
FFFFF0
ENDCHAR
STARTCHAR 0140
ENCODING 320
SWIDTH 361 0
DWIDTH 13 0
BBX 12 26 1 0
BITMAP
FC00
1C00
1C00
1C00
1C00
1C00
1C00
1C00
1C00
1C00
1C30
1C70
1C70
1C30
1C00
1C00
1C00
1C00
1C00
1C00
1C00
1C00
1C00
1C00
1C00
FF00
ENDCHAR
STARTCHAR 0141
ENCODING 321
SWIDTH 694 0
DWIDTH 25 0
BBX 20 26 2 0
BITMAP
FFE000
0E0000
0E0000
0E0000
0E0000
0E0000
0E0000
0E0000
0E1000
0E7000
0EC000
0F8000
0E0000
1E0000
7E0000
4E0000
0E0010
0E0010
0E0020
0E0030
0E0030
0E0030
0E0070
0E00F0
0E03F0
FFFFF0
ENDCHAR
STARTCHAR 0142
ENCODING 322
SWIDTH 305 0
DWIDTH 11 0
BBX 9 25 1 0
BITMAP
FC00
1C00
1C00
1C00
1C00
1C00
1C00
1C00
1C00
1C80
1F00
1C00
3C00
DC00
1C00
1C00
1C00
1C00
1C00
1C00
1C00
1C00
1C00
1C00
FF80
ENDCHAR
STARTCHAR 0143
ENCODING 323
SWIDTH 777 0
DWIDTH 28 0
BBX 25 34 2 0
BITMAP
0000C000
0001C000
0001C000
00030000
00060000
000C0000
00000000
00000000
FE00FF80
0F001C00
0F800800
0F800800
0BC00800
0BC00800
09E00800
08F00800
08F00800
08780800
083C0800
083C0800
081E0800
081E0800
080F0800
08078800
08078800
0803C800
0801E800
0801E800
0800F800
08007800
08007800
08003800
1C001800
FF801800
ENDCHAR
STARTCHAR 0144
ENCODING 324
SWIDTH 583 0
DWIDTH 21 0
BBX 17 25 2 0
BITMAP
000C00
001C00
003800
003000
006000
00C000
000000
000000
F8F800
391C00
3A0E00
3C0E00
3C0E00
380E00
380E00
380E00
380E00
380E00
380E00
380E00
380E00
380E00
380E00
380E00
FE3F80
ENDCHAR
STARTCHAR 0145
ENCODING 325
SWIDTH 777 0
DWIDTH 28 0
BBX 25 35 2 -9
BITMAP
FE00FF80
0F001C00
0F800800
0F800800
0BC00800
0BC00800
09E00800
08F00800
08F00800
08780800
087C0800
083C0800
081E0800
081E0800
080F0800
08078800
08078800
0803C800
0801E800
0801E800
0800F800
0800F800
08007800
08003800
1C003800
FF801800
00000800
00000000
001C0000
001C0000
001C0000
00040000
00040000
00080000
00100000
ENDCHAR
STARTCHAR 0146
ENCODING 326
SWIDTH 583 0
DWIDTH 21 0
BBX 17 26 2 -9
BITMAP
F8F800
391C00
3A0E00
3C0E00
3C0E00
380E00
380E00
380E00
380E00
380E00
380E00
380E00
380E00
380E00
380E00
380E00
FE7F80
000000
000000
018000
01C000
01C000
004000
004000
008000
010000
ENDCHAR
STARTCHAR 0147
ENCODING 327
SWIDTH 777 0
DWIDTH 28 0
BBX 25 33 2 0
BITMAP
01806000
00C0C000
00738000
003F0000
001E0000
000C0000
00000000
FE00FF80
0F001C00
0F800800
0F800800
0BC00800
0BC00800
09E00800
08F00800
08F00800
08780800
083C0800
083C0800
081E0800
081E0800
080F0800
08078800
08078800
0803C800
0801E800
0801E800
0800F800
08007800
08007800
08003800
1C001800
FF801800
ENDCHAR
STARTCHAR 0148
ENCODING 328
SWIDTH 583 0
DWIDTH 21 0
BBX 17 24 2 0
BITMAP
0C0800
061000
037000
01E000
01C000
008000
000000
F8F800
391C00
3A0E00
3C0E00
3C0E00
380E00
380E00
380E00
380E00
380E00
380E00
380E00
380E00
380E00
380E00
380E00
FE3F80
ENDCHAR
STARTCHAR 0149
ENCODING 329
SWIDTH 666 0
DWIDTH 24 0
BBX 22 26 1 0
BITMAP
600000
F00000
F00000
F00000
300000
200000
200000
400000
000000
07C7C0
01C8E0
01D060
01E070
01E070
01C070
01C070
01C070
01C070
01C070
01C070
01C070
01C070
01C070
01C070
01C070
07F1FC
ENDCHAR
STARTCHAR 014A
ENCODING 330
SWIDTH 777 0
DWIDTH 28 0
BBX 25 34 2 -8
BITMAP
FE00FF80
0F001C00
0F800800
0F800800
0BC00800
0BC00800
09E00800
08F00800
08F00800
08780800
087C0800
083C0800
081E0800
081E0800
080F0800
08078800
08078800
0803C800
0801E800
0801E800
0800F800
08007800
08007800
08003800
1C003800
FF801800
00000800
00000800
00000800
00000800
000E0800
000E1000
000F3000
0003C000
ENDCHAR
STARTCHAR 014B
ENCODING 331
SWIDTH 555 0
DWIDTH 20 0
BBX 15 25 2 -8
BITMAP
F8F8
391C
3A0E
3C0E
3C0E
380E
380E
380E
380E
380E
380E
380E
380E
380E
380E
380E
FE0E
000E
000E
000E
000E
0E0C
0E1C
0718
03E0
ENDCHAR
STARTCHAR 014C
ENCODING 332
SWIDTH 722 0
DWIDTH 26 0
BBX 21 31 3 0
BITMAP
07FE00
000000
000000
000000
002000
03DC00
060300
0C0180
1C01C0
3800E0
3800E0
7800F0
700070
700070
F00078
F00078
F00078
F00078
F00078
F00078
F00078
F00078
700070
700070
7800F0
3800E0
3800E0
1C01C0
0C0180
060300
03FE00
ENDCHAR
STARTCHAR 014D
ENCODING 333
SWIDTH 500 0
DWIDTH 18 0
BBX 14 22 2 0
BITMAP
1FF0
0000
0000
0000
0000
0780
1860
3030
7038
7018
E01C
E01C
E01C
E01C
E01C
E01C
E01C
7018
7038
3030
1860
0780
ENDCHAR
STARTCHAR 014E
ENCODING 334
SWIDTH 722 0
DWIDTH 26 0
BBX 21 34 3 0
BITMAP
040100
040100
060300
030600
01FC00
00F800
000000
002000
03DC00
060300
0C0180
1C01C0
3800E0
3800E0
7800F0
700070
700070
F00078
F00078
F00078
F00078
F00078
F00078
F00078
F00078
700070
700070
7800F0
3800E0
3800E0
1C01C0
0C0180
060300
03FE00
ENDCHAR
STARTCHAR 014F
ENCODING 335
SWIDTH 500 0
DWIDTH 18 0
BBX 14 25 2 0
BITMAP
2010
2010
1020
1860
0780
0000
0000
0000
0780
1860
3030
7038
7018
E01C
E01C
E01C
E01C
E01C
E01C
E01C
7018
7038
3030
1860
0780
ENDCHAR
STARTCHAR 0150
ENCODING 336
SWIDTH 722 0
DWIDTH 26 0
BBX 21 34 3 0
BITMAP
0018C0
0039C0
003380
006300
00C600
008C00
000000
002000
03DC00
060300
0C0180
1C01C0
3800E0
3800E0
7800F0
700070
700070
F00078
F00078
F00078
F00078
F00078
F00078
F00078
F00078
700070
700070
7800F0
3800E0
3800E0
1C01C0
0C0180
060300
03FE00
ENDCHAR
STARTCHAR 0151
ENCODING 337
SWIDTH 500 0
DWIDTH 18 0
BBX 15 25 2 1
BITMAP
01CE
01CE
039C
0738
0420
0840
0000
0000
0780
1860
3030
7038
7018
E01C
E01C
E01C
E01C
E01C
E01C
E01C
7018
7038
3030
1860
0780
ENDCHAR
STARTCHAR 0152
ENCODING 338
SWIDTH 1055 0
DWIDTH 38 0
BBX 33 26 3 1
BITMAP
03FFFFFF80
0603E00780
0C01E00380
1C01E00180
3800E00180
3800E00080
7800E00080
7000E02080
7000E02000
F000E02000
F000E06000
F000E06000
F000FFE000
F000E06000
F000E06000
F000E02000
F000E02080
7000E02080
7000E00080
7800E00080
3800E00180
3800E00180
1C01E00380
0C01E00380
0603E00F80
03DFFFFF80
ENDCHAR
STARTCHAR 0153
ENCODING 339
SWIDTH 777 0
DWIDTH 28 0
BBX 24 17 2 0
BITMAP
0781F0
18631C
30360C
703E0E
703C06
E01C07
E01C07
E01FFF
E01C00
E01C00
E01C00
E01C01
703C02
703E02
303604
18630C
0781F0
ENDCHAR
STARTCHAR 0154
ENCODING 340
SWIDTH 694 0
DWIDTH 25 0
BBX 22 34 2 1
BITMAP
000E00
000E00
001C00
003000
002000
004000
000000
000000
FFFF00
0E03C0
0E01E0
0E00F0
0E00F0
0E00F0
0E00F0
0E00F0
0E01E0
0E01C0
0E0780
0FFC00
0E0600
0E0700
0E0380
0E0380
0E0380
0E03C0
0E03C0
0E03C0
0E03C4
0E01C4
0E01C4
0E01EC
0E01F8
FFE0F0
ENDCHAR
STARTCHAR 0155
ENCODING 341
SWIDTH 416 0
DWIDTH 15 0
BBX 12 25 2 0
BITMAP
0030
0070
0060
00C0
0180
0100
0000
0000
F8E0
3910
3A30
3A70
3C70
3C00
3C00
3800
3800
3800
3800
3800
3800
3800
3800
3800
FE00
ENDCHAR
STARTCHAR 0156
ENCODING 342
SWIDTH 694 0
DWIDTH 25 0
BBX 22 34 2 -8
BITMAP
FFFF00
0E03C0
0E01E0
0E00F0
0E00F0
0E00F0
0E00F0
0E00F0
0E01E0
0E01C0
0E0780
0FFC00
0E0E00
0E0700
0E0380
0E0380
0E0380
0E0380
0E03C0
0E03C0
0E03C4
0E03C4
0E01C4
0E01E8
0E01F8
FFE0F0
000000
003800
003800
003800
000800
000800
001000
002000
ENDCHAR
STARTCHAR 0157
ENCODING 343
SWIDTH 416 0
DWIDTH 15 0
BBX 12 26 2 -9
BITMAP
F8E0
3910
3A30
3A70
3C60
3C00
3C00
3800
3800
3800
3800
3800
3800
3800
3800
3800
FE00
0000
0000
7000
7800
7800
0800
0800
1000
6000
ENDCHAR
STARTCHAR 0158
ENCODING 344
SWIDTH 694 0
DWIDTH 25 0
BBX 22 34 2 0
BITMAP
080000
040600
030C00
01B800
00F000
006000
000000
000000
FFFF00
0E03C0
0E01E0
0E00F0
0E00F0
0E00F0
0E00F0
0E00F0
0E01E0
0E01C0
0E0780
0FFC00
0E0600
0E0700
0E0380
0E0380
0E0380
0E03C0
0E03C0
0E03C0
0E03C4
0E01C4
0E01C4
0E01EC
0E01F8
FFE0F0
ENDCHAR
STARTCHAR 0159
ENCODING 345
SWIDTH 416 0
DWIDTH 15 0
BBX 12 24 2 0
BITMAP
1020
1840
0CC0
0780
0380
0100
0000
F8E0
3910
3A30
3A70
3C70
3C00
3C00
3800
3800
3800
3800
3800
3800
3800
3800
3800
FE00
ENDCHAR
STARTCHAR 015A
ENCODING 346
SWIDTH 611 0
DWIDTH 22 0
BBX 17 34 3 0
BITMAP
003000
007000
007000
00C000
018000
010000
000000
000000
1FE300
303300
601F00
C00F00
C00700
C00300
C00300
E00300
F00100
780000
7F0000
3FC000
1FF800
07FC00
00FE00
803F00
800F80
800380
C00180
C00180
E00180
E00180
F00100
D80300
8C0600
83FC00
ENDCHAR
STARTCHAR 015B
ENCODING 347
SWIDTH 444 0
DWIDTH 16 0
BBX 12 25 2 1
BITMAP
00C0
01C0
0180
0300
0600
0400
0000
0000
3E40
6140
C0C0
C040
C040
E040
7800
7F00
1FC0
07E0
80F0
C070
C030
E030
E030
9860
87C0
ENDCHAR
STARTCHAR 015C
ENCODING 348
SWIDTH 611 0
DWIDTH 22 0
BBX 17 34 3 0
BITMAP
010000
038000
078000
0CC000
186000
301800
000000
000000
1FE300
303300
601F00
C00F00
C00700
C00300
C00300
E00300
F00100
780000
7F0000
3FC000
1FF800
07FC00
01FE00
803F00
800F80
800380
C00380
C00180
C00180
E00180
F00100
F80300
8C0600
87FC00
ENDCHAR
STARTCHAR 015D
ENCODING 349
SWIDTH 444 0
DWIDTH 16 0
BBX 12 25 2 0
BITMAP
0400
0E00
0E00
1B00
3100
6080
0000
0000
3E40
6140
C0C0
C040
C040
E040
7800
7F00
1FC0
07E0
80F0
C070
C030
E030
E030
9860
87C0
ENDCHAR
STARTCHAR 015E
ENCODING 350
SWIDTH 611 0
DWIDTH 22 0
BBX 17 34 3 -7
BITMAP
1FE300
303300
601F00
C00F00
C00700
C00300
C00300
E00300
F00100
780000
7F0000
3FC000
1FF800
07FC00
01FE00
803F00
800F80
800380
C00380
C00180
C00180
E00180
F00100
F80300
8C0600
873C00
00C000
018000
01E000
003800
003800
003800
047800
03E000
ENDCHAR
STARTCHAR 015F
ENCODING 351
SWIDTH 444 0
DWIDTH 16 0
BBX 12 24 2 -7
BITMAP
3E00
61C0
C0C0
C040
C040
E040
7800
7F00
1FC0
07E0
80F0
C070
C030
E030
E030
D860
87C0
0400
0400
0380
00C0
00C0
11C0
0F00
ENDCHAR
STARTCHAR 0160
ENCODING 352
SWIDTH 611 0
DWIDTH 22 0
BBX 17 34 3 0
BITMAP
000800
301000
186000
0EC000
078000
030000
000000
000000
1FE300
303300
601F00
C00F00
C00700
C00300
C00300
E00300
F00100
780000
7F0000
3FC000
1FF800
07FC00
01FE00
803F00
800F80
800380
C00380
C00180
C00180
E00180
F00100
F80300
8C0600
87FC00
ENDCHAR
STARTCHAR 0161
ENCODING 353
SWIDTH 444 0
DWIDTH 16 0
BBX 12 25 2 0
BITMAP
4040
2080
3100
1B00
0E00
0C00
0000
0000
3E40
6140
C0C0
C040
C040
E040
7800
7F00
1FC0
07E0
80F0
C070
C030
E030
E030
9860
87C0
ENDCHAR
STARTCHAR 0162
ENCODING 354
SWIDTH 722 0
DWIDTH 26 0
BBX 21 34 3 -8
BITMAP
FFFFF8
F07078
E07038
C07018
C07018
C07018
807008
807008
807008
807008
007000
007000
007000
007000
007000
007000
007000
007000
007000
007000
007000
007000
007000
007000
007000
07FF80
002000
002000
007800
001C00
000E00
000E00
011E00
00F800
ENDCHAR
STARTCHAR 0163
ENCODING 355
SWIDTH 361 0
DWIDTH 13 0
BBX 11 31 1 -7
BITMAP
0800
0800
0800
0800
1800
1800
3800
FFC0
3800
3800
3800
3800
3800
3800
3800
3800
3800
3800
3820
3820
3820
3C60
1FC0
0F80
0400
0400
0380
00C0
00C0
21C0
1F80
ENDCHAR
STARTCHAR 0164
ENCODING 356
SWIDTH 722 0
DWIDTH 26 0
BBX 21 33 3 0
BITMAP
020100
030600
01CC00
00F800
007000
002000
000000
FFFFF8
F07078
E07038
C07018
C07018
C07018
807008
807008
807008
807008
007000
007000
007000
007000
007000
007000
007000
007000
007000
007000
007000
007000
007000
007000
007000
07FF80
ENDCHAR
STARTCHAR 0165
ENCODING 357
SWIDTH 388 0
DWIDTH 14 0
BBX 12 26 1 0
BITMAP
00E0
00F0
08F0
0810
0810
0820
1840
1880
3800
FFC0
3800
3800
3800
3800
3800
3800
3800
3800
3800
3800
3820
3820
3820
3860
1FC0
0F80
ENDCHAR
STARTCHAR 0166
ENCODING 358
SWIDTH 722 0
DWIDTH 26 0
BBX 21 26 3 0
BITMAP
FFFFF8
F07078
E07038
E07018
C07018
C07018
C07008
807008
807008
807008
007000
007000
1FFFC0
007000
007000
007000
007000
007000
007000
007000
007000
007000
007000
007000
007000
07FF80
ENDCHAR
STARTCHAR 0167
ENCODING 359
SWIDTH 361 0
DWIDTH 13 0
BBX 11 24 1 0
BITMAP
0800
0800
0800
0800
1800
1800
3800
FFC0
3800
3800
3800
FFC0
3800
3800
3800
3800
3800
3800
3820
3820
3820
3860
1FC0
0F80
ENDCHAR
STARTCHAR 0168
ENCODING 360
SWIDTH 805 0
DWIDTH 29 0
BBX 25 33 2 0
BITMAP
00786000
00FFC000
00878000
00000000
00000000
00000000
00000000
FFC0FF80
0E000E00
0E000400
0E000400
0E000400
0E000400
0E000400
0E000400
0E000400
0E000400
0E000400
0E000400
0E000400
0E000400
0E000400
0E000400
0E000400
0E000400
0E000400
0E000400
0E000400
06000800
07000800
03001000
01C02000
007FC000
ENDCHAR
STARTCHAR 0169
ENCODING 361
SWIDTH 555 0
DWIDTH 20 0
BBX 17 24 1 0
BITMAP
0F8800
0FF800
10F000
000000
000000
000000
000000
F83E00
380E00
380E00
380E00
380E00
380E00
380E00
380E00
380E00
380E00
380E00
380E00
381E00
381E00
382E00
1C4E00
0F8F80
ENDCHAR
STARTCHAR 016A
ENCODING 362
SWIDTH 805 0
DWIDTH 29 0
BBX 25 31 2 0
BITMAP
00FFC000
00000000
00000000
00000000
00000000
FFC0FF80
0E000E00
0E000400
0E000400
0E000400
0E000400
0E000400
0E000400
0E000400
0E000400
0E000400
0E000400
0E000400
0E000400
0E000400
0E000400
0E000400
0E000400
0E000400
0E000400
0E000400
06000800
07000800
03001000
01C02000
007FC000
ENDCHAR
STARTCHAR 016B
ENCODING 363
SWIDTH 555 0
DWIDTH 20 0
BBX 17 22 1 0
BITMAP
1FF000
000000
000000
000000
000000
F83E00
380E00
380E00
380E00
380E00
380E00
380E00
380E00
380E00
380E00
380E00
380E00
381E00
381E00
382E00
1C4E00
0F8F80
ENDCHAR
STARTCHAR 016C
ENCODING 364
SWIDTH 805 0
DWIDTH 29 0
BBX 25 34 2 0
BITMAP
01004000
0100C000
0180C000
00C18000
007F0000
003E0000
00000000
00000000
FFC0FF80
0E000E00
0E000400
0E000400
0E000400
0E000400
0E000400
0E000400
0E000400
0E000400
0E000400
0E000400
0E000400
0E000400
0E000400
0E000400
0E000400
0E000400
0E000400
0E000400
0E000400
06000800
07000800
03001000
01C02000
007FC000
ENDCHAR
STARTCHAR 016D
ENCODING 365
SWIDTH 555 0
DWIDTH 20 0
BBX 17 25 1 0
BITMAP
100800
100800
081000
0C1000
03E000
000000
000000
000000
F83E00
380E00
380E00
380E00
380E00
380E00
380E00
380E00
380E00
380E00
380E00
380E00
381E00
381E00
382E00
1C4E00
0F8F80
ENDCHAR
STARTCHAR 016E
ENCODING 366
SWIDTH 805 0
DWIDTH 29 0
BBX 25 35 2 0
BITMAP
001E0000
00210000
00408000
00408000
00408000
00408000
00210000
001E0000
00000000
FFC07F80
0E000E00
0E000400
0E000400
0E000400
0E000400
0E000400
0E000400
0E000400
0E000400
0E000400
0E000400
0E000400
0E000400
0E000400
0E000400
0E000400
0E000400
0E000400
0E000400
0E000400
06000800
07000800
03001000
01C02000
007FC000
ENDCHAR
STARTCHAR 016F
ENCODING 367
SWIDTH 555 0
DWIDTH 20 0
BBX 17 25 1 0
BITMAP
03C000
0C2000
081000
081000
042000
03C000
000000
000000
F83E00
380E00
380E00
380E00
380E00
380E00
380E00
380E00
380E00
380E00
380E00
380E00
381E00
381E00
182E00
1C4E00
0F8F80
ENDCHAR
STARTCHAR 0170
ENCODING 368
SWIDTH 805 0
DWIDTH 29 0
BBX 25 34 2 0
BITMAP
00061800
000E3800
000C7000
0018E000
00318000
00230000
00000000
00000000
FFC0FF80
0E000E00
0E000400
0E000400
0E000400
0E000400
0E000400
0E000400
0E000400
0E000400
0E000400
0E000400
0E000400
0E000400
0E000400
0E000400
0E000400
0E000400
0E000400
0E000400
0E000400
06000800
07000800
03001000
01C02000
007FC000
ENDCHAR
STARTCHAR 0171
ENCODING 369
SWIDTH 527 0
DWIDTH 19 0
BBX 17 25 1 1
BITMAP
006600
00EE00
01CC00
019800
031000
042000
000000
000000
F83E00
380E00
380E00
380E00
380E00
380E00
380E00
380E00
380E00
380E00
380E00
380E00
381E00
381E00
382E00
1C4E00
0F8F80
ENDCHAR
STARTCHAR 0172
ENCODING 370
SWIDTH 805 0
DWIDTH 29 0
BBX 25 34 2 -8
BITMAP
FFC0FF80
0E000E00
0E000400
0E000400
0E000400
0E000400
0E000400
0E000400
0E000400
0E000400
0E000400
0E000400
0E000400
0E000400
0E000400
0E000400
0E000400
0E000400
0E000400
0E000400
0E000400
06000800
07001000
03001000
01C06000
00FB8000
000E0000
00040000
00080000
00180000
00180000
001C4000
001F8000
000F0000
ENDCHAR
STARTCHAR 0173
ENCODING 371
SWIDTH 555 0
DWIDTH 20 0
BBX 17 25 1 -8
BITMAP
F87E00
380E00
380E00
380E00
380E00
380E00
380E00
380E00
380E00
380E00
380E00
380E00
381E00
381E00
382E00
1C4E00
0F8F80
000300
000400
001800
001000
003000
003080
003F80
001E00
ENDCHAR
STARTCHAR 0174
ENCODING 372
SWIDTH 1055 0
DWIDTH 38 0
BBX 36 34 1 0
BITMAP
0000200000
0000700000
0000F80000
0001980000
0003060000
0004030000
0000000000
0000000000
FFE7FF3FF0
0F00F80780
0F00780300
0700780300
0780780600
0780F80600
0380FC0600
0380FC0400
03C09C0C00
01C19C0C00
01C19E0C00
01E10E1800
01E30E1800
00E30E1800
00E30F1000
00F2073000
0076073000
0076072000
007403E000
007C03E000
003C03C000
003C01C000
003801C000
001801C000
0018018000
0010008000
ENDCHAR
STARTCHAR 0175
ENCODING 373
SWIDTH 777 0
DWIDTH 28 0
BBX 27 25 0 0
BITMAP
00060000
000E0000
000F0000
00190000
00308000
00404000
00000000
00000000
FF3FCFE0
1C0F0300
1C070300
0C070200
0E070200
0E0F8200
070B8400
07098400
0389C400
0391C800
0190C800
01D0E800
01E0F000
00E07000
00E07000
00406000
00402000
ENDCHAR
STARTCHAR 0176
ENCODING 374
SWIDTH 750 0
DWIDTH 27 0
BBX 24 34 2 0
BITMAP
000800
001C00
001E00
003700
004180
018040
000000
000000
FFE1FF
1F0038
0F0030
078030
078020
03C060
03C040
01E080
00E080
00F100
007100
007A00
003E00
001C00
001C00
001C00
001C00
001C00
001C00
001C00
001C00
001C00
001C00
001C00
001C00
01FFE0
ENDCHAR
STARTCHAR 0177
ENCODING 375
SWIDTH 555 0
DWIDTH 20 0
BBX 18 33 1 -8
BITMAP
004000
00E000
00E000
01B000
020800
040400
000000
000000
FF1FC0
1C0600
1C0600
0C0400
0E0400
0E0400
060800
070800
070800
031000
039000
039000
01F000
01E000
01E000
00E000
00C000
004000
00C000
008000
708000
718000
710000
730000
3C0000
ENDCHAR
STARTCHAR 0178
ENCODING 376
SWIDTH 750 0
DWIDTH 27 0
BBX 24 33 2 0
BITMAP
00C180
01C1C0
01C1C0
00C180
000000
000000
000000
FFE1FF
1F0078
0F0030
070030
078060
038060
03C040
01E080
00E080
00F100
007100
007A00
003A00
003C00
001C00
001C00
001C00
001C00
001C00
001C00
001C00
001C00
001C00
001C00
001C00
01FFE0
ENDCHAR
STARTCHAR 0179
ENCODING 377
SWIDTH 638 0
DWIDTH 23 0
BBX 19 34 2 0
BITMAP
000600
000E00
000E00
001800
003000
002000
000000
000000
3FFFE0
3C03C0
3803C0
700780
600F00
600F00
401E00
401E00
403C00
007800
007800
00F000
00E000
01E000
03C000
03C000
078020
070020
0F0020
1E0060
1E0060
3C00E0
3800E0
7801E0
F003C0
FFFFC0
ENDCHAR
STARTCHAR 017A
ENCODING 378
SWIDTH 416 0
DWIDTH 15 0
BBX 12 25 1 0
BITMAP
0060
00E0
00E0
0180
0300
0200
0000
0000
FFF0
E070
C0E0
80E0
81C0
8380
8380
0700
0700
0E00
1C00
1C10
3810
3810
7030
E030
FFF0
ENDCHAR
STARTCHAR 017B
ENCODING 379
SWIDTH 638 0
DWIDTH 23 0
BBX 19 33 3 0
BITMAP
006000
00E000
00E000
006000
000000
000000
000000
7FFFC0
7803C0
700780
600F00
600F00
401E00
401E00
803C00
807800
007800
00F000
00F000
01E000
03C000
03C000
078000
078020
0F0060
1E0040
1E0040
3C00C0
3C00C0
7801C0
F003C0
F007C0
FFFFC0
ENDCHAR
STARTCHAR 017C
ENCODING 380
SWIDTH 416 0
DWIDTH 15 0
BBX 12 24 1 0
BITMAP
0600
0700
0700
0600
0000
0000
0000
FFF0
E070
C0E0
81E0
81C0
8380
8380
0700
0F00
0E00
1C10
1C10
3810
3810
7030
F030
FFF0
ENDCHAR
STARTCHAR 017D
ENCODING 381
SWIDTH 638 0
DWIDTH 23 0
BBX 19 33 2 0
BITMAP
040100
030600
019C00
00F800
007000
002000
000000
3FFFE0
3C03C0
3803C0
700780
600F00
600F00
401E00
401E00
403C00
007800
007800
00F000
00E000
01E000
03C000
03C000
078020
070020
0F0020
1E0060
1E0060
3C00E0
3800E0
7801E0
F003C0
FFFFC0
ENDCHAR
STARTCHAR 017E
ENCODING 382
SWIDTH 416 0
DWIDTH 15 0
BBX 12 24 1 0
BITMAP
2060
10C0
1D80
0F00
0700
0200
0000
FFF0
E070
C0E0
80E0
81C0
8380
8380
0700
0700
0E00
1C10
1C10
3810
3810
7030
E070
FFF0
ENDCHAR
STARTCHAR 017F
ENCODING 383
SWIDTH 333 0
DWIDTH 12 0
BBX 12 26 1 0
BITMAP
03C0
0630
0E30
0C70
1C70
1C20
1C00
1C00
1C00
1C00
1C00
1C00
1C00
1C00
1C00
1C00
1C00
1C00
1C00
1C00
1C00
1C00
1C00
1C00
1C00
FF80
ENDCHAR
STARTCHAR 0180
ENCODING 384
SWIDTH 527 0
DWIDTH 19 0
BBX 16 26 1 0
BITMAP
F800
3800
3800
3800
FFF0
3800
3800
3800
3800
38F0
3B18
3E0C
3C0E
3C06
3807
3807
3807
3807
3807
3807
3807
380E
3C0E
340C
2618
21F0
ENDCHAR
STARTCHAR 0186
ENCODING 390
SWIDTH 694 0
DWIDTH 25 0
BBX 19 26 4 1
BITMAP
07F800
180E00
300700
600300
400380
C001C0
8001C0
8001C0
8001E0
0001E0
0001E0
0001E0
0001E0
0001E0
0001E0
0001E0
8001E0
8001C0
C001C0
C003C0
E00380
E00380
F00300
F80600
CC0C00
877800
ENDCHAR
STARTCHAR 018E
ENCODING 398
SWIDTH 694 0
DWIDTH 25 0
BBX 21 26 3 0
BITMAP
FFFFF8
F00380
E00380
C00380
C00380
800380
800380
820380
020380
020380
030380
030380
03FF80
030380
030380
020380
820380
820380
800380
800380
C00380
C00380
E00380
E00380
F80380
FFFFF8
ENDCHAR
STARTCHAR 018F
ENCODING 399
SWIDTH 694 0
DWIDTH 25 0
BBX 20 27 3 0
BITMAP
004000
07BC00
0C0600
180300
300180
2001C0
6001C0
4001E0
4000E0
4000E0
0000F0
0000F0
0000F0
0000F0
FFFFF0
F000F0
F000F0
F000F0
F000F0
7000E0
7000E0
7801C0
3801C0
380180
1C0380
0E0600
07BC00
ENDCHAR
STARTCHAR 0190
ENCODING 400
SWIDTH 638 0
DWIDTH 23 0
BBX 18 26 3 1
BITMAP
0FF880
1C0E80
380380
300380
700180
700180
700080
700080
700080
380000
380000
0C0000
03F000
1E0000
380000
780000
F00100
F003C0
F003C0
F001C0
F001C0
F000C0
780080
380180
1C0300
0FFC00
ENDCHAR
STARTCHAR 0192
ENCODING 402
SWIDTH 611 0
DWIDTH 22 0
BBX 23 33 -2 -8
BITMAP
00003C
0000C6
00018E
00038E
000300
000700
000600
000600
007FE0
000C00
000C00
001C00
001C00
001800
001800
003800
003800
003000
003000
007000
006000
006000
006000
00E000
00C000
00C000
01C000
018000
618000
E30000
E30000
C60000
780000
ENDCHAR
STARTCHAR 0195
ENCODING 405
SWIDTH 722 0
DWIDTH 26 0
BBX 23 26 1 0
BITMAP
FC0000
1C0000
1C0000
1C0000
1C0000
1C0000
1C0000
1C0000
1C0000
1C7C18
1C8E1C
1D071C
1E070E
1E070E
1C0706
1C0706
1C0702
1C0702
1C0702
1C0702
1C0702
1C0702
1C0704
1C0704
1C0388
FF01F0
ENDCHAR
STARTCHAR 01A6
ENCODING 422
SWIDTH 722 0
DWIDTH 26 0
BBX 23 32 2 -6
BITMAP
FFE000
0E0000
0E0000
0E0000
0E0000
0FFF00
0E03C0
0E01E0
0E00F0
0E00F0
0E00F0
0E00F0
0E00F0
0E01E0
0E01C0
0E0780
0FFC00
0E0600
0E0700
0E0380
0E0380
0E0380
0E03C0
0E03C0
0E03C0
FFE3C0
0003C2
0003C2
0001E2
0001E4
0000FC
000078
ENDCHAR
STARTCHAR 01B7
ENCODING 439
SWIDTH 611 0
DWIDTH 22 0
BBX 18 26 2 0
BITMAP
7FFF80
7FFF80
7FFF00
7FFE00
700400
600800
401000
402000
406000
00C000
018000
03F800
061E00
000700
000780
000380
0003C0
7803C0
F803C0
F803C0
F003C0
E00780
C00780
400F00
301E00
1FF800
ENDCHAR
STARTCHAR 01BF
ENCODING 447
SWIDTH 527 0
DWIDTH 19 0
BBX 16 26 1 -9
BITMAP
0C3C
3CFE
5D8F
1D07
1E07
1E07
1C07
1C06
1C0E
1C0C
1C0C
1C18
1C30
1C20
1C40
1D80
1E00
1C00
1C00
1C00
1C00
1C00
1C00
1C00
3800
E000
ENDCHAR
STARTCHAR 01C4
ENCODING 452
SWIDTH 638 0
DWIDTH 23 0
BBX 48 33 2 0
BITMAP
000000006010
000000003060
000000001CC0
000000000F80
000000000700
000000000300
000000000000
FFFF0003FFFE
0E00C003C01E
0E007003803C
0E0038030038
0E003C020078
0E001C0600F0
0E001E0600F0
0E001E0401E0
0E000E0403C0
0E000F0003C0
0E000F000780
0E000F000780
0E000F000F00
0E000F001E00
0E000F001E00
0E000F003C00
0E000F003801
0E000E007803
0E001E00F002
0E001E00F002
0E001C01E006
0E003803C006
0E003803C00E
0E007007801E
0E00C007803E
FFFF000FFFFE
ENDCHAR
STARTCHAR 01C5
ENCODING 453
SWIDTH 1222 0
DWIDTH 44 0
BBX 39 26 3 0
BITMAP
FFFF000000
1C01C00404
1C00700608
1C00380318
1C003801B0
1C001C01E0
1C001E00C0
1C001E0000
1C000E0000
1C000F1FFE
1C000F1C0E
1C000F181C
1C000F101C
1C000F1038
1C000F1070
1C000F1070
1C000F00E0
1C000E00E0
1C001E01C0
1C001E0380
1C001C0382
1C00380702
1C00380702
1C00700E06
1C01C01C0E
FFFF001FFE
ENDCHAR
STARTCHAR 01C6
ENCODING 454
SWIDTH 972 0
DWIDTH 35 0
BBX 31 26 2 0
BITMAP
01F80000
00380004
0038040C
00380218
003801B0
003801E0
003800E0
00380040
00380000
0F381FFE
39B81C0E
30F8181C
7078101C
60781038
E0381070
E0381070
E03800E0
E03800E0
E03801C0
E0380382
E0380382
60380702
70780702
30780E06
30F81C0E
0F3F1FFE
ENDCHAR
STARTCHAR 01C7
ENCODING 455
SWIDTH 1194 0
DWIDTH 43 0
BBX 40 26 2 0
BITMAP
FFE00003FF
0E00000070
0E00000070
0E00000070
0E00000070
0E00000070
0E00000070
0E00000070
0E00000070
0E00000070
0E00000070
0E00000070
0E00000070
0E00000070
0E00000070
0E00000070
0E00100070
0E00100070
0E00107070
0E0010F870
0E0030F870
0E0030F070
0E0070C060
0E0070C0E0
0E01F060C0
FFFFF03B80
ENDCHAR
STARTCHAR 01C8
ENCODING 456
SWIDTH 972 0
DWIDTH 35 0
BBX 30 34 2 -8
BITMAP
FFE00018
0E00001C
0E00001C
0E000018
0E000000
0E000000
0E000000
0E000000
0E000000
0E0000FC
0E00001C
0E00001C
0E00001C
0E00001C
0E00001C
0E00001C
0E00101C
0E00101C
0E00101C
0E00101C
0E00301C
0E00301C
0E00701C
0E00F01C
0E01F01C
FFFFF01C
0000001C
0000001C
0000001C
0000071C
00000718
00000638
00000630
000003E0
ENDCHAR
STARTCHAR 01C9
ENCODING 457
SWIDTH 583 0
DWIDTH 21 0
BBX 17 34 1 -8
BITMAP
FC0300
1C0380
1C0380
1C0300
1C0000
1C0000
1C0000
1C0000
1C0000
1C1F80
1C0380
1C0380
1C0380
1C0380
1C0380
1C0380
1C0380
1C0380
1C0380
1C0380
1C0380
1C0380
1C0380
1C0380
1C0380
FF0380
000380
000380
000380
00E380
00E380
00C700
00C600
007C00
ENDCHAR
STARTCHAR 01CA
ENCODING 458
SWIDTH 1305 0
DWIDTH 47 0
BBX 44 26 2 0
BITMAP
FE00FF803FF0
0F001C000700
0F8008000700
0F8008000700
0BC008000700
0BC008000700
09E008000700
08F008000700
08F008000700
087808000700
083C08000700
083C08000700
081E08000700
081E08000700
080F08000700
080788000700
080788000700
0803C8000700
0801E80F0700
0801E81F0700
0800F81F0700
0800781F0700
080078180600
080038180E00
1C00180C0C00
FF801807F800
ENDCHAR
STARTCHAR 01CB
ENCODING 459
SWIDTH 1055 0
DWIDTH 38 0
BBX 34 34 2 -8
BITMAP
FE00FF8180
0F001C0380
0F80080380
0F80080180
0BC0080000
09C0080000
09E0080000
08F0080000
08F0080000
0878081FC0
083C0801C0
083C0801C0
081E0801C0
080E0801C0
080F0801C0
08078801C0
08078801C0
0803C801C0
0801E801C0
0801E801C0
0800F801C0
08007801C0
08007801C0
08003801C0
1C001801C0
FF801801C0
00000801C0
00000001C0
00000001C0
000000E1C0
000000E1C0
000000C380
0000004300
0000003E00
ENDCHAR
STARTCHAR 01CC
ENCODING 460
SWIDTH 833 0
DWIDTH 30 0
BBX 25 34 2 -8
BITMAP
00000180
00000380
00000380
00000180
00000000
00000000
00000000
00000000
00000000
F8F81F80
391C0380
3A0E0380
3C0E0380
3C0E0380
380E0380
380E0380
380E0380
380E0380
380E0380
380E0380
380E0380
380E0380
380E0380
380E0380
380E0380
FE3F8380
00000380
00000380
00000380
0000E380
0000E300
0000C300
0000C600
00003C00
ENDCHAR
STARTCHAR 01DD
ENCODING 477
SWIDTH 472 0
DWIDTH 17 0
BBX 13 17 2 0
BITMAP
1F80
30C0
4060
4070
8030
8038
0038
0038
FFF8
E038
E038
E038
7030
7070
3060
18C0
0F80
ENDCHAR
STARTCHAR 01E2
ENCODING 482
SWIDTH 1000 0
DWIDTH 36 0
BBX 33 31 1 0
BITMAP
00007FE000
0000000000
0000000000
0000000000
0000000000
0007FFFF80
0001E00780
0001E00380
0003E00180
0002E00180
0006E00080
0004E00080
000CE02080
0008E02000
0018E02000
0010E06000
0030E06000
0030FFE000
0060E06000
0060E06000
00C0E02000
00C0E02080
01FFE02080
0100E00080
0300E00080
0200E00180
0600E00180
0600E00180
0E00E00380
1E00E00F80
FFC7FFFF80
ENDCHAR
STARTCHAR 01E3
ENCODING 483
SWIDTH 722 0
DWIDTH 26 0
BBX 22 22 2 0
BITMAP
01FF00
000000
000000
000000
000000
0F87C0
30EC70
607830
707838
787018
38701C
00701C
07FFFC
387000
707000
E07000
E07004
E0F808
E0B808
E13810
711C30
3E07C0
ENDCHAR
STARTCHAR 01EA
ENCODING 490
SWIDTH 722 0
DWIDTH 26 0
BBX 21 35 3 -8
BITMAP
002000
03DE00
060300
0C0180
1C01C0
3800E0
3800E0
7800F0
700070
700070
F00078
F00078
F00078
F00078
F00078
F00078
F00078
F00078
700070
7000F0
7800F0
3800E0
3800C0
1C01C0
0E0380
070600
01FC00
004000
018000
018000
030000
030000
030000
03F000
01E000
ENDCHAR
STARTCHAR 01EB
ENCODING 491
SWIDTH 500 0
DWIDTH 18 0
BBX 14 25 2 -8
BITMAP
0780
1860
3030
7038
7018
E01C
E01C
E01C
E01C
E01C
E01C
E01C
601C
7038
3030
1870
0FC0
0300
0400
0C00
1800
1800
1880
1F00
0E00
ENDCHAR
STARTCHAR 01EC
ENCODING 492
SWIDTH 722 0
DWIDTH 26 0
BBX 21 40 3 -8
BITMAP
07FE00
000000
000000
000000
000000
002000
03DE00
060300
0C0180
1C01C0
3800E0
3800E0
7800F0
700070
700070
F00078
F00078
F00078
F00078
F00078
F00078
F00078
F00078
700070
7000F0
7800F0
3800E0
3800C0
1C01C0
0E0380
070600
01FC00
004000
018000
018000
030000
030000
030000
03F000
01E000
ENDCHAR
STARTCHAR 01ED
ENCODING 493
SWIDTH 500 0
DWIDTH 18 0
BBX 14 30 2 -8
BITMAP
1FF0
0000
0000
0000
0000
0780
1860
3030
7038
7018
E01C
E01C
E01C
E01C
E01C
E01C
E01C
601C
7038
3030
1870
0FC0
0300
0400
0C00
1800
1800
1880
1F00
0E00
ENDCHAR
STARTCHAR 01F0
ENCODING 496
SWIDTH 333 0
DWIDTH 12 0
BBX 12 33 -1 -8
BITMAP
1010
0820
0C60
07C0
0780
0300
0000
0000
1F80
0380
0380
0380
0380
0380
0380
0380
0380
0380
0380
0380
0380
0380
0380
0380
0380
0380
0380
4380
E380
E300
C700
4600
3C00
ENDCHAR
STARTCHAR 01F1
ENCODING 497
SWIDTH 1416 0
DWIDTH 51 0
BBX 48 26 2 0
BITMAP
FFFF0003FFFE
0E00C003C01E
0E007003803C
0E0038030038
0E003C020078
0E001C0600F0
0E001E0600F0
0E001E0401E0
0E000E0403C0
0E000F0003C0
0E000F000780
0E000F000780
0E000F000F00
0E000F001E00
0E000F001E00
0E000F003C00
0E000F003801
0E000E007803
0E001E00F002
0E001E00F002
0E001C01E006
0E003803C006
0E003803C00E
0E007007801E
0E00C007803E
FFFF000FFFFE
ENDCHAR
STARTCHAR 01F2
ENCODING 498
SWIDTH 1222 0
DWIDTH 44 0
BBX 39 26 3 0
BITMAP
FFFF000000
1C01C00000
1C00700000
1C00380000
1C00380000
1C001C0000
1C001E0000
1C001E0000
1C000E0000
1C000F1FFE
1C000F1C0E
1C000F181C
1C000F101C
1C000F1038
1C000F1070
1C000F1070
1C000F00E0
1C000E00E0
1C001E01C0
1C001E0380
1C001C0382
1C00380702
1C00380702
1C00700E06
1C01C01C0E
FFFF001FFE
ENDCHAR
STARTCHAR 01F3
ENCODING 499
SWIDTH 972 0
DWIDTH 35 0
BBX 31 26 2 0
BITMAP
01F80000
00380000
00380000
00380000
00380000
00380000
00380000
00380000
00380000
0F381FFE
39B81C0E
30F8181C
7078101C
60781038
E0381070
E0381070
E03800E0
E03800E0
E03801C0
E0380382
E0380382
60380702
70780702
30780E06
30F81C0E
0F3F1FFE
ENDCHAR
STARTCHAR 01F4
ENCODING 500
SWIDTH 722 0
DWIDTH 26 0
BBX 22 34 3 0
BITMAP
000300
000700
000E00
001C00
001800
002000
000000
002000
03DC20
060720
0C03E0
1801E0
3800E0
380060
700060
700060
700020
F00020
F00000
F00000
F00000
F00FFC
F000E0
F000E0
F000E0
F000E0
7000E0
7000E0
3800E0
3801E0
180120
0C0320
060620
03FC20
ENDCHAR
STARTCHAR 01F5
ENCODING 501
SWIDTH 555 0
DWIDTH 20 0
BBX 17 33 2 -7
BITMAP
001800
003800
007000
006000
00C000
018000
000000
000000
07C700
1C7D80
383B80
701F80
701C00
701C00
701C00
701C00
383800
1C7000
07C000
380000
400000
400000
400000
7FF000
3FFC00
1E1C00
600200
C00200
C00200
C00200
E00400
700800
0FF000
ENDCHAR
STARTCHAR 01F6
ENCODING 502
SWIDTH 972 0
DWIDTH 35 0
BBX 31 26 2 0
BITMAP
FFC3FF00
0E003800
0E003800
0E003800
0E003800
0E003800
0E003800
0E003800
0E003800
0E003800
0E003800
0E003800
0FFFF878
0E00387C
0E00387C
0E00383E
0E00380E
0E003806
0E003802
0E003802
0E003802
0E003804
0E003804
0E001C0C
0E001E18
FFC007F0
ENDCHAR
STARTCHAR 01F7
ENCODING 503
SWIDTH 638 0
DWIDTH 23 0
BBX 18 32 3 -5
BITMAP
0C3E00
7C7F00
9DFF80
1F0780
1C03C0
1C03C0
1C01C0
1C01C0
1C01C0
1C01C0
1C01C0
1C01C0
1C0180
1C0380
1C0300
1C0300
1C0600
1C0C00
1C1C00
1C3000
1C6000
1F8000
1E0000
1C0000
1C0000
1C0000
1C0000
1C0000
1C0000
3C0000
E00000
800000
ENDCHAR
STARTCHAR 01FA
ENCODING 506
SWIDTH 777 0
DWIDTH 28 0
BBX 25 34 2 1
BITMAP
00030000
00060000
00080000
001E0000
00210000
00210000
001E0000
00000000
00080000
000C0000
000C0000
001C0000
001E0000
001E0000
003E0000
002F0000
00670000
00670000
00478000
00C38000
00C38000
0083C000
0181C000
0181C000
0101E000
03FFE000
0300E000
0200F000
06007000
06007000
0C007800
0C003800
1E003800
FFC3FF80
ENDCHAR
STARTCHAR 01FB
ENCODING 507
SWIDTH 527 0
DWIDTH 19 0
BBX 16 32 2 0
BITMAP
0030
0070
00E0
01C0
0180
0200
0000
0700
0880
1040
1040
1040
0880
0700
0000
0F80
30E0
6070
6070
7870
7870
0070
01F0
1E70
7070
6070
E070
E071
E0F1
E171
717E
3E3C
ENDCHAR
STARTCHAR 01FC
ENCODING 508
SWIDTH 1000 0
DWIDTH 36 0
BBX 33 34 1 0
BITMAP
0000003000
0000007000
000000E000
000001C000
0000010000
0000020000
0000000000
0000000000
0007FFFF80
0001E00780
0001E00380
0003E00180
0002E00180
0006E00080
0004E00080
000CE02080
0008E02000
0018E02000
0010E06000
0030E06000
0030FFE000
0060E06000
0060E06000
00C0E02000
00C0E02080
01FFE02080
0100E00080
0300E00080
0200E00180
0600E00180
0600E00180
0E00E00380
1E00E00F80
FFC7FFFF80
ENDCHAR
STARTCHAR 01FD
ENCODING 509
SWIDTH 722 0
DWIDTH 26 0
BBX 22 25 2 1
BITMAP
000300
000700
000E00
000C00
001800
003000
000000
000000
0F87C0
30EC70
607830
707838
787018
38701C
00701C
07FFFC
387000
707000
E07000
E07004
E0F808
E0B808
E13810
711C30
3E07C0
ENDCHAR
STARTCHAR 01FE
ENCODING 510
SWIDTH 722 0
DWIDTH 26 0
BBX 21 34 3 0
BITMAP
000300
000700
000E00
000C00
001800
002000
000000
002000
03DE18
060330
0C01E0
1C01C0
3800E0
3801E0
7803F0
700270
700670
F00C78
F01878
F01078
F03078
F06078
F0C078
F0C078
F18078
730070
720070
7E00F0
3C00E0
3800E0
1C01C0
3C0180
660300
C3DE00
ENDCHAR
STARTCHAR 01FF
ENCODING 511
SWIDTH 500 0
DWIDTH 18 0
BBX 14 25 2 1
BITMAP
0030
0070
00E0
00C0
0180
0100
0000
0000
0784
1868
3038
7038
7038
E05C
E09C
E19C
E31C
E21C
E41C
E81C
7818
7038
3030
5860
87C0
ENDCHAR
STARTCHAR 0200
ENCODING 512
SWIDTH 777 0
DWIDTH 28 0
BBX 25 34 2 0
BITMAP
06300000
07380000
039C0000
01CC0000
00C60000
00210000
00000000
00000000
00080000
000C0000
001C0000
001C0000
001E0000
003E0000
002E0000
002F0000
00670000
00670000
00478000
00C38000
00C38000
0083C000
0181C000
0181C000
0301E000
03FFE000
0200E000
0600F000
06007000
06007000
0C007800
0C007800
1E007800
FFC3FF80
ENDCHAR
STARTCHAR 0201
ENCODING 513
SWIDTH 527 0
DWIDTH 19 0
BBX 17 25 1 1
BITMAP
C60000
E70000
730000
318000
18C000
0C4000
000000
000000
07C000
187000
303800
303800
3C3800
3C3800
003800
00F800
0F3800
383800
303800
703800
703880
707880
70B880
38BF00
1F1E00
ENDCHAR
STARTCHAR 0202
ENCODING 514
SWIDTH 777 0
DWIDTH 28 0
BBX 25 33 2 0
BITMAP
001E0000
003F0000
00618000
00808000
00804000
00000000
00000000
00080000
000C0000
001C0000
001C0000
001E0000
003E0000
002E0000
002F0000
00670000
00670000
00478000
00C38000
00C38000
0083C000
0181C000
0181C000
0301E000
03FFE000
0200E000
0600F000
06007000
06007000
0C007800
0C007800
1E007800
FFC3FF80
ENDCHAR
STARTCHAR 0203
ENCODING 515
SWIDTH 527 0
DWIDTH 19 0
BBX 16 25 2 0
BITMAP
0700
0F80
18C0
1040
2020
2020
0000
0000
0F80
30E0
6070
6070
7870
7870
0070
01F0
1E70
7070
6070
E070
E071
E0F1
E171
717E
3E3C
ENDCHAR
STARTCHAR 0204
ENCODING 516
SWIDTH 694 0
DWIDTH 25 0
BBX 20 34 3 0
BITMAP
18C000
1CE000
0E7000
063800
031800
008400
000000
000000
FFFFF0
1C00F0
1C0070
1C0030
1C0030
1C0010
1C0010
1C0410
1C0400
1C0400
1C0C00
1C0C00
1FFC00
1C0C00
1C0C00
1C0400
1C0410
1C0410
1C0010
1C0010
1C0030
1C0030
1C0070
1C0070
1C01F0
FFFFF0
ENDCHAR
STARTCHAR 0205
ENCODING 517
SWIDTH 472 0
DWIDTH 17 0
BBX 13 25 2 1
BITMAP
CE00
EE00
E700
3380
1180
0840
0000
0000
0F80
18E0
3060
7070
6030
E038
E038
FFF8
E000
E000
E000
E008
7010
7010
3020
1860
0780
ENDCHAR
STARTCHAR 0206
ENCODING 518
SWIDTH 694 0
DWIDTH 25 0
BBX 21 33 2 0
BITMAP
007800
00FE00
018600
010100
020100
000000
000000
FFFFF8
0E0078
0E0038
0E0018
0E0018
0E0008
0E0008
0E0408
0E0400
0E0400
0E0C00
0E0C00
0FFC00
0E0C00
0E0400
0E0400
0E0408
0E0408
0E0008
0E0008
0E0018
0E0018
0E0038
0E0038
0E00F8
FFFFF8
ENDCHAR
STARTCHAR 0207
ENCODING 519
SWIDTH 472 0
DWIDTH 17 0
BBX 13 25 2 0
BITMAP
0700
0F80
08C0
1020
2020
2010
0000
0000
0F80
18E0
3060
7070
6030
E038
E038
FFF8
E000
E000
E000
E008
7010
7010
3020
1860
0780
ENDCHAR
STARTCHAR 0208
ENCODING 520
SWIDTH 388 0
DWIDTH 14 0
BBX 12 34 0 0
BITMAP
C600
E700
E700
3180
18C0
0C40
0000
0000
3FF0
0380
0380
0380
0380
0380
0380
0380
0380
0380
0380
0380
0380
0380
0380
0380
0380
0380
0380
0380
0380
0380
0380
0380
0380
3FF0
ENDCHAR
STARTCHAR 0209
ENCODING 521
SWIDTH 305 0
DWIDTH 11 0
BBX 11 25 -2 0
BITMAP
C600
E700
E780
3180
18C0
0C20
0000
0000
0F80
0380
0380
0380
0380
0380
0380
0380
0380
0380
0380
0380
0380
0380
0380
0380
0FE0
ENDCHAR
STARTCHAR 020A
ENCODING 522
SWIDTH 388 0
DWIDTH 14 0
BBX 10 33 2 0
BITMAP
1E00
3F00
6180
4080
8040
0000
0000
FFC0
0E00
0E00
0E00
0E00
0E00
0E00
0E00
0E00
0E00
0E00
0E00
0E00
0E00
0E00
0E00
0E00
0E00
0E00
0E00
0E00
0E00
0E00
0E00
0E00
FFC0
ENDCHAR
STARTCHAR 020B
ENCODING 523
SWIDTH 305 0
DWIDTH 11 0
BBX 9 24 1 0
BITMAP
1C00
3F00
6100
8080
8080
0000
0000
7C00
1C00
1C00
1C00
1C00
1C00
1C00
1C00
1C00
1C00
1C00
1C00
1C00
1C00
1C00
1C00
7F00
ENDCHAR
STARTCHAR 020C
ENCODING 524
SWIDTH 722 0
DWIDTH 26 0
BBX 21 34 3 0
BITMAP
18C000
1CE000
0E6000
063000
031800
018800
000000
002000
03DC00
060300
0C0180
1C01C0
3800E0
3800E0
7800F0
700070
700070
F00078
F00078
F00078
F00078
F00078
F00078
F00078
F00078
700070
700070
7800F0
3800E0
3800E0
1C01C0
0C0180
060300
03FE00
ENDCHAR
STARTCHAR 020D
ENCODING 525
SWIDTH 500 0
DWIDTH 18 0
BBX 14 26 2 0
BITMAP
8000
CE00
E700
6700
3180
1880
0840
0000
0000
0780
1860
3030
7038
7018
E01C
E01C
E01C
E01C
E01C
E01C
E01C
7018
7038
3030
1860
0780
ENDCHAR
STARTCHAR 020E
ENCODING 526
SWIDTH 722 0
DWIDTH 26 0
BBX 21 34 3 0
BITMAP
007000
00F800
018C00
030600
020200
040100
000000
002000
03DC00
060300
0C0180
1C01C0
3800E0
3800E0
7800F0
700070
700070
F00078
F00078
F00078
F00078
F00078
F00078
F00078
F00078
700070
700070
7800F0
3800E0
3800E0
1C01C0
0C0180
060300
03FE00
ENDCHAR
STARTCHAR 020F
ENCODING 527
SWIDTH 500 0
DWIDTH 18 0
BBX 14 25 2 0
BITMAP
0380
07C0
0C40
1020
1020
2010
0000
0000
0780
1860
3030
7038
7018
E01C
E01C
E01C
E01C
E01C
E01C
E01C
7018
7038
3030
1860
0780
ENDCHAR
STARTCHAR 0210
ENCODING 528
SWIDTH 694 0
DWIDTH 25 0
BBX 22 34 2 1
BITMAP
39C000
3DC000
1CE000
067000
021000
010800
000000
000000
FFFF00
0E03C0
0E01E0
0E00F0
0E00F0
0E00F0
0E00F0
0E00F0
0E01E0
0E01C0
0E0780
0FFC00
0E0600
0E0700
0E0380
0E0380
0E0380
0E03C0
0E03C0
0E03C0
0E03C4
0E01C4
0E01C4
0E01EC
0E01F8
FFE0F0
ENDCHAR
STARTCHAR 0211
ENCODING 529
SWIDTH 416 0
DWIDTH 15 0
BBX 13 25 1 0
BITMAP
C300
E300
7380
39C0
0C40
0420
0000
0000
7C70
1C88
1D18
1D38
1E38
1E00
1E00
1C00
1C00
1C00
1C00
1C00
1C00
1C00
1C00
1C00
7F00
ENDCHAR
STARTCHAR 0212
ENCODING 530
SWIDTH 694 0
DWIDTH 25 0
BBX 22 34 2 0
BITMAP
00F000
01F800
031C00
060400
040600
040200
000000
000000
FFFF00
0E03C0
0E01E0
0E00F0
0E00F0
0E00F0
0E00F0
0E00F0
0E01E0
0E01C0
0E0780
0FFC00
0E0600
0E0700
0E0380
0E0380
0E0380
0E03C0
0E03C0
0E03C0
0E03C4
0E01C4
0E01C4
0E01EC
0E01F8
FFE0F0
ENDCHAR
STARTCHAR 0213
ENCODING 531
SWIDTH 416 0
DWIDTH 15 0
BBX 12 24 2 0
BITMAP
0700
0FC0
1840
1020
2020
0000
0000
F8E0
3910
3A30
3A70
3C70
3C00
3C00
3800
3800
3800
3800
3800
3800
3800
3800
3800
FE00
ENDCHAR
STARTCHAR 0214
ENCODING 532
SWIDTH 805 0
DWIDTH 29 0
BBX 25 34 2 0
BITMAP
03300000
03380000
039C0000
00CC0000
00460000
00220000
00000000
00000000
FFC0FF80
0E000E00
0E000400
0E000400
0E000400
0E000400
0E000400
0E000400
0E000400
0E000400
0E000400
0E000400
0E000400
0E000400
0E000400
0E000400
0E000400
0E000400
0E000400
0E000400
0E000400
06000800
07000800
03001000
01C02000
007FC000
ENDCHAR
STARTCHAR 0215
ENCODING 533
SWIDTH 555 0
DWIDTH 20 0
BBX 17 25 1 1
BITMAP
E30000
738000
39C000
18C000
0C6000
021000
000000
000000
F83E00
380E00
380E00
380E00
380E00
380E00
380E00
380E00
380E00
380E00
380E00
380E00
381E00
381E00
382E00
1C4E00
0F8F80
ENDCHAR
STARTCHAR 0216
ENCODING 534
SWIDTH 805 0
DWIDTH 29 0
BBX 25 34 2 0
BITMAP
001E0000
003F0000
00638000
00C08000
0080C000
00804000
00000000
00000000
FFC0FF80
0E000E00
0E000400
0E000400
0E000400
0E000400
0E000400
0E000400
0E000400
0E000400
0E000400
0E000400
0E000400
0E000400
0E000400
0E000400
0E000400
0E000400
0E000400
0E000400
0E000400
06000800
07000800
03001000
01C02000
007FC000
ENDCHAR
STARTCHAR 0217
ENCODING 535
SWIDTH 555 0
DWIDTH 20 0
BBX 17 25 1 0
BITMAP
01C000
03E000
063000
0C1000
080800
000800
000000
000000
F83E00
380E00
380E00
380E00
380E00
380E00
380E00
380E00
380E00
380E00
380E00
380E00
381E00
381E00
382E00
1C4E00
0F8F80
ENDCHAR
STARTCHAR 0218
ENCODING 536
SWIDTH 611 0
DWIDTH 22 0
BBX 17 34 3 -7
BITMAP
1FE300
303300
601F00
C00F00
C00700
C00300
C00300
E00300
F00100
780000
7F0000
3FC000
1FF800
07FC00
01FE00
803F00
800F80
800380
C00380
C00180
C00180
E00180
F00100
F80300
8C0600
873C00
00C000
01C000
01C000
01C000
004000
004000
008000
010000
ENDCHAR
STARTCHAR 0219
ENCODING 537
SWIDTH 444 0
DWIDTH 16 0
BBX 12 25 2 -8
BITMAP
3E40
6140
C0C0
C040
C040
E040
7800
7F00
1FC0
07E0
80F0
C070
C030
E030
E030
9860
87C0
0000
0700
0700
0700
0100
0100
0200
0400
ENDCHAR
STARTCHAR 021A
ENCODING 538
SWIDTH 722 0
DWIDTH 26 0
BBX 21 35 3 -9
BITMAP
FFFFF8
F07078
E07038
C07018
C07018
C07018
807008
807008
807008
807008
007000
007000
007000
007000
007000
007000
007000
007000
007000
007000
007000
007000
007000
007000
007000
07FF80
000000
000000
006000
007000
007000
001000
001000
002000
004000
ENDCHAR
STARTCHAR 021B
ENCODING 539
SWIDTH 361 0
DWIDTH 13 0
BBX 11 32 1 -8
BITMAP
0800
0800
0800
0800
1800
1800
3800
FFC0
3800
3800
3800
3800
3800
3800
3800
3800
3800
3800
3820
3820
3820
3860
1FC0
0F80
0000
0600
0700
0700
0100
0100
0200
0400
ENDCHAR
STARTCHAR 021C
ENCODING 540
SWIDTH 527 0
DWIDTH 19 0
BBX 15 32 2 -5
BITMAP
03F0
0FF8
1FFC
303C
601C
001C
001C
0018
0038
0070
00E0
01C0
03F0
0FF8
1FFC
307E
003E
001E
001E
001E
001E
001C
003C
0038
0078
00F0
01E0
0380
0F00
1C00
F000
8000
ENDCHAR
STARTCHAR 021D
ENCODING 541
SWIDTH 416 0
DWIDTH 15 0
BBX 12 26 1 -9
BITMAP
0780
0FE0
1FF0
30F0
4070
0070
0070
00E0
00C0
0180
0380
07E0
1FF0
30F0
0070
0070
0070
0070
00E0
00E0
01C0
0380
0700
0C00
3000
C000
ENDCHAR
STARTCHAR 0224
ENCODING 548
SWIDTH 638 0
DWIDTH 23 0
BBX 19 35 3 -9
BITMAP
7FFFC0
7803C0
700780
600780
600F00
401E00
401E00
C03C00
803C00
007800
00F000
00F000
01E000
01E000
03C000
078000
078000
0F0000
0E0000
1E0000
3C0000
3C0000
780000
F00000
F00000
FFFF80
0007C0
0003E0
0001E0
0001E0
0001C0
0003C0
000700
001C00
002000
ENDCHAR
STARTCHAR 0225
ENCODING 549
SWIDTH 416 0
DWIDTH 15 0
BBX 13 24 1 -7
BITMAP
FFF0
E070
C0E0
80E0
81C0
8380
8380
0700
0700
0E00
1C00
1C00
3800
3800
7000
E000
FFF0
0078
0038
0038
0030
0060
0180
0200
ENDCHAR
STARTCHAR 0228
ENCODING 552
SWIDTH 694 0
DWIDTH 25 0
BBX 21 34 2 -8
BITMAP
FFFFF8
0E0078
0E0038
0E0018
0E0018
0E0008
0E0008
0E0408
0E0400
0E0400
0E0C00
0E0C00
0FFC00
0E0C00
0E0400
0E0400
0E0408
0E0408
0E0008
0E0008
0E0018
0E0018
0E0038
0E0038
0E00F8
FFFFF8
001000
001000
003C00
000F00
000700
000700
008700
007C00
ENDCHAR
STARTCHAR 0229
ENCODING 553
SWIDTH 472 0
DWIDTH 17 0
BBX 13 24 2 -7
BITMAP
0F80
18E0
3060
7070
6030
E038
E038
FFF8
E000
E000
E000
E010
7010
7010
3020
1860
0F80
0200
0600
0180
00C0
00C0
11C0
0F80
ENDCHAR
STARTCHAR 0232
ENCODING 562
SWIDTH 750 0
DWIDTH 27 0
BBX 24 31 2 0
BITMAP
00FFC0
000000
000000
000000
000000
FFE1FF
1F0038
0F0030
078030
078020
03C020
03C040
01E080
00E080
00F100
007100
007A00
003A00
003C00
001C00
001C00
001C00
001C00
001C00
001C00
001C00
001C00
001C00
001C00
001C00
01FFE0
ENDCHAR
STARTCHAR 0233
ENCODING 563
SWIDTH 527 0
DWIDTH 19 0
BBX 18 31 1 -8
BITMAP
07FC00
000000
000000
000000
000000
000000
FF1FC0
1C0600
1C0600
0E0400
0E0400
0E0C00
070800
070800
070800
039000
039000
039000
01E000
01E000
00E000
00C000
00C000
004000
008000
008000
708000
718000
710000
720000
3C0000
ENDCHAR
STARTCHAR 0237
ENCODING 567
SWIDTH 333 0
DWIDTH 12 0
BBX 9 25 -1 -8
BITMAP
1F80
0380
0380
0380
0380
0380
0380
0380
0380
0380
0380
0380
0380
0380
0380
0380
0380
0380
0380
4380
E380
E300
C700
4600
3C00
ENDCHAR
STARTCHAR 0243
ENCODING 579
SWIDTH 694 0
DWIDTH 25 0
BBX 21 26 2 0
BITMAP
FFFE00
0E0380
0E00C0
0E00E0
0E0070
0E0070
0E0070
0E0070
0E0070
0E00E0
0E00C0
0E0180
0FFE00
0E0380
0E00E0
0E00F0
0E0070
0E0078
FFE078
0E0078
0E0078
0E0070
0E00F0
0E00E0
0E03C0
FFFF00
ENDCHAR
STARTCHAR 0254
ENCODING 596
SWIDTH 416 0
DWIDTH 15 0
BBX 12 17 2 0
BITMAP
1F00
21C0
40E0
8060
8070
8070
0070
0070
0070
0070
6070
F070
E060
C0E0
40C0
6180
1F00
ENDCHAR
STARTCHAR 0259
ENCODING 601
SWIDTH 472 0
DWIDTH 17 0
BBX 13 17 2 0
BITMAP
1F80
30C0
4060
4070
8030
8038
0038
0038
FFF8
E038
E038
E038
7030
7070
3060
18C0
0F80
ENDCHAR
STARTCHAR 025B
ENCODING 603
SWIDTH 444 0
DWIDTH 16 0
BBX 13 17 2 0
BITMAP
0FC0
3830
7038
E038
E038
E038
E000
7000
1F00
3000
7000
E038
E038
E018
F018
7830
1FC0
ENDCHAR
STARTCHAR 0280
ENCODING 640
SWIDTH 527 0
DWIDTH 19 0
BBX 16 17 2 0
BITMAP
FFE0
3870
3838
3838
3838
3838
3870
3F80
3860
3830
3830
3838
3838
3839
3839
383A
FE1E
ENDCHAR
STARTCHAR 0292
ENCODING 658
SWIDTH 444 0
DWIDTH 16 0
BBX 14 25 1 -8
BITMAP
7FF8
7FF8
7FF0
6020
4040
40C0
4080
0100
0200
0400
0FC0
0870
1038
0038
001C
001C
001C
601C
F01C
F01C
E01C
C038
4030
2060
1F80
ENDCHAR
STARTCHAR 02BB
ENCODING 699
SWIDTH 166 0
DWIDTH 6 0
BBX 4 9 1 18
BITMAP
10
20
40
80
C0
F0
F0
F0
60
ENDCHAR
STARTCHAR 02BC
ENCODING 700
SWIDTH 166 0
DWIDTH 6 0
BBX 4 9 1 17
BITMAP
60
F0
F0
F0
30
20
20
40
80
ENDCHAR
STARTCHAR 02BD
ENCODING 701
SWIDTH 166 0
DWIDTH 6 0
BBX 4 9 1 17
BITMAP
60
F0
F0
F0
C0
80
40
20
10
ENDCHAR
STARTCHAR 02BE
ENCODING 702
SWIDTH 222 0
DWIDTH 8 0
BBX 4 8 2 18
BITMAP
C0
20
10
10
10
10
20
C0
ENDCHAR
STARTCHAR 02BF
ENCODING 703
SWIDTH 222 0
DWIDTH 8 0
BBX 4 8 2 18
BITMAP
30
40
80
80
80
80
40
30
ENDCHAR
STARTCHAR 02C6
ENCODING 710
SWIDTH 444 0
DWIDTH 16 0
BBX 10 6 3 18
BITMAP
0C00
0C00
1E00
3200
6100
80C0
ENDCHAR
STARTCHAR 02C7
ENCODING 711
SWIDTH 444 0
DWIDTH 16 0
BBX 10 6 3 18
BITMAP
8040
4180
3300
3E00
1E00
0C00
ENDCHAR
STARTCHAR 02C9
ENCODING 713
SWIDTH 416 0
DWIDTH 15 0
BBX 9 1 3 21
BITMAP
FF80
ENDCHAR
STARTCHAR 02CA
ENCODING 714
SWIDTH 444 0
DWIDTH 16 0
BBX 6 6 7 19
BITMAP
0C
1C
38
30
60
C0
ENDCHAR
STARTCHAR 02CB
ENCODING 715
SWIDTH 444 0
DWIDTH 16 0
BBX 6 6 3 19
BITMAP
C0
E0
70
30
18
0C
ENDCHAR
STARTCHAR 02D8
ENCODING 728
SWIDTH 444 0
DWIDTH 16 0
BBX 10 5 3 19
BITMAP
8040
8040
4080
2100
1E00
ENDCHAR
STARTCHAR 02D9
ENCODING 729
SWIDTH 416 0
DWIDTH 15 0
BBX 3 4 6 20
BITMAP
60
E0
E0
60
ENDCHAR
STARTCHAR 02DA
ENCODING 730
SWIDTH 416 0
DWIDTH 15 0
BBX 7 7 4 18
BITMAP
38
44
82
82
82
44
38
ENDCHAR
STARTCHAR 02DB
ENCODING 731
SWIDTH 444 0
DWIDTH 16 0
BBX 6 9 3 -8
BITMAP
08
10
20
60
C0
C0
C4
F8
70
ENDCHAR
STARTCHAR 02DC
ENCODING 732
SWIDTH 444 0
DWIDTH 16 0
BBX 10 3 3 20
BITMAP
7840
FFC0
8780
ENDCHAR
STARTCHAR 02DD
ENCODING 733
SWIDTH 472 0
DWIDTH 17 0
BBX 11 6 5 19
BITMAP
0C60
1CE0
39C0
3180
6300
C400
ENDCHAR
STARTCHAR 0300
ENCODING 768
SWIDTH 0 0
DWIDTH 0 0
BBX 6 6 -15 19
BITMAP
C0
E0
70
30
18
0C
ENDCHAR
STARTCHAR 0301
ENCODING 769
SWIDTH 0 0
DWIDTH 0 0
BBX 6 6 -10 19
BITMAP
0C
1C
38
30
60
C0
ENDCHAR
STARTCHAR 0302
ENCODING 770
SWIDTH 0 0
DWIDTH 0 0
BBX 9 6 -14 18
BITMAP
0800
1C00
1C00
3600
4100
8080
ENDCHAR
STARTCHAR 0303
ENCODING 771
SWIDTH 0 0
DWIDTH 0 0
BBX 10 3 -14 20
BITMAP
7840
FFC0
8780
ENDCHAR
STARTCHAR 0304
ENCODING 772
SWIDTH 0 0
DWIDTH 0 0
BBX 9 1 -14 21
BITMAP
FF80
ENDCHAR
STARTCHAR 0305
ENCODING 773
SWIDTH 0 0
DWIDTH 0 0
BBX 19 1 -19 30
BITMAP
FFFFE0
ENDCHAR
STARTCHAR 0306
ENCODING 774
SWIDTH 0 0
DWIDTH 0 0
BBX 10 5 -14 19
BITMAP
8040
8040
4080
2100
1E00
ENDCHAR
STARTCHAR 0307
ENCODING 775
SWIDTH 0 0
DWIDTH 0 0
BBX 3 4 -11 20
BITMAP
60
E0
E0
60
ENDCHAR
STARTCHAR 0308
ENCODING 776
SWIDTH 0 0
DWIDTH 0 0
BBX 10 4 -15 20
BITMAP
60C0
E1C0
E1C0
60C0
ENDCHAR
STARTCHAR 030A
ENCODING 778
SWIDTH 0 0
DWIDTH 0 0
BBX 7 7 -13 18
BITMAP
38
44
82
82
82
44
38
ENDCHAR
STARTCHAR 030B
ENCODING 779
SWIDTH 0 0
DWIDTH 0 0
BBX 11 6 -13 19
BITMAP
0C60
1CE0
39C0
3180
6300
C400
ENDCHAR
STARTCHAR 030C
ENCODING 780
SWIDTH 0 0
DWIDTH 0 0
BBX 9 6 -14 18
BITMAP
8080
4180
6300
3600
1C00
1C00
ENDCHAR
STARTCHAR 030F
ENCODING 783
SWIDTH 0 0
DWIDTH 0 0
BBX 11 6 -17 19
BITMAP
C600
E700
7380
3180
18C0
0460
ENDCHAR
STARTCHAR 0311
ENCODING 785
SWIDTH 0 0
DWIDTH 0 0
BBX 9 5 -14 19
BITMAP
1C00
3E00
6300
4180
8080
ENDCHAR
STARTCHAR 0312
ENCODING 786
SWIDTH 0 0
DWIDTH 0 0
BBX 4 9 -11 18
BITMAP
10
20
40
80
C0
F0
F0
F0
60
ENDCHAR
STARTCHAR 0313
ENCODING 787
SWIDTH 0 0
DWIDTH 0 0
BBX 4 9 -11 17
BITMAP
60
F0
F0
F0
30
20
20
40
80
ENDCHAR
STARTCHAR 0314
ENCODING 788
SWIDTH 0 0
DWIDTH 0 0
BBX 4 9 -11 17
BITMAP
60
F0
F0
F0
C0
80
40
20
10
ENDCHAR
STARTCHAR 0316
ENCODING 790
SWIDTH 0 0
DWIDTH 0 0
BBX 6 6 -15 -8
BITMAP
C0
E0
70
30
18
0C
ENDCHAR
STARTCHAR 0317
ENCODING 791
SWIDTH 0 0
DWIDTH 0 0
BBX 6 6 -10 -8
BITMAP
0C
1C
38
30
60
C0
ENDCHAR
STARTCHAR 0323
ENCODING 803
SWIDTH 0 0
DWIDTH 0 0
BBX 3 4 -11 -7
BITMAP
60
E0
E0
60
ENDCHAR
STARTCHAR 0324
ENCODING 804
SWIDTH 0 0
DWIDTH 0 0
BBX 10 4 -15 -7
BITMAP
60C0
E1C0
E1C0
60C0
ENDCHAR
STARTCHAR 0325
ENCODING 805
SWIDTH 0 0
DWIDTH 0 0
BBX 7 7 -13 -8
BITMAP
38
44
82
82
82
44
38
ENDCHAR
STARTCHAR 0326
ENCODING 806
SWIDTH 0 0
DWIDTH 0 0
BBX 3 7 -11 -9
BITMAP
E0
E0
E0
20
20
40
80
ENDCHAR
STARTCHAR 0327
ENCODING 807
SWIDTH 0 0
DWIDTH 0 0
BBX 7 7 -13 -8
BITMAP
10
20
1C
06
06
86
7C
ENDCHAR
STARTCHAR 0328
ENCODING 808
SWIDTH 0 0
DWIDTH 0 0
BBX 6 9 -14 -8
BITMAP
08
10
20
60
C0
C0
C4
F8
70
ENDCHAR
STARTCHAR 032C
ENCODING 812
SWIDTH 0 0
DWIDTH 0 0
BBX 9 6 -14 -8
BITMAP
8080
4180
6300
3600
1C00
1C00
ENDCHAR
STARTCHAR 032D
ENCODING 813
SWIDTH 0 0
DWIDTH 0 0
BBX 9 6 -14 -9
BITMAP
0800
1C00
1C00
3600
4100
8080
ENDCHAR
STARTCHAR 032E
ENCODING 814
SWIDTH 0 0
DWIDTH 0 0
BBX 10 5 -14 -8
BITMAP
8040
8040
4080
6180
1E00
ENDCHAR
STARTCHAR 032F
ENCODING 815
SWIDTH 0 0
DWIDTH 0 0
BBX 9 5 -14 -8
BITMAP
1C00
3E00
6300
4180
8080
ENDCHAR
STARTCHAR 0330
ENCODING 816
SWIDTH 0 0
DWIDTH 0 0
BBX 10 3 -14 -7
BITMAP
7840
FFC0
8780
ENDCHAR
STARTCHAR 0331
ENCODING 817
SWIDTH 0 0
DWIDTH 0 0
BBX 9 1 -14 -6
BITMAP
FF80
ENDCHAR
STARTCHAR 0332
ENCODING 818
SWIDTH 0 0
DWIDTH 0 0
BBX 19 1 -19 -6
BITMAP
FFFFE0
ENDCHAR
STARTCHAR 0333
ENCODING 819
SWIDTH 0 0
DWIDTH 0 0
BBX 19 5 -19 -10
BITMAP
FFFFE0
000000
000000
000000
FFFFE0
ENDCHAR
STARTCHAR 033E
ENCODING 830
SWIDTH 0 0
DWIDTH 0 0
BBX 3 7 -11 20
BITMAP
E0
60
60
E0
C0
C0
E0
ENDCHAR
STARTCHAR 0342
ENCODING 834
SWIDTH 0 0
DWIDTH 0 0
BBX 12 5 -16 20
BITMAP
7860
CC70
C630
E330
61C0
ENDCHAR
STARTCHAR 0343
ENCODING 835
SWIDTH 0 0
DWIDTH 0 0
BBX 4 8 -11 19
BITMAP
E0
F0
F0
10
10
10
20
40
ENDCHAR
STARTCHAR 0344
ENCODING 836
SWIDTH 0 0
DWIDTH 0 0
BBX 11 9 -15 19
BITMAP
0180
0380
0380
0300
0700
6660
E4E0
E8E0
6060
ENDCHAR
STARTCHAR 0345
ENCODING 837
SWIDTH 0 0
DWIDTH 0 0
BBX 3 7 -11 -10
BITMAP
40
40
60
E0
E0
E0
E0
ENDCHAR
STARTCHAR 0351
ENCODING 849
SWIDTH 0 0
DWIDTH 0 0
BBX 4 8 -11 18
BITMAP
30
40
80
80
80
80
40
30
ENDCHAR
STARTCHAR 0357
ENCODING 855
SWIDTH 0 0
DWIDTH 0 0
BBX 4 8 -11 18
BITMAP
C0
20
10
10
10
10
20
C0
ENDCHAR
STARTCHAR 0359
ENCODING 857
SWIDTH 0 0
DWIDTH 0 0
BBX 8 9 -13 -10
BITMAP
18
18
D3
D7
38
F7
D3
18
18
ENDCHAR
STARTCHAR 035C
ENCODING 860
SWIDTH 0 0
DWIDTH 0 0
BBX 22 5 -11 -8
BITMAP
800004
600018
1E01E0
07FF80
00FC00
ENDCHAR
STARTCHAR 035D
ENCODING 861
SWIDTH 0 0
DWIDTH 0 0
BBX 20 4 -10 24
BITMAP
800010
7000E0
1FFF80
07FE00
ENDCHAR
STARTCHAR 0361
ENCODING 865
SWIDTH 0 0
DWIDTH 0 0
BBX 22 5 -11 25
BITMAP
01FE00
07FF80
1E01E0
600018
800004
ENDCHAR
STARTCHAR 0363
ENCODING 867
SWIDTH 0 0
DWIDTH 0 0
BBX 10 10 -14 19
BITMAP
3C00
4200
4300
6300
0300
3F00
C300
C340
C740
7980
ENDCHAR
STARTCHAR 0364
ENCODING 868
SWIDTH 0 0
DWIDTH 0 0
BBX 8 10 -14 19
BITMAP
3C
66
43
C3
FF
C0
C1
41
62
3C
ENDCHAR
STARTCHAR 0365
ENCODING 869
SWIDTH 0 0
DWIDTH 0 0
BBX 5 14 -12 19
BITMAP
70
70
20
00
F0
30
30
30
30
30
30
30
30
F8
ENDCHAR
STARTCHAR 0366
ENCODING 870
SWIDTH 0 0
DWIDTH 0 0
BBX 9 10 -14 19
BITMAP
1C00
6300
6300
C180
C180
C180
C180
4300
6300
1C00
ENDCHAR
STARTCHAR 0367
ENCODING 871
SWIDTH 0 0
DWIDTH 0 0
BBX 10 10 -15 19
BITMAP
E780
6180
6180
6180
6180
6180
6180
6380
6580
39C0
ENDCHAR
STARTCHAR 0368
ENCODING 872
SWIDTH 0 0
DWIDTH 0 0
BBX 8 10 -14 19
BITMAP
1C
63
41
C3
C0
C0
C0
41
62
1C
ENDCHAR
STARTCHAR 0369
ENCODING 873
SWIDTH 0 0
DWIDTH 0 0
BBX 9 15 -15 19
BITMAP
0F00
0300
0300
0300
0300
3B00
6700
C300
C300
C300
C300
C300
C300
6700
3B80
ENDCHAR
STARTCHAR 036A
ENCODING 874
SWIDTH 0 0
DWIDTH 0 0
BBX 11 14 -15 19
BITMAP
F000
3000
3000
3000
3380
3C80
30C0
30C0
30C0
30C0
30C0
30C0
30C0
F9E0
ENDCHAR
STARTCHAR 036B
ENCODING 875
SWIDTH 0 0
DWIDTH 0 0
BBX 15 10 -17 19
BITMAP
EE70
7398
6318
6318
6318
6318
6318
6318
6318
F7BE
ENDCHAR
STARTCHAR 036C
ENCODING 876
SWIDTH 0 0
DWIDTH 0 0
BBX 7 10 -12 19
BITMAP
E6
7A
76
60
60
60
60
60
60
F0
ENDCHAR
STARTCHAR 036D
ENCODING 877
SWIDTH 0 0
DWIDTH 0 0
BBX 7 12 -13 19
BITMAP
10
10
30
FC
30
30
30
30
30
32
32
1C
ENDCHAR
STARTCHAR 036E
ENCODING 878
SWIDTH 0 0
DWIDTH 0 0
BBX 11 10 -15 19
BITMAP
F9E0
3080
3080
3900
1900
1900
0E00
0E00
0400
0400
ENDCHAR
STARTCHAR 036F
ENCODING 879
SWIDTH 0 0
DWIDTH 0 0
BBX 10 10 -14 19
BITMAP
FBC0
3100
3200
1C00
0C00
0C00
1600
2300
2300
F7C0
ENDCHAR
STARTCHAR 0374
ENCODING 884
SWIDTH 250 0
DWIDTH 9 0
BBX 6 7 1 19
BITMAP
1C
1C
38
30
60
60
C0
ENDCHAR
STARTCHAR 0375
ENCODING 885
SWIDTH 250 0
DWIDTH 9 0
BBX 6 8 1 -10
BITMAP
04
08
18
30
70
E0
E0
C0
ENDCHAR
STARTCHAR 037A
ENCODING 890
SWIDTH 416 0
DWIDTH 15 0
BBX 3 7 6 -10
BITMAP
40
40
40
E0
E0
E0
E0
ENDCHAR
STARTCHAR 037E
ENCODING 894
SWIDTH 305 0
DWIDTH 11 0
BBX 5 23 3 -6
BITMAP
70
F8
F8
F8
70
00
00
00
00
00
00
00
70
F8
F8
78
18
18
18
10
30
20
40
ENDCHAR
STARTCHAR 0384
ENCODING 900
SWIDTH 250 0
DWIDTH 9 0
BBX 4 7 4 19
BITMAP
70
70
60
E0
C0
80
80
ENDCHAR
STARTCHAR 0385
ENCODING 901
SWIDTH 416 0
DWIDTH 15 0
BBX 11 9 2 19
BITMAP
0180
0380
0300
0300
0200
66C0
F5E0
F1E0
60C0
ENDCHAR
STARTCHAR 0386
ENCODING 902
SWIDTH 805 0
DWIDTH 29 0
BBX 25 26 3 1
BITMAP
18080000
180C0000
381C0000
301C0000
201E0000
603E0000
402E0000
002F0000
00670000
00670000
00478000
00C38000
00C38000
0183C000
0181C000
0181C000
0301E000
03FFE000
0200E000
0600F000
06007000
04007000
0C007800
0C003800
1E007C00
FFC3FF80
ENDCHAR
STARTCHAR 0387
ENCODING 903
SWIDTH 305 0
DWIDTH 11 0
BBX 5 5 3 13
BITMAP
70
F8
F8
F8
70
ENDCHAR
STARTCHAR 0388
ENCODING 904
SWIDTH 916 0
DWIDTH 33 0
BBX 28 26 3 1
BITMAP
31FFFFF0
31FFFFF0
701C00F0
601C0070
401C0030
C01C0010
801C0010
001C0810
001C0800
001C0800
001C1800
001C1800
001FF800
001FF800
001C1800
001C0800
001C0810
001C0810
001C0010
001C0010
001C0030
001C0030
001C0030
001C0070
001C01F0
01FFFFF0
ENDCHAR
STARTCHAR 0389
ENCODING 905
SWIDTH 1027 0
DWIDTH 37 0
BBX 32 26 3 1
BITMAP
38FFC3FF
38FFC3FF
300E0038
700E0038
600E0038
400E0038
C00E0038
000E0038
000E0038
000E0038
000E0038
000FFFF8
000FFFF8
000E0038
000E0038
000E0038
000E0038
000E0038
000E0038
000E0038
000E0038
000E0038
000E0038
000E0038
00FFC3FF
00FFC3FF
ENDCHAR
STARTCHAR 038A
ENCODING 906
SWIDTH 638 0
DWIDTH 23 0
BBX 17 26 4 1
BITMAP
71FF80
71FF80
601C00
E01C00
C01C00
801C00
801C00
001C00
001C00
001C00
001C00
001C00
001C00
001C00
001C00
001C00
001C00
001C00
001C00
001C00
001C00
001C00
001C00
001C00
01FF80
01FF80
ENDCHAR
STARTCHAR 038C
ENCODING 908
SWIDTH 861 0
DWIDTH 31 0
BBX 26 26 3 1
BITMAP
381FE000
38301800
30600C00
70E00E00
61C00700
41C00700
C3C00780
03800380
03800380
078003C0
078003C0
078003C0
078003C0
078003C0
078003C0
078003C0
078003C0
03800380
03800380
03C00780
01C00700
01C00700
00E00E00
00600C00
00301800
001FF000
ENDCHAR
STARTCHAR 038E
ENCODING 910
SWIDTH 888 0
DWIDTH 32 0
BBX 28 26 3 1
BITMAP
38E007E0
383008F0
300C19F0
700E11F0
600721E0
40032000
C003A000
0001C000
0001C000
0001C000
0001C000
0001C000
0001C000
0001C000
0001C000
0001C000
0001C000
0001C000
0001C000
0001C000
0001C000
0001C000
0001C000
0001C000
0001C000
003FFC00
ENDCHAR
STARTCHAR 038F
ENCODING 911
SWIDTH 861 0
DWIDTH 31 0
BBX 26 26 3 1
BITMAP
301FF000
30701C00
70E00E00
61C00700
43C00780
C3C00780
878003C0
078003C0
078003C0
078003C0
078003C0
078003C0
078003C0
03800780
03C00780
01C00700
00E00E00
00701C00
041C7040
0204C080
0204C080
0204C080
0204C080
03FCFF80
03FCFF80
03FCFF80
ENDCHAR
STARTCHAR 0390
ENCODING 912
SWIDTH 305 0
DWIDTH 11 0
BBX 11 28 0 0
BITMAP
0180
0380
0380
0300
0600
66C0
F5E0
F9E0
60C0
0000
0000
0C00
1E00
1C00
1C00
1C00
1C00
1800
1800
1800
1000
1000
1000
1000
1180
1B80
0F80
0700
ENDCHAR
STARTCHAR 0391
ENCODING 913
SWIDTH 777 0
DWIDTH 28 0
BBX 25 26 2 0
BITMAP
00080000
000C0000
001C0000
001C0000
001E0000
003E0000
002E0000
002F0000
00670000
00670000
00C78000
00C38000
00C38000
0183C000
0181C000
0181C000
0301E000
03FFE000
0200E000
0600F000
06007000
0C007000
0C007800
1C003800
FFC3FF80
FFC3FF80
ENDCHAR
STARTCHAR 0392
ENCODING 914
SWIDTH 694 0
DWIDTH 25 0
BBX 20 26 3 0
BITMAP
FFFC00
1C0700
1C0180
1C01C0
1C00E0
1C00E0
1C00E0
1C00E0
1C00E0
1C01C0
1C0180
1C0300
1FFC00
1C0700
1C01C0
1C01E0
1C00E0
1C00F0
1C00F0
1C00F0
1C00F0
1C00F0
1C01E0
1C01C0
1C0780
FFFE00
ENDCHAR
STARTCHAR 0393
ENCODING 915
SWIDTH 638 0
DWIDTH 23 0
BBX 19 26 2 0
BITMAP
FFFFE0
FFFFE0
0E01E0
0E00E0
0E0060
0E0060
0E0020
0E0020
0E0020
0E0020
0E0000
0E0000
0E0000
0E0000
0E0000
0E0000
0E0000
0E0000
0E0000
0E0000
0E0000
0E0000
0E0000
0E0000
FFE000
FFE000
ENDCHAR
STARTCHAR 0394
ENCODING 916
SWIDTH 638 0
DWIDTH 23 0
BBX 20 26 2 0
BITMAP
004000
006000
00E000
00F000
00F000
01F000
017800
013800
023800
023C00
061C00
041E00
041E00
0C0E00
080F00
080700
100700
100780
300380
2003C0
2003C0
6001C0
4001E0
7FFFE0
FFFFF0
FFFFF0
ENDCHAR
STARTCHAR 0395
ENCODING 917
SWIDTH 694 0
DWIDTH 25 0
BBX 21 26 2 0
BITMAP
FFFFF8
FFFFF8
0E0078
0E0038
0E0018
0E0008
0E0008
0E0408
0E0400
0E0400
0E0C00
0E0C00
0FFC00
0FFC00
0E0C00
0E0400
0E0408
0E0408
0E0008
0E0008
0E0018
0E0018
0E0038
0E0038
0E00F8
FFFFF8
ENDCHAR
STARTCHAR 0396
ENCODING 918
SWIDTH 638 0
DWIDTH 23 0
BBX 19 26 2 0
BITMAP
3FFFE0
3FFFE0
3803C0
700780
600780
600F00
400E00
401E00
403C00
403800
007800
00F000
00F000
01E000
03C000
03C000
078020
0F0020
0F0060
1E0060
3C0060
3C00E0
7801E0
7003E0
FFFFC0
FFFFC0
ENDCHAR
STARTCHAR 0397
ENCODING 919
SWIDTH 777 0
DWIDTH 28 0
BBX 24 26 2 0
BITMAP
FFC3FF
FFC3FF
0E0038
0E0038
0E0038
0E0038
0E0038
0E0038
0E0038
0E0038
0E0038
0FFFF8
0FFFF8
0E0038
0E0038
0E0038
0E0038
0E0038
0E0038
0E0038
0E0038
0E0038
0E0038
0E0038
FFC3FF
FFC3FF
ENDCHAR
STARTCHAR 0398
ENCODING 920
SWIDTH 722 0
DWIDTH 26 0
BBX 21 26 3 1
BITMAP
03FC00
060300
0C0180
1C01C0
3800E0
3800E0
7800F0
700070
720270
F20278
F20278
F3FE78
F3FE78
F3FE78
F20278
F20278
F20278
700070
700070
7800F0
3800E0
3800E0
1C01C0
0C0180
060300
03FE00
ENDCHAR
STARTCHAR 0399
ENCODING 921
SWIDTH 388 0
DWIDTH 14 0
BBX 10 26 2 0
BITMAP
FFC0
FFC0
0E00
0E00
0E00
0E00
0E00
0E00
0E00
0E00
0E00
0E00
0E00
0E00
0E00
0E00
0E00
0E00
0E00
0E00
0E00
0E00
0E00
0E00
FFC0
FFC0
ENDCHAR
STARTCHAR 039A
ENCODING 922
SWIDTH 777 0
DWIDTH 28 0
BBX 24 26 2 0
BITMAP
FFC7FE
FFC7FE
0E00F0
0E00E0
0E01C0
0E0180
0E0300
0E0600
0E0C00
0E1800
0E3800
0E7C00
0EBC00
0F3E00
0E1E00
0E0F00
0E0F00
0E0780
0E07C0
0E03C0
0E03E0
0E01E0
0E01F0
0E00F8
FFC7FF
FFC7FF
ENDCHAR
STARTCHAR 039B
ENCODING 923
SWIDTH 777 0
DWIDTH 28 0
BBX 25 26 2 0
BITMAP
00080000
000C0000
001C0000
001C0000
001E0000
003E0000
002E0000
002F0000
00670000
00470000
00C78000
00C38000
00838000
0183C000
0181C000
0101C000
0301E000
0300E000
0200E000
0600F000
06007000
0C007000
0C007800
1C003800
FFC3FF80
FFC3FF80
ENDCHAR
STARTCHAR 039C
ENCODING 924
SWIDTH 833 0
DWIDTH 30 0
BBX 26 26 2 0
BITMAP
FF001FC0
FF001FC0
1F801E00
1F803E00
1B803E00
1BC02E00
1BC06E00
1BC06E00
19C04E00
19E04E00
19E0CE00
18E08E00
18F08E00
18F18E00
18718E00
18710E00
18790E00
183B0E00
183A0E00
183E0E00
181E0E00
181C0E00
181C0E00
1C0C0E00
FF8CFFC0
FF88FFC0
ENDCHAR
STARTCHAR 039D
ENCODING 925
SWIDTH 777 0
DWIDTH 28 0
BBX 25 26 2 0
BITMAP
FE00FF80
FF00FF80
1F801C00
1F801800
1FC01800
1BC01800
19E01800
19F01800
18F01800
18F81800
18781800
183C1800
183E1800
181E1800
180F1800
180F1800
18079800
1803D800
1803D800
1801F800
1800F800
1800F800
18007800
1C003800
FF803800
FF801800
ENDCHAR
STARTCHAR 039E
ENCODING 926
SWIDTH 666 0
DWIDTH 24 0
BBX 19 26 3 0
BITMAP
FFFFE0
FFFFE0
FFFFE0
800020
800020
800020
800020
800020
080200
080200
080200
0FFE00
0FFE00
0FFE00
080200
080200
080200
000000
800020
800020
800020
800020
800020
FFFFE0
FFFFE0
FFFFE0
ENDCHAR
STARTCHAR 039F
ENCODING 927
SWIDTH 722 0
DWIDTH 26 0
BBX 21 26 3 1
BITMAP
03FC00
060300
0C0180
1C01C0
3800E0
3800E0
7800F0
700070
700070
F00078
F00078
F00078
F00078
F00078
F00078
F00078
F00078
700070
700070
7800F0
3800E0
3800E0
1C01C0
0C0180
060300
03FE00
ENDCHAR
STARTCHAR 03A0
ENCODING 928
SWIDTH 777 0
DWIDTH 28 0
BBX 24 26 2 0
BITMAP
FFFFFF
FFFFFF
0E0038
0E0038
0E0038
0E0038
0E0038
0E0038
0E0038
0E0038
0E0038
0E0038
0E0038
0E0038
0E0038
0E0038
0E0038
0E0038
0E0038
0E0038
0E0038
0E0038
0E0038
0E0038
FFC3FF
FFC3FF
ENDCHAR
STARTCHAR 03A1
ENCODING 929
SWIDTH 694 0
DWIDTH 25 0
BBX 21 26 2 0
BITMAP
FFFF00
0E01C0
0E00E0
0E00F0
0E0078
0E0078
0E0078
0E0078
0E0078
0E0078
0E00F0
0E00E0
0E03C0
0FFF00
0E0000
0E0000
0E0000
0E0000
0E0000
0E0000
0E0000
0E0000
0E0000
0E0000
FFE000
FFE000
ENDCHAR
STARTCHAR 03A3
ENCODING 931
SWIDTH 638 0
DWIDTH 23 0
BBX 19 26 2 0
BITMAP
7FFFC0
7FFFC0
7803C0
3C01C0
1E00C0
1E00C0
0F0040
070040
078040
03C000
01C000
01E000
00F000
00E000
004000
008000
018020
030060
060060
0C0060
080060
1000E0
2000E0
7FFFE0
FFFFE0
FFFFE0
ENDCHAR
STARTCHAR 03A4
ENCODING 932
SWIDTH 722 0
DWIDTH 26 0
BBX 21 26 3 0
BITMAP
FFFFF8
FFFFF8
F07078
E07038
C07018
C07018
C07018
807008
807008
807008
007000
007000
007000
007000
007000
007000
007000
007000
007000
007000
007000
007000
007000
007000
07FF80
07FF80
ENDCHAR
STARTCHAR 03A5
ENCODING 933
SWIDTH 638 0
DWIDTH 23 0
BBX 20 26 2 1
BITMAP
E007E0
3808F0
0C19F0
0611F0
0721E0
032000
03A000
01C000
01C000
01C000
01C000
01C000
01C000
01C000
01C000
01C000
01C000
01C000
01C000
01C000
01C000
01C000
01C000
01C000
01C000
3FFC00
ENDCHAR
STARTCHAR 03A6
ENCODING 934
SWIDTH 833 0
DWIDTH 30 0
BBX 27 26 2 0
BITMAP
01FFE000
01FFE000
000E0000
000E0000
000E0000
03FFF800
0E0E0E00
3C0E0780
780E03C0
780E03C0
F00E01E0
F00E01E0
F00E01E0
F00E01E0
F00E01E0
F00E01E0
780E03C0
780E03C0
3C0E0780
0E0E0E00
03FFF800
000E0000
000E0000
000E0000
01FFE000
01FFE000
ENDCHAR
STARTCHAR 03A7
ENCODING 935
SWIDTH 750 0
DWIDTH 27 0
BBX 24 26 2 0
BITMAP
FFE3FF
FFE3FF
0F8070
078060
03C040
03C0C0
01E180
01E300
00F200
007600
007C00
003800
003C00
003E00
003E00
004F00
00CF00
008780
018780
0303C0
0201C0
0601E0
0E00E0
1E00F0
FFC7FF
FFC7FF
ENDCHAR
STARTCHAR 03A8
ENCODING 936
SWIDTH 861 0
DWIDTH 31 0
BBX 28 26 2 1
BITMAP
F07FE3E0
380E07F0
1C0E06F0
1C0E04F0
1E0E0CF0
1E0E0C70
1E0E0C00
1E0E0C00
1E0E0C00
1E0E0C00
1E0E0C00
1E0E0C00
1E0E0C00
0E0E0C00
0E0E0800
060E1800
070E1800
030E3000
018E6000
007F8000
000E0000
000E0000
000E0000
000E0000
007FE000
007FE000
ENDCHAR
STARTCHAR 03A9
ENCODING 937
SWIDTH 722 0
DWIDTH 26 0
BBX 21 26 3 1
BITMAP
03FE00
0E0380
1C01C0
3800E0
7800F0
7800F0
F00078
F00078
F00078
F00078
F00078
F00078
F00078
7000F0
7800F0
3800E0
1C01C0
0E0380
838E08
409810
409810
409810
409810
7F9FF0
7F9FF0
7F9FF0
ENDCHAR
STARTCHAR 03AA
ENCODING 938
SWIDTH 388 0
DWIDTH 14 0
BBX 11 33 2 0
BITMAP
60C0
F1E0
F1E0
60C0
0000
0000
0000
7FE0
7FE0
0E00
0E00
0E00
0E00
0E00
0E00
0E00
0E00
0E00
0E00
0E00
0E00
0E00
0E00
0E00
0E00
0E00
0E00
0E00
0E00
0E00
0E00
7FE0
7FE0
ENDCHAR
STARTCHAR 03AB
ENCODING 939
SWIDTH 638 0
DWIDTH 23 0
BBX 20 33 2 0
BITMAP
0C1800
1E3C00
1E3C00
0C1800
000000
000000
000000
E007E0
3008F0
0C19F0
0611F0
0621E0
032000
03E000
01C000
01C000
01C000
01C000
01C000
01C000
01C000
01C000
01C000
01C000
01C000
01C000
01C000
01C000
01C000
01C000
01C000
01C000
3FFC00
ENDCHAR
STARTCHAR 03AC
ENCODING 940
SWIDTH 555 0
DWIDTH 20 0
BBX 17 26 2 1
BITMAP
003000
007000
007000
006000
00C000
00C000
008000
000000
000000
070700
1F8700
3FCE00
384E00
704C00
603C00
C03800
C03800
C03000
807000
807000
80F000
80D000
81C800
438F80
3F0F80
1E0700
ENDCHAR
STARTCHAR 03AD
ENCODING 941
SWIDTH 444 0
DWIDTH 16 0
BBX 12 26 2 1
BITMAP
01C0
01C0
0180
0380
0300
0200
0600
0000
0000
1F80
3FE0
70E0
E000
C000
C000
4F80
3FC0
4F80
C000
C000
C000
C010
F030
7FE0
3FE0
0F80
ENDCHAR
STARTCHAR 03AE
ENCODING 942
SWIDTH 555 0
DWIDTH 20 0
BBX 17 36 1 -9
BITMAP
001800
003800
003000
003000
006000
006000
004000
000000
000000
701C00
F87F00
8CF100
04E080
05C080
05C080
038080
038080
038080
030080
070080
070080
070080
070080
070180
0E0180
060180
000180
000380
000380
000380
000780
000780
000780
000780
000780
000300
ENDCHAR
STARTCHAR 03AF
ENCODING 943
SWIDTH 305 0
DWIDTH 11 0
BBX 6 26 3 1
BITMAP
1C
1C
18
38
30
20
60
00
00
60
E0
E0
E0
E0
E0
C0
C0
C0
80
80
80
80
8C
DC
7C
38
ENDCHAR
STARTCHAR 03B0
ENCODING 944
SWIDTH 500 0
DWIDTH 18 0
BBX 14 28 2 0
BITMAP
0180
0380
0300
0300
0200
66C0
F5E0
F1E0
60C0
0000
0000
7040
7020
7030
7010
2018
2018
601C
401C
401C
401C
401C
403C
4038
2078
2070
1FE0
07C0
ENDCHAR
STARTCHAR 03B1
ENCODING 945
SWIDTH 555 0
DWIDTH 20 0
BBX 17 17 2 0
BITMAP
070700
1F8700
3FCE00
384E00
705C00
603C00
C03800
C03800
C03000
807000
807000
80F000
80D000
81D800
438F80
3F0F80
1E0700
ENDCHAR
STARTCHAR 03B2
ENCODING 946
SWIDTH 555 0
DWIDTH 20 0
BBX 15 38 3 -10
BITMAP
07C0
1FE0
3C10
7808
7008
F004
E004
E004
E004
C00C
C00C
C718
CFF0
CFF0
C7E0
C010
C018
C00C
C00C
C00C
C00E
C00E
C00E
E01E
E01C
D83C
C7F8
C3F0
C000
C000
C000
E000
E000
E000
E000
E000
E000
E000
ENDCHAR
STARTCHAR 03B3
ENCODING 947
SWIDTH 555 0
DWIDTH 20 0
BBX 18 27 1 -10
BITMAP
380180
7C03C0
FE0780
870700
030E00
010C00
018800
009800
009000
00B000
00A000
00A000
004000
004000
004000
004000
004000
004000
00E000
00E000
00E000
00E000
00F000
00F000
00F000
00F000
006000
ENDCHAR
STARTCHAR 03B4
ENCODING 948
SWIDTH 472 0
DWIDTH 17 0
BBX 13 28 2 0
BITMAP
3C00
7E00
4700
43C0
41E0
20F0
1070
1830
0C10
0600
0200
0100
0F80
3FC0
7C20
7810
F010
E010
E018
E018
C038
C038
C038
4070
40F0
21E0
1FE0
0F80
ENDCHAR
STARTCHAR 03B5
ENCODING 949
SWIDTH 444 0
DWIDTH 16 0
BBX 12 17 2 0
BITMAP
1F80
3FE0
70E0
E000
C000
C000
4F80
3FC0
4F80
C000
C000
C000
C010
F030
7FE0
3FE0
0F80
ENDCHAR
STARTCHAR 03B6
ENCODING 950
SWIDTH 500 0
DWIDTH 18 0
BBX 15 31 2 -4
BITMAP
1E38
38F8
31F8
33E0
1780
0C00
1000
1000
2000
2000
4000
4000
4000
8000
8000
8000
8000
8000
8000
8000
8000
4000
6000
3FF8
1FFC
07FE
0002
0002
007E
00FC
0078
ENDCHAR
STARTCHAR 03B7
ENCODING 951
SWIDTH 555 0
DWIDTH 20 0
BBX 17 27 1 -10
BITMAP
701C00
F87F00
8CF100
04E080
05C080
05C080
038080
038080
038080
030080
070080
070080
070080
070080
070180
0E0180
060180
000180
000380
000380
000380
000780
000780
000780
000780
000780
000300
ENDCHAR
STARTCHAR 03B8
ENCODING 952
SWIDTH 555 0
DWIDTH 20 0
BBX 18 28 1 0
BITMAP
07C000
0C7000
183800
181800
181C00
180C00
180C00
1C0E00
0C0E00
0E0E00
060E00
038E00
00FE00
000F80
700E40
580E40
9C0E00
9C0E00
9C0E00
1C0E00
1C0E00
1C0E00
1C0E00
1C0E00
1C0C00
0C1C00
063800
03E000
ENDCHAR
STARTCHAR 03B9
ENCODING 953
SWIDTH 305 0
DWIDTH 11 0
BBX 6 17 3 0
BITMAP
60
E0
E0
E0
E0
E0
C0
C0
C0
80
80
80
80
8C
DC
7C
38
ENDCHAR
STARTCHAR 03BA
ENCODING 954
SWIDTH 527 0
DWIDTH 19 0
BBX 17 17 1 0
BITMAP
700E00
F81E00
9C1E00
0C1C00
043C00
047800
04F000
05F000
07D000
079000
0F1000
0E1000
1E1800
3C1800
780F80
780F80
300700
ENDCHAR
STARTCHAR 03BB
ENCODING 955
SWIDTH 500 0
DWIDTH 18 0
BBX 16 26 1 1
BITMAP
F000
F800
3C00
0600
0200
0100
0100
0100
0080
0180
0180
0380
0380
0740
0740
0E40
0E40
1C40
1C20
3820
3830
7838
701C
701E
E00F
E007
ENDCHAR
STARTCHAR 03BC
ENCODING 956
SWIDTH 611 0
DWIDTH 22 0
BBX 19 27 2 -10
BITMAP
401800
E03C00
E03C00
E03C00
E03C00
E03C00
E03C00
E03C00
C03C00
C01800
401800
401800
401800
403020
B07C60
9FE7E0
87C3C0
800000
C00000
C00000
C00000
C00000
C00000
E00000
E00000
E00000
600000
ENDCHAR
STARTCHAR 03BD
ENCODING 957
SWIDTH 444 0
DWIDTH 16 0
BBX 12 17 2 0
BITMAP
C040
E020
F020
7030
3830
1830
1830
0C70
0C70
0C60
04E0
05E0
07C0
07C0
0780
0700
0400
ENDCHAR
STARTCHAR 03BE
ENCODING 958
SWIDTH 416 0
DWIDTH 15 0
BBX 12 31 2 -4
BITMAP
7000
E1E0
C7F0
5FE0
3F80
6000
4000
8000
8000
8000
8000
43E0
2FE0
1FC0
2000
4000
4000
8000
8000
8000
8000
8000
C000
7FC0
3FE0
1FF0
0010
0010
03F0
07E0
03C0
ENDCHAR
STARTCHAR 03BF
ENCODING 959
SWIDTH 500 0
DWIDTH 18 0
BBX 14 17 2 0
BITMAP
07C0
1FE0
3C10
7808
7008
F008
E00C
E00C
C01C
C01C
C03C
C038
4078
40F0
21F0
1FE0
0F80
ENDCHAR
STARTCHAR 03C0
ENCODING 960
SWIDTH 611 0
DWIDTH 22 0
BBX 20 17 1 0
BITMAP
3FFFF0
7FFFF0
7FFFF0
820800
820800
020800
020800
020800
020800
020800
020800
060800
060C40
0E0C40
1E0FC0
1C07C0
1C0380
ENDCHAR
STARTCHAR 03C1
ENCODING 961
SWIDTH 500 0
DWIDTH 18 0
BBX 14 27 2 -10
BITMAP
07C0
1FE0
3E10
3808
7808
700C
600C
E00C
E00C
C01C
C01C
C03C
C078
C078
A0F0
DFE0
CF80
C000
C000
C000
C000
C000
E000
E000
E000
E000
E000
ENDCHAR
STARTCHAR 03C2
ENCODING 962
SWIDTH 416 0
DWIDTH 15 0
BBX 12 22 2 -5
BITMAP
01E0
07F0
1FF0
3800
2000
4000
8000
8000
8000
8000
8000
C000
6000
7C00
3FC0
0FE0
00F0
0030
0010
0E10
0FE0
07C0
ENDCHAR
STARTCHAR 03C3
ENCODING 963
SWIDTH 527 0
DWIDTH 19 0
BBX 15 17 2 0
BITMAP
0FFE
1FFE
3FFE
7040
6020
C030
8018
8018
801C
801C
801C
C01C
403C
7078
3FF8
1FF0
07C0
ENDCHAR
STARTCHAR 03C4
ENCODING 964
SWIDTH 472 0
DWIDTH 17 0
BBX 14 17 1 0
BITMAP
3FFC
7FFC
7FFC
8200
8200
0200
0200
0200
0200
0200
0200
0200
0308
0308
03F8
01F8
00F0
ENDCHAR
STARTCHAR 03C5
ENCODING 965
SWIDTH 472 0
DWIDTH 17 0
BBX 13 17 2 0
BITMAP
E080
E040
E060
E020
4030
4030
C038
8038
8038
8038
8038
8078
8070
40F0
40E0
3FC0
0F80
ENDCHAR
STARTCHAR 03C6
ENCODING 966
SWIDTH 638 0
DWIDTH 23 0
BBX 19 27 2 -10
BITMAP
1C1F00
3C7F80
7C7040
70E040
E0C020
C0C020
808020
808020
808060
808060
8080C0
4080C0
6083C0
708780
3FFF00
1FFE00
07F000
008000
008000
008000
008000
008000
01C000
01C000
01C000
01C000
01C000
ENDCHAR
STARTCHAR 03C7
ENCODING 967
SWIDTH 555 0
DWIDTH 20 0
BBX 18 27 1 -10
BITMAP
700300
F80700
FC0600
660E00
020E00
021C00
011C00
013800
013800
00F000
00F000
00E000
00E000
00C000
01C000
01C000
03C000
03C000
072000
072000
0E2000
0E2000
1C1000
1C1000
3808C0
380FC0
300380
ENDCHAR
STARTCHAR 03C8
ENCODING 968
SWIDTH 611 0
DWIDTH 22 0
BBX 18 36 2 -9
BITMAP
01E000
01E000
01E000
01E000
01C000
01C000
01C000
00C000
00C000
30C100
78C080
708080
F08080
E080C0
E080C0
C080C0
C080C0
C081C0
C081C0
408380
408380
608700
389F00
1FFE00
0FF800
03E000
008000
008000
008000
008000
01C000
01C000
01C000
01C000
01C000
01C000
ENDCHAR
STARTCHAR 03C9
ENCODING 969
SWIDTH 694 0
DWIDTH 25 0
BBX 21 17 2 0
BITMAP
1C0100
3C0080
3800C0
780060
707070
F07030
E07038
E07038
E07038
E07038
E07038
E02038
602070
702070
3020E0
185FE0
078780
ENDCHAR
STARTCHAR 03CA
ENCODING 970
SWIDTH 305 0
DWIDTH 11 0
BBX 11 24 0 0
BITMAP
60C0
F1E0
F1E0
60C0
0000
0000
0000
0C00
1E00
1E00
1C00
1C00
1C00
1800
1800
1800
1000
1000
1000
1000
1080
1B80
0F80
0700
ENDCHAR
STARTCHAR 03CB
ENCODING 971
SWIDTH 500 0
DWIDTH 18 0
BBX 14 24 2 0
BITMAP
60C0
F1E0
F1E0
60C0
0000
0000
0000
E040
E020
E030
E010
4018
4018
C01C
801C
801C
801C
801C
8038
8038
4078
40F0
3FE0
0F80
ENDCHAR
STARTCHAR 03CC
ENCODING 972
SWIDTH 500 0
DWIDTH 18 0
BBX 14 26 2 1
BITMAP
00E0
00C0
01C0
0180
0180
0300
0200
0200
0000
07C0
1FE0
3C10
7808
7008
F008
E00C
E00C
C01C
C01C
C03C
C038
4078
40F0
21F0
1FE0
0F80
ENDCHAR
STARTCHAR 03CD
ENCODING 973
SWIDTH 472 0
DWIDTH 17 0
BBX 13 26 2 1
BITMAP
0300
0300
0700
0600
0400
0C00
0800
0800
0000
E080
E040
E060
E020
4030
4030
C038
8038
8038
8038
8038
8078
8070
40F0
61E0
3FC0
0F80
ENDCHAR
STARTCHAR 03CE
ENCODING 974
SWIDTH 694 0
DWIDTH 25 0
BBX 21 26 2 1
BITMAP
001C00
001C00
001800
001800
003000
002000
002000
000000
000000
1C0100
3C0080
3800C0
780060
707070
F07030
E07038
E07038
E07038
E07038
E07038
E02038
602070
702070
3020E0
185FE0
078780
ENDCHAR
STARTCHAR 03CF
ENCODING 975
SWIDTH 777 0
DWIDTH 28 0
BBX 23 36 2 -10
BITMAP
FFC7FE
FFC7FE
0E00F0
0E00C0
0E0180
0E0100
0E0200
0E0400
0E0800
0E1000
0E3000
0E7800
0EBC00
0F1C00
0E1E00
0E0F00
0E0F00
0E0780
0E03C0
0E03C0
0E01E0
0E00F0
0E00F0
0E0078
FFC038
FFC03C
00007C
0000F8
0001F0
0003E0
0027C0
003F80
001F00
000E00
000600
000300
ENDCHAR
STARTCHAR 03D0
ENCODING 976
SWIDTH 472 0
DWIDTH 17 0
BBX 14 26 2 1
BITMAP
01F8
030C
060C
0C0C
1C18
1870
3FC0
3000
6000
4000
4000
4E00
BFC0
FC60
F820
F010
E010
E018
C018
C038
C038
4078
40F0
21F0
1FE0
0F80
ENDCHAR
STARTCHAR 03D1
ENCODING 977
SWIDTH 555 0
DWIDTH 20 0
BBX 18 28 1 0
BITMAP
07C000
0C7000
183800
181800
181C00
180C00
180C00
1C0E00
0C0E00
0E0E00
060E00
038E00
00FE00
000F80
700E40
580E40
9C0E00
9C0E00
9C0E00
1C0E00
1C0E00
1C0E00
1C0E00
1C0E00
1C0C00
0C1C00
063800
03E000
ENDCHAR
STARTCHAR 03D2
ENCODING 978
SWIDTH 638 0
DWIDTH 23 0
BBX 20 26 2 1
BITMAP
E007E0
3808F0
0C19F0
0611F0
0721E0
032000
03A000
01C000
01C000
01C000
01C000
01C000
01C000
01C000
01C000
01C000
01C000
01C000
01C000
01C000
01C000
01C000
01C000
01C000
01C000
3FFC00
ENDCHAR
STARTCHAR 03D3
ENCODING 979
SWIDTH 888 0
DWIDTH 32 0
BBX 28 26 3 1
BITMAP
38E007E0
383008F0
300C19F0
700E11F0
600721E0
40032000
C003A000
0001C000
0001C000
0001C000
0001C000
0001C000
0001C000
0001C000
0001C000
0001C000
0001C000
0001C000
0001C000
0001C000
0001C000
0001C000
0001C000
0001C000
0001C000
003FFC00
ENDCHAR
STARTCHAR 03D4
ENCODING 980
SWIDTH 638 0
DWIDTH 23 0
BBX 20 33 2 0
BITMAP
0C1800
1E3C00
1E3C00
0C1800
000000
000000
000000
E007E0
3008F0
0C19F0
0611F0
0621E0
032000
03E000
01C000
01C000
01C000
01C000
01C000
01C000
01C000
01C000
01C000
01C000
01C000
01C000
01C000
01C000
01C000
01C000
01C000
01C000
3FFC00
ENDCHAR
STARTCHAR 03D5
ENCODING 981
SWIDTH 611 0
DWIDTH 22 0
BBX 18 37 2 -10
BITMAP
008000
01C000
01C000
01C000
01C000
00C000
008000
008000
008000
008000
07F000
1FFC00
3FFF00
7E8380
708080
E080C0
C08040
808040
808040
808040
8080C0
8081C0
408380
609F80
3FFF00
1FFC00
07F000
008000
008000
008000
008000
008000
01C000
01C000
01C000
01C000
01C000
ENDCHAR
STARTCHAR 03D6
ENCODING 982
SWIDTH 722 0
DWIDTH 26 0
BBX 24 17 1 0
BITMAP
3FFFFF
7FFFFF
7FFFFF
8E0010
9C0018
1C1C0C
381C0C
381C0E
381C0E
381C0E
381C0E
38180E
38081C
1C081C
1C1838
0E17F8
03E1E0
ENDCHAR
STARTCHAR 03D7
ENCODING 983
SWIDTH 527 0
DWIDTH 19 0
BBX 17 24 1 -7
BITMAP
700E00
F81E00
9C1E00
0C1C00
043C00
047800
04F000
05F000
07D000
079000
0F1000
0E1000
1E1800
3C1800
780F80
780F80
300780
000100
000100
000100
038200
07C600
03FC00
01F000
ENDCHAR
STARTCHAR 03D8
ENCODING 984
SWIDTH 666 0
DWIDTH 24 0
BBX 21 26 2 1
BITMAP
03FF00
0E0380
3C01E0
7800E0
7800F0
F00078
F00078
F00078
F00078
F00078
F00078
7800F0
7800F0
3C01E0
1E03C0
078F00
00F800
007000
007000
007000
007000
007000
007000
007000
007000
07FE00
ENDCHAR
STARTCHAR 03D9
ENCODING 985
SWIDTH 500 0
DWIDTH 18 0
BBX 14 27 2 -10
BITMAP
07C0
1FE0
3C10
7808
7008
F008
E00C
E00C
C01C
C01C
C03C
C038
4078
40F8
21F0
3FE0
0F80
0200
0200
0200
0200
0200
0700
0700
0700
0700
0700
ENDCHAR
STARTCHAR 03DA
ENCODING 986
SWIDTH 583 0
DWIDTH 21 0
BBX 19 27 2 0
BITMAP
000020
0FFC20
1FFFC0
3CFFC0
700780
600000
C00000
C00000
C00000
C00000
C00000
C00000
600000
600000
300000
0C0000
07F800
007800
003800
003800
003800
003800
003800
003800
003800
003800
03FF00
ENDCHAR
STARTCHAR 03DB
ENCODING 987
SWIDTH 500 0
DWIDTH 18 0
BBX 15 26 2 -5
BITMAP
0002
0002
0002
0006
01FE
0FFC
1FF8
3000
4000
4000
8000
8000
8000
8000
8000
C000
6000
7C00
3FC0
0FE0
00F0
0030
0010
0E10
0FE0
07C0
ENDCHAR
STARTCHAR 03DC
ENCODING 988
SWIDTH 666 0
DWIDTH 24 0
BBX 20 26 2 0
BITMAP
FFFFF0
FFFFF0
0E0070
0E0030
0E0030
0E0010
0E0010
0E0010
0E0000
0E0000
0FFE00
0E0E00
0E0600
0E0600
0E0200
0E0200
0E0000
0E0000
0E0000
0E0000
0E0000
0E0000
0E0000
0E0000
FFE000
FFE000
ENDCHAR
STARTCHAR 03DD
ENCODING 989
SWIDTH 472 0
DWIDTH 17 0
BBX 17 27 -2 -10
BITMAP
03FF80
07FF80
07FF80
040000
040000
040000
040000
040000
040000
07FF00
07FF00
07FF00
040000
040000
040000
040000
040000
040000
040000
040000
040000
040000
040000
C40000
E40000
E80000
780000
ENDCHAR
STARTCHAR 03DE
ENCODING 990
SWIDTH 638 0
DWIDTH 23 0
BBX 19 26 2 1
BITMAP
F80000
FC0000
FC0000
440000
040000
040000
040080
040180
080780
080F80
083F00
087F00
09FF00
1BF300
1FE200
1F8200
1F0200
3C0200
380400
200400
000400
000400
000440
0004E0
0007E0
0003E0
ENDCHAR
STARTCHAR 03DF
ENCODING 991
SWIDTH 388 0
DWIDTH 14 0
BBX 10 32 2 -6
BITMAP
7000
F800
B800
1800
1000
1000
3000
2000
2000
6000
4000
4000
FFC0
FFC0
FFC0
0040
00C0
0080
0180
0180
0380
0300
0300
0700
0700
0E00
0E00
1E00
1C00
1C00
3C00
1800
ENDCHAR
STARTCHAR 03E0
ENCODING 992
SWIDTH 750 0
DWIDTH 27 0
BBX 23 26 2 1
BITMAP
0FF000
3FFC00
79FE00
607F00
C01F80
C00FC0
C00FE0
C01BF0
C031F0
C021F8
404378
60C63C
21843C
01081E
03180E
06300E
0C2006
084006
18C006
318006
611C06
C23C04
C63C0C
003808
001830
000FE0
ENDCHAR
STARTCHAR 03E1
ENCODING 993
SWIDTH 555 0
DWIDTH 20 0
BBX 21 31 -3 -6
BITMAP
E00000
FE0000
0F8000
01E000
007800
001C00
000E00
000700
000300
000F80
0038C0
0060C0
01C060
030060
0000F0
0001B0
000730
001C10
007018
002018
000018
000018
000018
000018
000010
000030
000030
000030
000020
000060
000060
ENDCHAR
STARTCHAR 03F0
ENCODING 1008
SWIDTH 527 0
DWIDTH 19 0
BBX 17 17 1 0
BITMAP
700E00
F81E00
9C1E00
0C1C00
043C00
047800
04F000
05F000
07D000
079000
0F1000
0E1000
1E1800
3C1800
780F80
780F80
300700
ENDCHAR
STARTCHAR 03F1
ENCODING 1009
SWIDTH 500 0
DWIDTH 18 0
BBX 14 27 2 -10
BITMAP
07C0
1FE0
3E10
3808
7808
700C
600C
E00C
E00C
C01C
C01C
C03C
C078
C078
A0F0
DFE0
CF80
C000
C000
C000
C000
C000
E000
E000
E000
E000
E000
ENDCHAR
STARTCHAR 03F2
ENCODING 1010
SWIDTH 444 0
DWIDTH 16 0
BBX 12 17 2 0
BITMAP
0F80
1860
3020
7010
6000
E000
E000
E000
E000
E000
E000
E000
6000
7010
3020
1860
0F80
ENDCHAR
STARTCHAR 03F3
ENCODING 1011
SWIDTH 333 0
DWIDTH 12 0
BBX 10 32 -1 -8
BITMAP
0180
03C0
03C0
0180
0000
0000
0000
1F80
0380
0380
0380
0380
0380
0380
0380
0380
0380
0380
0380
0380
0380
0380
0380
0380
0380
0380
4380
E380
E300
C300
4600
3C00
ENDCHAR
STARTCHAR 03F4
ENCODING 1012
SWIDTH 722 0
DWIDTH 26 0
BBX 21 26 3 1
BITMAP
03FC00
060300
0C0180
1C01C0
3800E0
3800E0
7800F0
700070
700070
F00078
F00078
F00078
FFFFF8
FFFFF8
F00078
F00078
F00078
700070
700070
7800F0
3800E0
3800E0
1C01C0
0C0180
060300
03FE00
ENDCHAR
STARTCHAR 03F5
ENCODING 1013
SWIDTH 444 0
DWIDTH 16 0
BBX 12 17 2 0
BITMAP
0F80
1860
3020
7010
6000
E000
E000
E000
FFC0
E000
E000
E000
6000
7010
3020
1860
0F80
ENDCHAR
STARTCHAR 03F6
ENCODING 1014
SWIDTH 444 0
DWIDTH 16 0
BBX 12 17 2 0
BITMAP
1E00
6180
40C0
80E0
0060
0070
0070
0070
3FF0
0070
0070
0070
0060
80E0
40C0
6180
1F00
ENDCHAR
STARTCHAR 03F9
ENCODING 1017
SWIDTH 666 0
DWIDTH 24 0
BBX 19 26 3 1
BITMAP
03FE00
060300
0C0180
1800C0
380040
380060
700000
700000
F00000
F00000
F00000
F00000
F00000
F00000
F00000
F00000
F00000
F00000
700000
700000
380060
380040
1800C0
0C0180
060300
03FE00
ENDCHAR
STARTCHAR 0400
ENCODING 1024
SWIDTH 694 0
DWIDTH 25 0
BBX 21 34 2 0
BITMAP
030000
038000
01C000
00C000
006000
001000
000000
000000
FFFFF8
0E0078
0E0038
0E0018
0E0018
0E0008
0E0008
0E0408
0E0400
0E0400
0E0C00
0E0C00
0FFC00
0E0C00
0E0400
0E0400
0E0408
0E0408
0E0008
0E0008
0E0018
0E0018
0E0038
0E0038
0E00F8
FFFFF8
ENDCHAR
STARTCHAR 0401
ENCODING 1025
SWIDTH 694 0
DWIDTH 25 0
BBX 21 33 2 0
BITMAP
018300
038700
038700
018300
000000
000000
000000
FFFFF8
0E0078
0E0038
0E0018
0E0018
0E0008
0E0008
0E0408
0E0400
0E0400
0E0C00
0E0C00
0FFC00
0E0C00
0E0400
0E0400
0E0408
0E0408
0E0008
0E0008
0E0018
0E0018
0E0038
0E0038
0E00F8
FFFFF8
ENDCHAR
STARTCHAR 0402
ENCODING 1026
SWIDTH 861 0
DWIDTH 31 0
BBX 26 26 3 0
BITMAP
FFFFF800
E0E07800
C0E03800
C0E01800
C0E01800
80E01800
80E01800
80E00800
80E00800
80E00800
00E00000
00E1F800
00E61E00
00F80F00
00F00780
00E00380
00E003C0
00E003C0
00E003C0
00E003C0
00E383C0
00E7C3C0
00E7C780
00E78700
00E78F00
0FE3FC00
ENDCHAR
STARTCHAR 0403
ENCODING 1027
SWIDTH 638 0
DWIDTH 23 0
BBX 19 34 2 0
BITMAP
000600
000E00
000E00
001800
003000
002000
000000
000000
FFFFE0
0E01E0
0E00E0
0E0060
0E0060
0E0020
0E0020
0E0020
0E0020
0E0020
0E0000
0E0000
0E0000
0E0000
0E0000
0E0000
0E0000
0E0000
0E0000
0E0000
0E0000
0E0000
0E0000
0E0000
0E0000
FFE000
ENDCHAR
STARTCHAR 0404
ENCODING 1028
SWIDTH 638 0
DWIDTH 23 0
BBX 18 27 3 0
BITMAP
004000
07B880
0E0680
1C0380
380180
380180
780080
700080
F00080
F00080
F00000
F00000
F00000
FFFC00
F00000
F00000
F00000
F00000
700380
7003C0
7803C0
3803C0
3800C0
1800C0
1C0080
060100
03DE00
ENDCHAR
STARTCHAR 0405
ENCODING 1029
SWIDTH 611 0
DWIDTH 22 0
BBX 17 26 3 1
BITMAP
1FE300
303300
601F00
C00F00
C00700
C00300
C00300
E00300
F00100
780000
7F0000
3FC000
1FF800
07FC00
01FE00
803F00
800F80
800380
C00380
C00180
C00180
E00180
F00100
F80300
8C0600
87FC00
ENDCHAR
STARTCHAR 0406
ENCODING 1030
SWIDTH 388 0
DWIDTH 14 0
BBX 10 26 2 0
BITMAP
FFC0
0E00
0E00
0E00
0E00
0E00
0E00
0E00
0E00
0E00
0E00
0E00
0E00
0E00
0E00
0E00
0E00
0E00
0E00
0E00
0E00
0E00
0E00
0E00
0E00
FFC0
ENDCHAR
STARTCHAR 0407
ENCODING 1031
SWIDTH 388 0
DWIDTH 14 0
BBX 11 33 2 0
BITMAP
60C0
E0E0
E0E0
60C0
0000
0000
0000
7FE0
0E00
0E00
0E00
0E00
0E00
0E00
0E00
0E00
0E00
0E00
0E00
0E00
0E00
0E00
0E00
0E00
0E00
0E00
0E00
0E00
0E00
0E00
0E00
0E00
7FE0
ENDCHAR
STARTCHAR 0408
ENCODING 1032
SWIDTH 527 0
DWIDTH 19 0
BBX 16 26 2 0
BITMAP
03FF
0038
0038
0038
0038
0038
0038
0038
0038
0038
0038
0038
0038
0038
0038
0038
0038
0038
7038
F838
F838
F038
C030
C070
6060
3FC0
ENDCHAR
STARTCHAR 0409
ENCODING 1033
SWIDTH 1111 0
DWIDTH 40 0
BBX 36 26 2 0
BITMAP
07FFFF8000
0060380000
0060380000
0040380000
0040380000
0040380000
0040380000
0040380000
0040380000
0040380000
0040380000
00403FFE00
0040380780
00403803C0
00C03801E0
00C03801E0
00C03800F0
00C03800F0
00803800F0
70803800F0
F8803800F0
F9803801E0
F1803801E0
E1003803C0
6600380780
3C03FFFE00
ENDCHAR
STARTCHAR 040A
ENCODING 1034
SWIDTH 1111 0
DWIDTH 40 0
BBX 36 26 2 0
BITMAP
FFC3FF0000
0E00380000
0E00380000
0E00380000
0E00380000
0E00380000
0E00380000
0E00380000
0E00380000
0E00380000
0E00380000
0FFFFFFC00
0E00380700
0E003803C0
0E003801E0
0E003801E0
0E003800F0
0E003800F0
0E003800F0
0E003800F0
0E003800F0
0E003801E0
0E003801E0
0E003803C0
0E00380780
FFC3FFFE00
ENDCHAR
STARTCHAR 040B
ENCODING 1035
SWIDTH 916 0
DWIDTH 33 0
BBX 28 26 3 0
BITMAP
FFFFF800
F0703800
E0701800
C0701800
C0700800
80700800
80700800
80700800
80700800
80700800
00700000
0070F800
00730E00
007C0E00
00700700
00700700
00700700
00700700
00700700
00700700
00700700
00700700
00700700
00700700
00700700
0FFE3FF0
ENDCHAR
STARTCHAR 040C
ENCODING 1036
SWIDTH 722 0
DWIDTH 26 0
BBX 23 34 2 1
BITMAP
000600
000E00
001C00
001800
003000
004000
000000
000000
FFC3F0
0E0238
0E0478
0E04F8
0E04F8
0E04F0
0E0400
0E0400
0E0400
0E0400
0E0800
0FF000
0E0C00
0E0700
0E0300
0E0380
0E0380
0E03C0
0E03C0
0E03C0
0E03C2
0E03C2
0E03C2
0E03C4
0E01E4
FFC0F8
ENDCHAR
STARTCHAR 040D
ENCODING 1037
SWIDTH 777 0
DWIDTH 28 0
BBX 24 34 2 0
BITMAP
018000
01C000
00E000
006000
003000
001800
000000
000000
FFC3FF
0E0070
0E0070
0E0070
0E00F0
0E00F0
0E0170
0E0370
0E0270
0E0670
0E0470
0E0870
0E0870
0E1070
0E1070
0E2070
0E6070
0E4070
0EC070
0E8070
0F0070
0F0070
0E0070
0E0070
0E0070
FFC3FF
ENDCHAR
STARTCHAR 040E
ENCODING 1038
SWIDTH 805 0
DWIDTH 29 0
BBX 26 35 2 0
BITMAP
00C06000
01E0F000
01C07000
01803000
01803000
00802000
0060C000
001F0000
00000000
FFE0FFC0
0F001E00
07001C00
07801C00
03801800
03C01800
01C03000
01E03000
00E03000
00F06000
00706000
00784000
0038C000
003CC000
001D8000
001F8000
000F8000
000F0000
00070000
07860000
0F860000
0F860000
0F040000
0E0C0000
06180000
03F00000
ENDCHAR
STARTCHAR 040F
ENCODING 1039
SWIDTH 777 0
DWIDTH 28 0
BBX 24 33 2 -7
BITMAP
FFC3FF
0E0038
0E0038
0E0038
0E0038
0E0038
0E0038
0E0038
0E0038
0E0038
0E0038
0E0038
0E0038
0E0038
0E0038
0E0038
0E0038
0E0038
0E0038
0E0038
0E0038
0E0038
0E0038
0E0038
0E0038
FFFFFF
000800
001800
001C00
001C00
001C00
001C00
001C00
ENDCHAR
STARTCHAR 0410
ENCODING 1040
SWIDTH 777 0
DWIDTH 28 0
BBX 25 26 2 0
BITMAP
00080000
000C0000
001C0000
001C0000
001E0000
003E0000
002E0000
002F0000
00670000
00670000
00478000
00C38000
00C38000
0083C000
0181C000
0181C000
0301E000
03FFE000
0200E000
0600F000
06007000
06007000
0C007800
0C007800
1E007800
FFC3FF80
ENDCHAR
STARTCHAR 0411
ENCODING 1041
SWIDTH 722 0
DWIDTH 26 0
BBX 21 26 3 0
BITMAP
FFFFE0
1C01E0
1C00E0
1C0060
1C0060
1C0020
1C0020
1C0020
1C0020
1C0020
1C0000
1C0000
1FFF00
1C03C0
1C00E0
1C00F0
1C0078
1C0078
1C0078
1C0078
1C0078
1C0078
1C00F0
1C00E0
1C01C0
FFFF00
ENDCHAR
STARTCHAR 0412
ENCODING 1042
SWIDTH 694 0
DWIDTH 25 0
BBX 20 26 3 0
BITMAP
FFFC00
1C0300
1C01C0
1C01C0
1C00E0
1C00E0
1C00E0
1C00E0
1C00E0
1C01C0
1C0180
1C0300
1FFC00
1C0700
1C01C0
1C01E0
1C00E0
1C00F0
1C00F0
1C00F0
1C00F0
1C00F0
1C01E0
1C01C0
1C0380
FFFE00
ENDCHAR
STARTCHAR 0413
ENCODING 1043
SWIDTH 638 0
DWIDTH 23 0
BBX 19 26 2 0
BITMAP
FFFFE0
0E01E0
0E00E0
0E0060
0E0060
0E0020
0E0020
0E0020
0E0020
0E0020
0E0000
0E0000
0E0000
0E0000
0E0000
0E0000
0E0000
0E0000
0E0000
0E0000
0E0000
0E0000
0E0000
0E0000
0E0000
FFE000
ENDCHAR
STARTCHAR 0414
ENCODING 1044
SWIDTH 722 0
DWIDTH 26 0
BBX 24 33 1 -7
BITMAP
0FFFFF
01C070
008070
008070
008070
008070
008070
008070
008070
008070
018070
018070
018070
010070
010070
010070
010070
030070
030070
020070
060070
060070
060070
0C0070
0C0070
FFFFFF
F0000F
E00007
C00003
C00001
800001
800001
800001
ENDCHAR
STARTCHAR 0415
ENCODING 1045
SWIDTH 694 0
DWIDTH 25 0
BBX 21 26 2 0
BITMAP
FFFFF8
0E0078
0E0038
0E0018
0E0018
0E0008
0E0008
0E0408
0E0400
0E0400
0E0C00
0E0C00
0FFC00
0E0C00
0E0400
0E0400
0E0408
0E0408
0E0008
0E0008
0E0018
0E0018
0E0038
0E0038
0E00F8
FFFFF8
ENDCHAR
STARTCHAR 0416
ENCODING 1046
SWIDTH 1000 0
DWIDTH 36 0
BBX 33 27 2 0
BITMAP
0000001000
1F8FFC6C00
3881C0C600
3C41C09E00
3E41C0BE00
3E41C0BE00
1E41C0BC00
0041C08000
0041C08000
0041C08000
0041C18000
0021C10000
001FFE0000
0061C18000
01C1C0E000
0381C06000
0381C07000
0381C07000
0781C07800
0781C07800
0781C07800
8781C07880
8781C07880
8781C07880
8701C03880
4F01C03D00
3C0FFC0E00
ENDCHAR
STARTCHAR 0417
ENCODING 1047
SWIDTH 638 0
DWIDTH 23 0
BBX 19 26 2 1
BITMAP
47FE00
5C0700
780380
700380
6001C0
6001C0
4001C0
4001C0
400380
000300
000E00
03F800
000F00
000780
0003C0
0003C0
7001E0
F801E0
F801E0
F801E0
F001E0
C001C0
4003C0
600780
300F00
0FFC00
ENDCHAR
STARTCHAR 0418
ENCODING 1048
SWIDTH 777 0
DWIDTH 28 0
BBX 24 26 2 0
BITMAP
FFC3FF
0E0070
0E0070
0E0070
0E00F0
0E00F0
0E0170
0E0370
0E0270
0E0670
0E0470
0E0870
0E0870
0E1070
0E1070
0E2070
0E6070
0E4070
0EC070
0E8070
0F0070
0F0070
0E0070
0E0070
0E0070
FFC3FF
ENDCHAR
STARTCHAR 0419
ENCODING 1049
SWIDTH 777 0
DWIDTH 28 0
BBX 24 34 2 0
BITMAP
0301C0
0781E0
0781E0
060060
020040
010080
00FF00
000000
FFC3FF
0E0070
0E0070
0E0070
0E00F0
0E00F0
0E0170
0E0370
0E0270
0E0670
0E0470
0E0870
0E0870
0E1070
0E1070
0E2070
0E6070
0E4070
0EC070
0E8070
0F0070
0F0070
0E0070
0E0070
0E0070
FFC3FF
ENDCHAR
STARTCHAR 041A
ENCODING 1050
SWIDTH 722 0
DWIDTH 26 0
BBX 23 26 2 1
BITMAP
FFC3F0
0E0238
0E0478
0E04F8
0E04F8
0E04F0
0E0400
0E0400
0E0400
0E0400
0E0800
0FF000
0E0C00
0E0700
0E0300
0E0380
0E0380
0E03C0
0E03C0
0E03C0
0E03C2
0E03C2
0E03C2
0E03C4
0E01E4
FFC0F8
ENDCHAR
STARTCHAR 041B
ENCODING 1051
SWIDTH 805 0
DWIDTH 29 0
BBX 25 26 2 0
BITMAP
07FFFF80
00603800
00603800
00403800
00403800
00403800
00403800
00403800
00403800
00403800
00403800
00403800
00403800
00403800
00C03800
00C03800
00C03800
00C03800
00803800
30803800
F8803800
F9803800
F1803800
E1003800
66003800
3C01FF80
ENDCHAR
STARTCHAR 041C
ENCODING 1052
SWIDTH 833 0
DWIDTH 30 0
BBX 26 26 2 0
BITMAP
FF001FC0
0F001E00
0F801E00
0F802E00
0B802E00
0B802E00
0BC06E00
09C04E00
09C04E00
09E04E00
08E08E00
08E08E00
08E08E00
08F18E00
08710E00
08710E00
08790E00
083B0E00
083A0E00
083A0E00
081E0E00
081C0E00
081C0E00
080C0E00
1C0C0E00
FF88FFC0
ENDCHAR
STARTCHAR 041D
ENCODING 1053
SWIDTH 777 0
DWIDTH 28 0
BBX 24 26 2 0
BITMAP
FFC3FF
0E0038
0E0038
0E0038
0E0038
0E0038
0E0038
0E0038
0E0038
0E0038
0E0038
0E0038
0FFFF8
0E0038
0E0038
0E0038
0E0038
0E0038
0E0038
0E0038
0E0038
0E0038
0E0038
0E0038
0E0038
FFC3FF
ENDCHAR
STARTCHAR 041E
ENCODING 1054
SWIDTH 722 0
DWIDTH 26 0
BBX 21 27 3 0
BITMAP
002000
03DC00
060300
0C0180
1C01C0
3800E0
3800E0
7800F0
700070
700070
F00078
F00078
F00078
F00078
F00078
F00078
F00078
F00078
700070
700070
7800F0
3800E0
3800E0
1C01C0
0C0180
060300
03FE00
ENDCHAR
STARTCHAR 041F
ENCODING 1055
SWIDTH 777 0
DWIDTH 28 0
BBX 24 26 2 0
BITMAP
FFFFFF
0E0038
0E0038
0E0038
0E0038
0E0038
0E0038
0E0038
0E0038
0E0038
0E0038
0E0038
0E0038
0E0038
0E0038
0E0038
0E0038
0E0038
0E0038
0E0038
0E0038
0E0038
0E0038
0E0038
0E0038
FFC3FF
ENDCHAR
STARTCHAR 0420
ENCODING 1056
SWIDTH 694 0
DWIDTH 25 0
BBX 21 26 2 0
BITMAP
FFFF00
0E01C0
0E00E0
0E00F0
0E0078
0E0078
0E0078
0E0078
0E0078
0E0070
0E00F0
0E00E0
0E01C0
0FFE00
0E0000
0E0000
0E0000
0E0000
0E0000
0E0000
0E0000
0E0000
0E0000
0E0000
0E0000
FFE000
ENDCHAR
STARTCHAR 0421
ENCODING 1057
SWIDTH 666 0
DWIDTH 24 0
BBX 19 26 3 1
BITMAP
03FC20
0E0660
1C03E0
1801E0
3800E0
7800E0
700060
700060
F00060
F00020
F00000
F00000
F00000
F00000
F00000
F00000
F00000
700020
700020
780060
380040
380040
1C0080
0C0080
060300
03DE00
ENDCHAR
STARTCHAR 0422
ENCODING 1058
SWIDTH 722 0
DWIDTH 26 0
BBX 21 26 3 0
BITMAP
FFFFF8
F07078
E07038
C07018
C07018
C07018
807008
807008
807008
807008
007000
007000
007000
007000
007000
007000
007000
007000
007000
007000
007000
007000
007000
007000
007000
07FF80
ENDCHAR
STARTCHAR 0423
ENCODING 1059
SWIDTH 805 0
DWIDTH 29 0
BBX 26 26 2 0
BITMAP
FFE0FFC0
0F000E00
0F000C00
07000C00
07800800
03801800
03C01000
01C03000
01E03000
00E02000
00F06000
00704000
0078C000
0038C000
003C8000
001D8000
001F8000
000F0000
000F0000
07860000
0F860000
0F860000
0F0C0000
0E0C0000
06180000
03F00000
ENDCHAR
STARTCHAR 0424
ENCODING 1060
SWIDTH 833 0
DWIDTH 30 0
BBX 27 26 2 0
BITMAP
01FFE000
000E0000
000E0000
000E0000
000E0000
03FFF800
0E0E0E00
380E0780
780E03C0
780E03C0
F00E01E0
F00E01E0
F00E01E0
F00E01E0
F00E01E0
F00E01E0
700E03C0
780E03C0
380E0780
0C0E0E00
03FFF800
000E0000
000E0000
000E0000
000E0000
01FFE000
ENDCHAR
STARTCHAR 0425
ENCODING 1061
SWIDTH 750 0
DWIDTH 27 0
BBX 24 26 2 0
BITMAP
FFE3FF
0F8070
078060
07C060
03C0C0
01E080
01E180
00E300
00F200
007600
007C00
003800
003C00
003C00
003E00
004F00
00CF00
008780
018780
0103C0
0303C0
0601E0
0600E0
0E00F0
1E00F0
FFC7FF
ENDCHAR
STARTCHAR 0426
ENCODING 1062
SWIDTH 777 0
DWIDTH 28 0
BBX 25 33 2 -7
BITMAP
FFC3FF00
0E003800
0E003800
0E003800
0E003800
0E003800
0E003800
0E003800
0E003800
0E003800
0E003800
0E003800
0E003800
0E003800
0E003800
0E003800
0E003800
0E003800
0E003800
0E003800
0E003800
0E003800
0E003800
0E003800
0E003800
FFFFFC00
00000780
00000380
00000180
00000180
00000080
00000080
00000080
ENDCHAR
STARTCHAR 0427
ENCODING 1063
SWIDTH 722 0
DWIDTH 26 0
BBX 23 26 1 0
BITMAP
FFC7FE
0E0070
0E0070
0E0070
0E0070
0E0070
0E0070
0E0070
0E0070
0E0070
0E0070
0E00F0
060170
030270
00FC70
000070
000070
000070
000070
000070
000070
000070
000070
000070
000070
000FFE
ENDCHAR
STARTCHAR 0428
ENCODING 1064
SWIDTH 1083 0
DWIDTH 39 0
BBX 35 26 2 0
BITMAP
FFC7FE7FE0
0E00E00E00
0E00E00E00
0E00E00E00
0E00E00E00
0E00E00E00
0E00E00E00
0E00E00E00
0E00E00E00
0E00E00E00
0E00E00E00
0E00E00E00
0E00E00E00
0E00E00E00
0E00E00E00
0E00E00E00
0E00E00E00
0E00E00E00
0E00E00E00
0E00E00E00
0E00E00E00
0E00E00E00
0E00E00E00
0E00E00E00
0E00E00E00
FFFFFFFFE0
ENDCHAR
STARTCHAR 0429
ENCODING 1065
SWIDTH 1111 0
DWIDTH 40 0
BBX 37 33 2 -7
BITMAP
FFC7FE3FF0
0E00E00700
0E00E00700
0E00E00700
0E00E00700
0E00E00700
0E00E00700
0E00E00700
0E00E00700
0E00E00700
0E00E00700
0E00E00700
0E00E00700
0E00E00700
0E00E00700
0E00E00700
0E00E00700
0E00E00700
0E00E00700
0E00E00700
0E00E00700
0E00E00700
0E00E00700
0E00E00700
0E00E00700
FFFFFFFF80
0000000078
0000000038
0000000018
0000000018
0000000008
0000000008
0000000008
ENDCHAR
STARTCHAR 042A
ENCODING 1066
SWIDTH 944 0
DWIDTH 34 0
BBX 29 26 3 0
BITMAP
FFFFC000
F01C0000
E01C0000
C01C0000
C01C0000
801C0000
801C0000
801C0000
801C0000
801C0000
001C0000
001FFF00
001C03C0
001C01E0
001C00F0
001C00F0
001C0078
001C0078
001C0078
001C0078
001C0078
001C00F0
001C00F0
001C01E0
001C03C0
01FFFF00
ENDCHAR
STARTCHAR 042B
ENCODING 1067
SWIDTH 1000 0
DWIDTH 36 0
BBX 32 26 2 0
BITMAP
FFC003FF
0E000070
0E000070
0E000070
0E000070
0E000070
0E000070
0E000070
0E000070
0E000070
0E000070
0FFF0070
0E01E070
0E00F070
0E007870
0E007870
0E003C70
0E003C70
0E003C70
0E003C70
0E003C70
0E007870
0E007870
0E00F070
0E01E070
FFFF83FF
ENDCHAR
STARTCHAR 042C
ENCODING 1068
SWIDTH 722 0
DWIDTH 26 0
BBX 22 26 2 0
BITMAP
FFC000
0E0000
0E0000
0E0000
0E0000
0E0000
0E0000
0E0000
0E0000
0E0000
0E0000
0FFF00
0E01E0
0E00F0
0E0078
0E0078
0E003C
0E003C
0E003C
0E003C
0E003C
0E0078
0E0078
0E00F0
0E01E0
FFFF80
ENDCHAR
STARTCHAR 042D
ENCODING 1069
SWIDTH 666 0
DWIDTH 24 0
BBX 19 27 3 0
BITMAP
004000
47B800
580E00
700700
600380
600380
4003C0
4001C0
4001C0
4001E0
0001E0
0001E0
0001E0
0FFFE0
0001E0
0001E0
0001E0
0001E0
7001C0
F801C0
F803C0
F00380
C00380
400700
600600
300C00
0FF800
ENDCHAR
STARTCHAR 042E
ENCODING 1070
SWIDTH 1000 0
DWIDTH 36 0
BBX 32 26 2 1
BITMAP
FFC03FC0
0E00C060
0E018030
0E018038
0E03001C
0E07001C
0E07001E
0E06000E
0E0E000E
0E0E000F
0E0E000F
0E0E000F
0FFE000F
0E0E000F
0E0E000F
0E0E000F
0E0E000F
0E0E000E
0E06000E
0E07001E
0E07001C
0E03001C
0E018038
0E008030
0E004060
FFC03FC0
ENDCHAR
STARTCHAR 042F
ENCODING 1071
SWIDTH 777 0
DWIDTH 28 0
BBX 24 26 2 0
BITMAP
00FFFF
038070
070070
0F0070
1E0070
1E0070
1E0070
1E0070
1E0070
0F0070
070070
03C070
007FF0
00C070
01C070
038070
038070
038070
078070
078070
870070
870070
8F0070
CF0070
7E0070
3C07FF
ENDCHAR
STARTCHAR 0430
ENCODING 1072
SWIDTH 527 0
DWIDTH 19 0
BBX 16 17 2 0
BITMAP
0F80
30E0
6070
6070
7870
7870
0070
01F0
1E70
7070
6070
E070
E071
E0F1
E171
717E
3E3C
ENDCHAR
STARTCHAR 0431
ENCODING 1073
SWIDTH 500 0
DWIDTH 18 0
BBX 14 26 2 0
BITMAP
0008
0008
0038
01F0
07F0
0FC0
1C00
3000
2000
4780
5860
B030
F038
F018
E01C
E01C
E01C
E01C
E01C
E01C
E01C
7018
7038
3030
1860
0780
ENDCHAR
STARTCHAR 0432
ENCODING 1074
SWIDTH 500 0
DWIDTH 18 0
BBX 14 17 2 0
BITMAP
FFC0
3870
3838
3838
3838
3838
3870
3860
3FC0
3830
3838
381C
381C
381C
383C
3838
FFE0
ENDCHAR
STARTCHAR 0433
ENCODING 1075
SWIDTH 444 0
DWIDTH 16 0
BBX 13 17 2 0
BITMAP
FFF8
3838
3818
3818
3808
3808
3808
3800
3800
3800
3800
3800
3800
3800
3800
3800
FE00
ENDCHAR
STARTCHAR 0434
ENCODING 1076
SWIDTH 527 0
DWIDTH 19 0
BBX 17 22 1 -5
BITMAP
1FFF00
061C00
041C00
041C00
041C00
041C00
041C00
041C00
041C00
081C00
081C00
081C00
081C00
181C00
101C00
101C00
FFFF80
E00380
C00180
800080
800080
800080
ENDCHAR
STARTCHAR 0435
ENCODING 1077
SWIDTH 472 0
DWIDTH 17 0
BBX 13 17 2 0
BITMAP
0F80
18E0
3060
7070
6030
E038
E038
FFF8
E000
E000
E000
E008
7010
7010
3020
1860
0780
ENDCHAR
STARTCHAR 0436
ENCODING 1078
SWIDTH 722 0
DWIDTH 26 0
BBX 24 17 1 0
BITMAP
1C7F38
321C4C
3A1C5C
3A1C5C
021C40
021C40
021C80
03FFC0
0C1C30
1C1C38
1C1C38
1C1C38
9C1C39
9C1C39
9C1C39
9C1C3A
787F1E
ENDCHAR
STARTCHAR 0437
ENCODING 1079
SWIDTH 444 0
DWIDTH 16 0
BBX 12 17 2 0
BITMAP
8F80
F0E0
E070
C070
C070
8060
00C0
0F80
00C0
0060
6070
F070
E070
C070
40E0
60C0
1F80
ENDCHAR
STARTCHAR 0438
ENCODING 1080
SWIDTH 555 0
DWIDTH 20 0
BBX 16 17 2 0
BITMAP
FE7F
381C
381C
381C
383C
385C
385C
389C
389C
391C
3A1C
3A1C
3C1C
3C1C
381C
381C
FE7F
ENDCHAR
STARTCHAR 0439
ENCODING 1081
SWIDTH 583 0
DWIDTH 21 0
BBX 17 24 2 0
BITMAP
0C3000
1C7800
1C3800
100800
081000
07E000
000000
FE7F80
300E00
300E00
301E00
303E00
302E00
304E00
308E00
318E00
330E00
320E00
340E00
380E00
380E00
300E00
300E00
FE7F80
ENDCHAR
STARTCHAR 043A
ENCODING 1082
SWIDTH 527 0
DWIDTH 19 0
BBX 16 17 2 0
BITMAP
FE38
384C
385C
385C
3840
3840
3880
3F00
38C0
3860
3870
3870
3871
3871
3871
383A
FE1C
ENDCHAR
STARTCHAR 043B
ENCODING 1083
SWIDTH 527 0
DWIDTH 19 0
BBX 16 17 1 0
BITMAP
0FFF
031C
031C
021C
021C
021C
021C
021C
021C
021C
021C
021C
661C
E41C
E41C
CC1C
787F
ENDCHAR
STARTCHAR 043C
ENCODING 1084
SWIDTH 583 0
DWIDTH 21 0
BBX 18 17 1 0
BITMAP
F80FC0
380F00
3C0F00
3C1F00
2C1700
2E1700
2E1700
262700
272700
272700
234700
234700
23C700
21C700
218700
218700
F89FC0
ENDCHAR
STARTCHAR 043D
ENCODING 1085
SWIDTH 583 0
DWIDTH 21 0
BBX 17 17 2 0
BITMAP
FE3F80
380E00
380E00
380E00
380E00
380E00
380E00
380E00
3FFE00
380E00
380E00
380E00
380E00
380E00
380E00
380E00
FE3F80
ENDCHAR
STARTCHAR 043E
ENCODING 1086
SWIDTH 500 0
DWIDTH 18 0
BBX 14 17 2 0
BITMAP
0780
1860
3030
7038
7018
E01C
E01C
E01C
E01C
E01C
E01C
E01C
7018
7038
3030
1860
0780
ENDCHAR
STARTCHAR 043F
ENCODING 1087
SWIDTH 583 0
DWIDTH 21 0
BBX 17 17 2 0
BITMAP
FFFF80
380E00
380E00
380E00
380E00
380E00
380E00
380E00
380E00
380E00
380E00
380E00
380E00
380E00
380E00
380E00
FE3F80
ENDCHAR
STARTCHAR 0440
ENCODING 1088
SWIDTH 527 0
DWIDTH 19 0
BBX 16 25 1 -8
BITMAP
FCF0
1D8C
1F0E
1E06
1E07
1C07
1C07
1C07
1C07
1C07
1C07
1C07
1C07
1E06
1E0E
1D0C
1CF0
1C00
1C00
1C00
1C00
1C00
1C00
1C00
FF80
ENDCHAR
STARTCHAR 0441
ENCODING 1089
SWIDTH 444 0
DWIDTH 16 0
BBX 12 17 2 0
BITMAP
0F80
1860
3030
7030
6070
E070
E070
E000
E000
E000
E000
E000
6010
7010
3020
1840
0F80
ENDCHAR
STARTCHAR 0442
ENCODING 1090
SWIDTH 472 0
DWIDTH 17 0
BBX 13 17 2 0
BITMAP
FFF8
C718
8718
8708
8708
0708
0708
0700
0700
0700
0700
0700
0700
0700
0700
0700
1FC0
ENDCHAR
STARTCHAR 0443
ENCODING 1091
SWIDTH 555 0
DWIDTH 20 0
BBX 18 25 1 -8
BITMAP
FF1FC0
1C0600
1C0600
0C0400
0E0400
0E0400
060800
070800
070800
031000
039000
039000
01F000
01E000
01E000
00E000
00C000
004000
00C000
008000
708000
718000
710000
730000
3C0000
ENDCHAR
STARTCHAR 0444
ENCODING 1092
SWIDTH 666 0
DWIDTH 24 0
BBX 20 33 2 -8
BITMAP
010400
010800
009800
00D800
00D000
007000
007000
007000
0E7780
3978C0
30F8E0
70F060
607070
E07070
E07070
E07070
E07070
E07070
E07070
E07070
607070
70F060
30F8E0
3978C0
0E7780
007000
007000
007000
007000
00D000
009800
018800
010400
ENDCHAR
STARTCHAR 0445
ENCODING 1093
SWIDTH 527 0
DWIDTH 19 0
BBX 16 17 2 0
BITMAP
FE7E
3C38
1C30
1C20
0E40
0E40
0780
0380
0380
03C0
03C0
04E0
0860
0870
1038
3038
FCFF
ENDCHAR
STARTCHAR 0446
ENCODING 1094
SWIDTH 555 0
DWIDTH 20 0
BBX 18 22 2 -5
BITMAP
FE3F80
380E00
380E00
380E00
380E00
380E00
380E00
380E00
380E00
380E00
380E00
380E00
380E00
380E00
380E00
380E00
FFFFC0
0001C0
0000C0
0000C0
000040
000040
ENDCHAR
STARTCHAR 0447
ENCODING 1095
SWIDTH 500 0
DWIDTH 18 0
BBX 15 17 1 0
BITMAP
FEFE
3838
3838
3838
3838
3838
3838
3838
1C78
0FB8
0038
0038
0038
0038
0038
0038
00FE
ENDCHAR
STARTCHAR 0448
ENCODING 1096
SWIDTH 805 0
DWIDTH 29 0
BBX 25 17 2 0
BITMAP
FE7F3F80
381C0E00
381C0E00
381C0E00
381C0E00
381C0E00
381C0E00
381C0E00
381C0E00
381C0E00
381C0E00
381C0E00
381C0E00
381C0E00
381C0E00
381C0E00
FFFFFF80
ENDCHAR
STARTCHAR 0449
ENCODING 1097
SWIDTH 777 0
DWIDTH 28 0
BBX 25 22 2 -5
BITMAP
FE7F7F00
381C1C00
381C1C00
381C1C00
381C1C00
381C1C00
381C1C00
381C1C00
381C1C00
381C1C00
381C1C00
381C1C00
381C1C00
381C1C00
381C1C00
381C1C00
FFFFFF80
00000380
00000180
00000080
00000080
00000080
ENDCHAR
STARTCHAR 044A
ENCODING 1098
SWIDTH 583 0
DWIDTH 21 0
BBX 18 17 2 0
BITMAP
FFE000
C38000
838000
838000
838000
038000
038000
038000
03FE00
038380
038380
0381C0
0381C0
0381C0
038380
038380
0FFE00
ENDCHAR
STARTCHAR 044B
ENCODING 1099
SWIDTH 694 0
DWIDTH 25 0
BBX 21 17 2 0
BITMAP
FE07F8
3800E0
3800E0
3800E0
3800E0
3800E0
3800E0
3800E0
3FE0E0
3838E0
3838E0
381CE0
381CE0
381CE0
3838E0
3838E0
FFE7F8
ENDCHAR
STARTCHAR 044C
ENCODING 1100
SWIDTH 472 0
DWIDTH 17 0
BBX 14 17 2 0
BITMAP
FE00
3800
3800
3800
3800
3800
3800
3800
3FE0
3838
3838
381C
381C
381C
3838
3838
FFE0
ENDCHAR
STARTCHAR 044D
ENCODING 1101
SWIDTH 444 0
DWIDTH 16 0
BBX 12 17 2 0
BITMAP
8F00
F1C0
E0C0
C060
8070
8070
0070
1FF0
0070
0070
4070
F070
E060
C060
C0C0
6180
1F00
ENDCHAR
STARTCHAR 044E
ENCODING 1102
SWIDTH 666 0
DWIDTH 24 0
BBX 21 17 2 0
BITMAP
FE0F00
3830C0
386060
38E070
38E070
39C038
39C038
39C038
3FC038
39C038
39C038
39C038
38C070
38E070
386060
3830C0
FE0F00
ENDCHAR
STARTCHAR 044F
ENCODING 1103
SWIDTH 527 0
DWIDTH 19 0
BBX 16 17 1 0
BITMAP
03FF
0E1C
1C1C
1C1C
1C1C
1C1C
1C1C
0E1C
03FC
061C
0C1C
1C1C
1C1C
1C1C
9C1C
9C1C
787F
ENDCHAR
STARTCHAR 0450
ENCODING 1104
SWIDTH 472 0
DWIDTH 17 0
BBX 13 25 2 1
BITMAP
3000
3800
1C00
0C00
0600
0300
0000
0000
0F80
18E0
3060
7070
6030
E038
E038
FFF8
E000
E000
E000
E008
7010
7010
3010
1860
0780
ENDCHAR
STARTCHAR 0451
ENCODING 1105
SWIDTH 472 0
DWIDTH 17 0
BBX 13 24 2 0
BITMAP
1860
3870
3870
1860
0000
0000
0000
0F80
18E0
3060
7030
6030
E038
E038
FFF8
E000
E000
E000
E008
7010
7010
3020
1860
0780
ENDCHAR
STARTCHAR 0452
ENCODING 1106
SWIDTH 472 0
DWIDTH 17 0
BBX 14 33 1 -9
BITMAP
8200
4400
6C00
2C00
3800
3800
3800
3800
FFC0
3800
3800
3800
3800
39E0
3E38
3818
381C
381C
381C
381C
381C
381C
381C
381C
FE18
0038
0038
0030
0070
0060
00C0
0080
0100
ENDCHAR
STARTCHAR 0453
ENCODING 1107
SWIDTH 444 0
DWIDTH 16 0
BBX 13 25 2 0
BITMAP
0060
0060
00E0
01C0
0100
0200
0000
0000
FFF8
3838
3818
3818
3810
3808
3808
3800
3800
3800
3800
3800
3800
3800
3800
3800
FE00
ENDCHAR
STARTCHAR 0454
ENCODING 1108
SWIDTH 444 0
DWIDTH 16 0
BBX 12 17 2 0
BITMAP
0F90
1870
3030
7030
6010
E010
E000
FFC0
E000
E000
E020
E070
6070
7010
3010
1820
0FC0
ENDCHAR
STARTCHAR 0455
ENCODING 1109
SWIDTH 444 0
DWIDTH 16 0
BBX 12 17 2 0
BITMAP
3E40
6140
C0C0
C040
C040
E040
7800
7F00
1FC0
07E0
80F0
C070
C030
E030
E030
9860
87C0
ENDCHAR
STARTCHAR 0456
ENCODING 1110
SWIDTH 277 0
DWIDTH 10 0
BBX 7 25 2 0
BITMAP
30
78
78
30
00
00
00
00
F8
38
38
38
38
38
38
38
38
38
38
38
38
38
38
38
FE
ENDCHAR
STARTCHAR 0457
ENCODING 1111
SWIDTH 305 0
DWIDTH 11 0
BBX 9 24 1 0
BITMAP
6180
E380
E380
6180
0000
0000
0000
7E00
0E00
0E00
0E00
0E00
0E00
0E00
0E00
0E00
0E00
0E00
0E00
0E00
0E00
0E00
0E00
7F80
ENDCHAR
STARTCHAR 0458
ENCODING 1112
SWIDTH 305 0
DWIDTH 11 0
BBX 9 34 -1 -8
BITMAP
0180
0380
0380
0180
0000
0000
0000
0000
0000
1F80
0380
0380
0380
0380
0380
0380
0380
0380
0380
0380
0380
0380
0380
0380
0380
0380
0380
0380
4380
E380
E300
C300
4600
3C00
ENDCHAR
STARTCHAR 0459
ENCODING 1113
SWIDTH 694 0
DWIDTH 25 0
BBX 23 17 1 0
BITMAP
0FFF00
031C00
031C00
021C00
021C00
021C00
021C00
021FF0
021C1C
021C1C
021C0E
021C0E
E61C0E
E41C0E
E41C0C
CC1C1C
787FF0
ENDCHAR
STARTCHAR 045A
ENCODING 1114
SWIDTH 722 0
DWIDTH 26 0
BBX 23 17 2 0
BITMAP
FE7F00
381C00
381C00
381C00
381C00
381C00
381C00
381C00
3FFFF0
381C38
381C1C
381C0E
381C0E
381C0E
381C1C
381C1C
FE7FF0
ENDCHAR
STARTCHAR 045B
ENCODING 1115
SWIDTH 527 0
DWIDTH 19 0
BBX 16 25 1 0
BITMAP
8200
4400
6C00
2C00
3800
3800
3800
3800
FFC0
3800
3800
3800
3800
39F0
3E38
381C
381C
381C
381C
381C
381C
381C
381C
381C
FE7F
ENDCHAR
STARTCHAR 045C
ENCODING 1116
SWIDTH 527 0
DWIDTH 19 0
BBX 16 25 2 1
BITMAP
0038
0038
0070
0060
00C0
0100
0000
0000
FE38
384C
385C
385C
3840
3840
3880
3F00
38C0
3860
3870
3870
3871
3871
3871
383A
FE1C
ENDCHAR
STARTCHAR 045D
ENCODING 1117
SWIDTH 555 0
DWIDTH 20 0
BBX 16 25 2 0
BITMAP
1800
1C00
0E00
0600
0300
0080
0000
0000
FE7F
381C
381C
381C
383C
385C
385C
389C
389C
391C
3A1C
3A1C
3C1C
3C1C
381C
381C
FE7F
ENDCHAR
STARTCHAR 045E
ENCODING 1118
SWIDTH 527 0
DWIDTH 19 0
BBX 17 32 1 -8
BITMAP
061800
0F3C00
0E1C00
040800
03F000
000000
000000
FF1F80
1C0600
1C0400
1C0400
0E0C00
0E0800
0E0800
071800
071000
071000
031000
03B000
03A000
01A000
01E000
01C000
00C000
00C000
008000
008000
718000
710000
710000
720000
3C0000
ENDCHAR
STARTCHAR 045F
ENCODING 1119
SWIDTH 583 0
DWIDTH 21 0
BBX 17 23 2 -6
BITMAP
FE3F80
380E00
380E00
380E00
380E00
380E00
380E00
380E00
380E00
380E00
380E00
380E00
380E00
380E00
380E00
380E00
FFFF80
00C000
01C000
01C000
01C000
01C000
01C000
ENDCHAR
STARTCHAR 0460
ENCODING 1120
SWIDTH 944 0
DWIDTH 34 0
BBX 29 26 3 0
BITMAP
F00F00F8
F00F00F8
F00F00F8
F00F0078
F00F0078
F00F0078
F00F0078
78070038
78078038
78078038
78078038
78078030
3C03C030
3C03C030
3C07C030
3E05E020
1E05E020
1E08F060
0F08F040
0F087840
07907C80
07903C80
03E01F00
03E01F00
01C00E00
00C00400
ENDCHAR
STARTCHAR 0461
ENCODING 1121
SWIDTH 722 0
DWIDTH 26 0
BBX 22 17 2 0
BITMAP
E0707C
E0703C
E0703C
E0703C
F0303C
70381C
70381C
703818
703818
383C18
383C10
3C4E30
1C4E20
0E8720
0F83C0
070380
020180
ENDCHAR
STARTCHAR 0462
ENCODING 1122
SWIDTH 833 0
DWIDTH 30 0
BBX 25 26 3 0
BITMAP
07FE0000
00700000
00700000
FFFFF800
F0707800
E0701800
C0701800
C0700800
80700800
80700800
80700800
00700000
007FF000
00701C00
00700E00
00700700
00700780
00700780
00700380
00700380
00700780
00700780
00700700
00700E00
00701C00
07FFF000
ENDCHAR
STARTCHAR 0463
ENCODING 1123
SWIDTH 583 0
DWIDTH 21 0
BBX 18 25 2 0
BITMAP
082000
044000
06C000
02C000
038000
038000
038000
038000
FFFE00
C38600
838600
838200
838200
038200
038000
038000
03FE00
038380
038380
0381C0
0381C0
0381C0
038380
038380
0FFE00
ENDCHAR
STARTCHAR 0464
ENCODING 1124
SWIDTH 944 0
DWIDTH 34 0
BBX 30 26 2 1
BITMAP
FFC07F88
0E01C078
0E038038
0E070018
0E070018
0E0E0008
0E0E0008
0E0E0008
0E1E0008
0E1E0000
0E1E0000
0E1E0000
0FFFFFC0
0E1E0000
0E1E0000
0E1E0000
0E1E0000
0E1E0038
0E0E007C
0E0F007C
0E07003C
0E07001C
0E038008
0E038018
0E00C030
FFC07FC0
ENDCHAR
STARTCHAR 0465
ENCODING 1125
SWIDTH 611 0
DWIDTH 22 0
BBX 19 17 2 0
BITMAP
FE1F20
3870E0
38E060
38E060
39C020
39C020
39C000
3FFF80
39C000
39C000
39C040
39C0E0
38C0E0
38E020
386020
383040
FE0F80
ENDCHAR
STARTCHAR 0466
ENCODING 1126
SWIDTH 861 0
DWIDTH 31 0
BBX 28 26 2 0
BITMAP
00020000
00060000
00070000
00070000
000F8000
000F8000
001BC000
001BC000
0031C000
0031E000
0060E000
0060F000
00C07000
00C07800
00807800
01803C00
01803C00
03FFFC00
020E1E00
060E0E00
060E0F00
0C0E0700
0C0E0780
1C0E0780
3E0E07C0
FF3FDFF0
ENDCHAR
STARTCHAR 0467
ENCODING 1127
SWIDTH 583 0
DWIDTH 21 0
BBX 20 17 0 0
BITMAP
002000
006000
007000
00F000
00B800
01B800
011C00
031C00
020E00
060E00
040700
0E0F00
093380
18A380
10C180
3041C0
FC47F0
ENDCHAR
STARTCHAR 0468
ENCODING 1128
SWIDTH 1194 0
DWIDTH 43 0
BBX 40 26 2 0
BITMAP
FFC0002000
0E00006000
0E00007000
0E00007000
0E0000F800
0E0000B800
0E0001BC00
0E0001BC00
0E00031C00
0E00031E00
0E00060E00
0E00060F00
0E000C0700
0E000C0780
0E00080780
0E001803C0
0E001803C0
0FFFFFFFC0
0E0020E1E0
0E0060E0E0
0E0060E0F0
0E00C0E070
0E00C0E078
0E01C0E078
0E03E0E07C
FFCFF3FDFF
ENDCHAR
STARTCHAR 0469
ENCODING 1129
SWIDTH 861 0
DWIDTH 31 0
BBX 28 17 2 0
BITMAP
FE002000
38006000
38007000
3800F000
3800B800
3801B800
38011C00
38031C00
38020E00
38020E00
38040700
3FFE0F00
3809B380
3808A380
3810C1C0
383041C0
FE7C43F0
ENDCHAR
STARTCHAR 046A
ENCODING 1130
SWIDTH 1000 0
DWIDTH 36 0
BBX 33 26 2 0
BITMAP
07FFFFE000
00F8018000
00F8010000
007C020000
003C060000
003E040000
001F0C0000
000F180000
0007900000
0007B00000
0003E00000
003FFE0000
00E1C18000
01C1C1C000
0381C0E000
0381C0E000
0781C0F000
0781C0F000
0701C07000
0701C07000
8701C07880
8F01C07880
8F01C07880
8F01C03880
5E01C03D00
3C0FFC1E00
ENDCHAR
STARTCHAR 046B
ENCODING 1131
SWIDTH 722 0
DWIDTH 26 0
BBX 25 17 1 0
BITMAP
0FFFF000
03802000
01C04000
01E08000
00F18000
00790000
003E0000
03FFE000
0E1C3000
0C1C3800
1C1C1800
1C1C1800
9C1C1C80
9C1C1D00
9C1C1D00
981C0D00
707F0E00
ENDCHAR
STARTCHAR 046C
ENCODING 1132
SWIDTH 1333 0
DWIDTH 48 0
BBX 45 26 2 0
BITMAP
FFC07FFFFE00
0E001F001800
0E000F003000
0E0007806000
0E0007804000
0E0003C0C000
0E0001E18000
0E0001E10000
0E0000F30000
0E0000F60000
0E00007C0000
0FFFFFFFE000
0E001C383800
0E0038381C00
0E0070381E00
0E0070380E00
0E00F0380E00
0E00F0380F00
0E00E0380F00
0E00E0380F00
0E10E0380F08
0E10E0380708
0E11E0380788
0E11E0380788
0E09C0380390
FFC781FF81E0
ENDCHAR
STARTCHAR 046D
ENCODING 1133
SWIDTH 944 0
DWIDTH 34 0
BBX 32 17 2 0
BITMAP
FE0FFFE0
38070040
38038080
3801C100
3801E300
3800F200
38007C00
3FFFFFC0
380C3860
381C3870
38183830
38183830
38183839
3898383A
3898383A
38B8381A
FE70FE1C
ENDCHAR
STARTCHAR 046E
ENCODING 1134
SWIDTH 555 0
DWIDTH 20 0
BBX 16 41 2 -8
BITMAP
1C18
1C38
0E58
0640
0780
0380
1FE0
3878
601C
E01C
F00E
F00E
F00E
700E
000E
001C
0018
0070
3FC0
3838
381C
301E
300F
200F
200F
000F
000F
001F
003E
00FC
07F8
3FF0
7FC0
7800
C000
8000
8038
8078
8070
40E0
3F80
ENDCHAR
STARTCHAR 046F
ENCODING 1135
SWIDTH 444 0
DWIDTH 16 0
BBX 12 28 2 -6
BITMAP
30E0
38E0
1960
1E00
0E00
3F80
40E0
C070
E070
6070
0070
00E0
00C0
3F00
30C0
2060
4070
0070
0070
00F0
03E0
3FC0
7E00
E000
80C0
81C0
C380
3E00
ENDCHAR
STARTCHAR 0470
ENCODING 1136
SWIDTH 888 0
DWIDTH 32 0
BBX 31 26 1 0
BITMAP
003FF000
00038000
00038038
FF03807C
3C03809E
1C03819E
1E03813E
0E03833E
0F03821C
07838600
07838400
03C38400
03C38800
01E38800
00E39800
00F39000
00739000
007BA000
003BA000
003FC000
00038000
00038000
00038000
00038000
00038000
003FF000
ENDCHAR
STARTCHAR 0471
ENCODING 1137
SWIDTH 750 0
DWIDTH 27 0
BBX 25 31 1 -8
BITMAP
00FF8000
001C0000
001C0000
001C0000
001C0000
001C0000
FE1C0700
381C0980
381C1380
1C1C1380
1C1C3300
0C1C2000
0E1C2000
0E1C6000
071C4000
071C4000
071C4000
039C8000
039C8000
019C8000
01DD0000
01DD0000
00FF0000
001C0000
001C0000
001C0000
001C0000
001C0000
001C0000
001C0000
00FF8000
ENDCHAR
STARTCHAR 0472
ENCODING 1138
SWIDTH 722 0
DWIDTH 26 0
BBX 21 27 3 0
BITMAP
002000
03DC00
060300
0C0180
1C01C0
3800E0
3800E0
7800F0
700070
700070
F00078
F00078
F00078
FFFFF8
F00078
F00078
F00078
F00078
700070
700070
7800F0
3800E0
3800E0
1C01C0
0C0180
060300
03FE00
ENDCHAR
STARTCHAR 0473
ENCODING 1139
SWIDTH 500 0
DWIDTH 18 0
BBX 14 17 2 0
BITMAP
0780
1860
3030
7038
7018
E01C
E01C
E01C
FFFC
E01C
E01C
E01C
6018
7038
3030
1860
0780
ENDCHAR
STARTCHAR 0474
ENCODING 1140
SWIDTH 805 0
DWIDTH 29 0
BBX 27 26 2 1
BITMAP
FFF007C0
0F0009E0
070009E0
070013E0
078013E0
038011C0
03802000
03C02000
01C02000
01E02000
01E04000
00E04000
00F04000
00F0C000
00708000
00788000
00398000
00390000
003D0000
001D0000
001F0000
001E0000
000E0000
000E0000
000C0000
00040000
ENDCHAR
STARTCHAR 0475
ENCODING 1141
SWIDTH 555 0
DWIDTH 20 0
BBX 18 17 1 0
BITMAP
FF0380
3C02C0
1C05C0
1C05C0
0C0C00
0E0800
0E0800
071800
071000
031000
039000
01A000
01E000
01E000
00C000
00C000
004000
ENDCHAR
STARTCHAR 0476
ENCODING 1142
SWIDTH 805 0
DWIDTH 29 0
BBX 27 35 2 0
BITMAP
00C60000
00E60000
00E70000
00738000
00398000
0008C000
00044000
00000000
00000000
FFF007C0
0F0009E0
070009E0
070013E0
078013E0
038011C0
03802000
03C02000
01C02000
01E02000
01E04000
00E04000
00F04000
00708000
00708000
00788000
00398000
00390000
003D0000
001D0000
001F0000
001E0000
000E0000
000E0000
00040000
00040000
ENDCHAR
STARTCHAR 0477
ENCODING 1143
SWIDTH 555 0
DWIDTH 20 0
BBX 18 25 1 1
BITMAP
39C000
1CE000
0C6000
063000
031800
010800
000000
000000
FF0380
3C02C0
1C05C0
1C05C0
0C0C00
0E0800
0E0800
071800
071000
031000
039000
01A000
01E000
01E000
00C000
00C000
004000
ENDCHAR
STARTCHAR 0478
ENCODING 1144
SWIDTH 1222 0
DWIDTH 44 0
BBX 40 35 3 -9
BITMAP
0040000000
03B8000000
0E0C000000
0C06000000
1803000000
3803800000
3803800000
7003C00000
7001C00000
7001C00000
F001E7F80E
F001E0E01B
F001E0E017
F001E07037
F001E07020
F001E07020
F001E03860
F001E03840
7001C01840
7001C01CC0
7003C01C80
3803800E80
3803800F80
1803000700
0C06000700
0E0E000700
03B8000200
0040000200
0000000400
0000000400
0000000400
0000000400
0000000700
0000000780
0000000300
ENDCHAR
STARTCHAR 0479
ENCODING 1145
SWIDTH 972 0
DWIDTH 35 0
BBX 32 25 2 -8
BITMAP
0F87F80E
18C1E01B
3060E017
7070F037
60307020
E0387020
E0383860
E0383840
E0381C40
E0381CC0
E0381C80
E0380E80
60300F80
70700700
30600700
18C00200
0F800200
00000200
00000400
00000400
00000400
00000600
00000780
00000780
00000300
ENDCHAR
STARTCHAR 047A
ENCODING 1146
SWIDTH 888 0
DWIDTH 32 0
BBX 27 31 3 -3
BITMAP
000E0000
001F0000
003F8000
01DF7000
030E1800
0E000E00
1C000700
1C000700
38000380
780003C0
700003C0
700001C0
F00001E0
F00001E0
F00001E0
F00001E0
F00001E0
F00001E0
F00001E0
700001C0
700003C0
780003C0
38000380
1C000700
1C000700
0E000E00
030E1800
01DF7000
003F8000
001F0000
000E0000
ENDCHAR
STARTCHAR 047B
ENCODING 1147
SWIDTH 611 0
DWIDTH 22 0
BBX 18 20 2 -2
BITMAP
00C000
01E000
07F800
18C600
380700
700380
700380
E001C0
E001C0
E001C0
E001C0
E001C0
E001C0
700380
700380
300700
18C600
07F800
01E000
00C000
ENDCHAR
STARTCHAR 047C
ENCODING 1148
SWIDTH 1083 0
DWIDTH 39 0
BBX 34 34 3 0
BITMAP
0007E00000
00181C0000
0031C78000
0067E1E000
000430F000
0004300000
0004100000
0000110000
03FC0EF000
0606181800
0C0F3C0C00
1C1F3E0E00
381F3E0700
381F3E0700
780C1C0780
7000000380
F000000380
F0000003C0
F0000003C0
F0000003C0
F0000003C0
F00FFC03C0
F000E003C0
F000E003C0
F000E003C0
7000E00380
7000E00380
7800E00780
3800E00700
3800E00700
1C00E00E00
0C01F00C00
0601301800
03DE1FF000
ENDCHAR
STARTCHAR 047D
ENCODING 1149
SWIDTH 777 0
DWIDTH 28 0
BBX 24 23 2 0
BITMAP
007C00
018380
0338F0
004C20
004400
000400
0783E0
186618
30E70C
70E70E
70C30E
E00007
E00007
E00007
E0FF07
E03807
E03807
E03807
60380E
70380E
30380C
186418
07C3E0
ENDCHAR
STARTCHAR 047E
ENCODING 1150
SWIDTH 944 0
DWIDTH 34 0
BBX 29 33 3 0
BITMAP
1FFFFF80
1C070180
18070080
18070080
183FE080
00000000
00000000
F00F00F8
F00F00F8
F00F0078
F00F0078
F00F0078
F00F0078
F0070078
78070038
78078038
78078038
78078038
78038030
3C03C030
3C03C030
3C03C030
3E03E020
1E04E020
1E04F060
0F087040
0F087840
07983C40
07D03C80
03F01F00
01E00F00
01E00E00
00C00600
ENDCHAR
STARTCHAR 047F
ENCODING 1151
SWIDTH 722 0
DWIDTH 26 0
BBX 22 23 2 0
BITMAP
FFFFF0
E07030
C07030
807010
01FC00
000000
E0707C
E0703C
E0703C
E0783C
F0781C
70381C
70381C
703818
703C18
383C18
383E10
3C4E30
1C4720
0E8720
0E83C0
0703C0
020180
ENDCHAR
STARTCHAR 0480
ENCODING 1152
SWIDTH 666 0
DWIDTH 24 0
BBX 22 26 1 0
BITMAP
FFC000
0E0000
0E0000
0E0000
0E0000
0E0000
0E0000
0E0000
0E0000
0E0000
0E0000
0E0000
060000
070000
01FFC0
0001C0
0001C0
0001C0
0001C0
0001C0
0001C0
0001C0
0001C0
0001C0
0001C0
003FFC
ENDCHAR
STARTCHAR 0481
ENCODING 1153
SWIDTH 444 0
DWIDTH 16 0
BBX 14 17 1 0
BITMAP
FE00
3800
3800
3800
3800
3800
3800
3800
1C00
0FF0
0070
0070
0070
0070
0070
0070
01FC
ENDCHAR
STARTCHAR 0482
ENCODING 1154
SWIDTH 388 0
DWIDTH 14 0
BBX 11 13 2 -5
BITMAP
0060
08C0
0D80
0780
0300
07C0
CCC0
7800
3800
6C00
6600
C000
8000
ENDCHAR
STARTCHAR 0483
ENCODING 1155
SWIDTH 0 0
DWIDTH 0 0
BBX 13 3 -16 18
BITMAP
F838
E738
E0F8
ENDCHAR
STARTCHAR 0484
ENCODING 1156
SWIDTH 0 0
DWIDTH 0 0
BBX 15 5 -17 19
BITMAP
07C0
1FF0
3018
4004
8002
ENDCHAR
STARTCHAR 0485
ENCODING 1157
SWIDTH 0 0
DWIDTH 0 0
BBX 6 6 -12 19
BITMAP
38
E4
C0
C0
C0
40
ENDCHAR
STARTCHAR 0486
ENCODING 1158
SWIDTH 0 0
DWIDTH 0 0
BBX 6 6 -12 19
BITMAP
70
98
0C
0C
08
18
ENDCHAR
STARTCHAR 0487
ENCODING 1159
SWIDTH 0 0
DWIDTH 0 0
BBX 17 4 -18 29
BITMAP
07F000
380E00
600300
800080
ENDCHAR
STARTCHAR 0488
ENCODING 1160
SWIDTH 0 0
DWIDTH 0 0
BBX 40 36 -29 -9
BITMAP
00003C0000
0000420000
0000810000
0000810000
0000000000
03C00003C0
0420000420
0830000C10
0810000810
0000000000
0000000000
0000000000
0000000000
0000000000
0000000000
0000000000
3C0000003C
4200000042
C100000083
8100000081
0000000000
0000000000
0000000000
0000000000
0000000000
0000000000
0000000000
07E00007E0
0420000420
0810000810
0810000810
0000000000
00003C0000
0000420000
0000830000
0000810000
ENDCHAR
STARTCHAR 0489
ENCODING 1161
SWIDTH 0 0
DWIDTH 0 0
BBX 39 39 -29 -10
BITMAP
0000080000
0000100000
0000200000
0000200000
0100380000
01003C0000
01001803C0
0100000600
01B0000C00
00F0000E00
0070000E00
0000000400
0000000000
0000000000
0000000000
0000000000
0000000000
0000000000
0400000070
8E000000EC
4E000000E2
3E00000040
0000000000
0000000000
0000000000
0000000000
0000000000
0040000000
00E0000E00
00E0000F00
0060000D80
08C0000080
0700180080
00003C0080
00001C0080
0000040000
0000080000
0000080000
0000100000
ENDCHAR
STARTCHAR 0490
ENCODING 1168
SWIDTH 611 0
DWIDTH 22 0
BBX 18 34 2 0
BITMAP
000040
000040
000040
0000C0
0000C0
0000C0
0001C0
0007C0
FFFFC0
0E0000
0E0000
0E0000
0E0000
0E0000
0E0000
0E0000
0E0000
0E0000
0E0000
0E0000
0E0000
0E0000
0E0000
0E0000
0E0000
0E0000
0E0000
0E0000
0E0000
0E0000
0E0000
0E0000
0E0000
FFE000
ENDCHAR
STARTCHAR 0491
ENCODING 1169
SWIDTH 444 0
DWIDTH 16 0
BBX 13 22 2 0
BITMAP
0008
0008
0018
0018
0038
FFF8
3800
3800
3800
3800
3800
3800
3800
3800
3800
3800
3800
3800
3800
3800
3800
FE00
ENDCHAR
STARTCHAR 04A4
ENCODING 1188
SWIDTH 1000 0
DWIDTH 36 0
BBX 32 26 2 0
BITMAP
FFC3FFFF
0E00380F
0E003807
0E003803
0E003803
0E003803
0E003801
0E003801
0E003801
0E003801
0E003800
0E003800
0FFFF800
0E003800
0E003800
0E003800
0E003800
0E003800
0E003800
0E003800
0E003800
0E003800
0E003800
0E003800
0E003800
FFC3FF00
ENDCHAR
STARTCHAR 04A5
ENCODING 1189
SWIDTH 722 0
DWIDTH 26 0
BBX 22 17 2 0
BITMAP
FE3FFC
380E1C
380E0C
380E04
380E04
380E04
380E04
380E00
3FFE00
380E00
380E00
380E00
380E00
380E00
380E00
380E00
FE3F80
ENDCHAR
STARTCHAR 04D8
ENCODING 1240
SWIDTH 694 0
DWIDTH 25 0
BBX 20 27 3 0
BITMAP
004000
07BC00
0C0600
180300
300180
2001C0
6001C0
4001E0
4000E0
4000E0
0000F0
0000F0
0000F0
0000F0
FFFFF0
F000F0
F000F0
F000F0
F000F0
7000E0
7000E0
7801C0
3801C0
380180
1C0380
0E0600
07BC00
ENDCHAR
STARTCHAR 04D9
ENCODING 1241
SWIDTH 472 0
DWIDTH 17 0
BBX 13 17 2 0
BITMAP
1F80
30C0
4060
4070
8030
8038
0038
0038
FFF8
E038
E038
E038
7030
7070
3060
18C0
0F80
ENDCHAR
STARTCHAR 0510
ENCODING 1296
SWIDTH 638 0
DWIDTH 23 0
BBX 18 26 3 1
BITMAP
0FF880
1C0E80
380380
300380
700180
700180
700080
700080
700080
380000
380000
0C0000
03F000
1E0000
380000
780000
F00100
F003C0
F003C0
F001C0
F001C0
F000C0
780080
380180
1C0300
0FFC00
ENDCHAR
STARTCHAR 0511
ENCODING 1297
SWIDTH 444 0
DWIDTH 16 0
BBX 13 17 2 0
BITMAP
0FC0
3830
7038
E038
E038
E038
E000
7000
1F00
3000
7000
E038
E038
E018
F018
7830
1FC0
ENDCHAR
STARTCHAR 05D0
ENCODING 1488
SWIDTH 583 0
DWIDTH 21 0
BBX 16 21 3 0
BITMAP
4008
4018
C03C
E03E
E03E
F03F
F81F
7E1F
7F0E
5F90
8FE0
87E0
83F0
C1F8
E0FC
F07E
F81E
FC0E
FC0E
FC04
F808
ENDCHAR
STARTCHAR 1D79
ENCODING 7545
SWIDTH 416 0
DWIDTH 15 0
BBX 13 23 1 -6
BITMAP
7FF8
7FF0
7FE0
00C0
0100
0200
0400
0800
1800
1800
1E00
0F00
0780
1BC0
61F0
4070
C038
C018
C018
C010
6030
3060
0F80
ENDCHAR
STARTCHAR 1E80
ENCODING 7808
SWIDTH 1055 0
DWIDTH 38 0
BBX 36 34 1 1
BITMAP
0007000000
0007000000
0003800000
0000C00000
0000600000
0000200000
0000000000
0000000000
FFE7FF3FF0
0F00F80780
0F00780300
0700780300
0780780600
0780F80600
0380FC0600
0380BC0400
03C09C0C00
03C19C0C00
01C19E0C00
01E10E1800
01E30E1800
00E30E1800
00E30F1000
00F2073000
0076073000
0076072000
007403E000
007C03E000
003C03C000
003C01C000
003801C000
001801C000
0018018000
0010008000
ENDCHAR
STARTCHAR 1E81
ENCODING 7809
SWIDTH 777 0
DWIDTH 28 0
BBX 27 25 0 1
BITMAP
00E00000
00700000
00380000
00180000
000C0000
00060000
00000000
00000000
FF3FCFE0
1C0F0300
1C070300
0C070200
0E070200
0E0F8200
070B8400
07098400
0309C400
0391C800
0190C800
01D0E800
01E0F000
00E07000
00E07000
00406000
00402000
ENDCHAR
STARTCHAR 1E82
ENCODING 7810
SWIDTH 1055 0
DWIDTH 38 0
BBX 36 34 1 1
BITMAP
00000E0000
00000E0000
00001C0000
0000180000
0000200000
0000400000
0000000000
0000000000
FFE7FE3FF0
0F00F00780
0F00700300
0700700200
0780700600
0780F80600
0380B80400
0380B80400
03C0BC0C00
01C19C0C00
01C11C0800
01E11C1800
01E31E1800
00E30E1000
00E20E3000
00F20F3000
00760F2000
0076076000
0074076000
007C07C000
003C03C000
003C03C000
0038038000
0018038000
0018018000
0010010000
ENDCHAR
STARTCHAR 1E83
ENCODING 7811
SWIDTH 777 0
DWIDTH 28 0
BBX 27 25 0 1
BITMAP
0000E000
0000E000
0001C000
00038000
00020000
00040000
00000000
00000000
FF3FCFE0
1C0F0380
1C070300
0C070200
0E070200
0E0F8200
070B8400
07098400
0389C400
0391C800
0190C800
01D0E800
01E0F000
00E07000
00E07000
00406000
00402000
ENDCHAR
STARTCHAR 1E84
ENCODING 7812
SWIDTH 1055 0
DWIDTH 38 0
BBX 36 33 1 0
BITMAP
0003060000
0007070000
0007070000
0003060000
0000000000
0000000000
0000000000
FFE7FF3FF0
0F00F80780
0F00780300
0700780300
0780780600
0780FC0600
0380FC0600
03C0BC0400
03C09C0C00
01C19E0C00
01C19E0800
01E11E1800
01E10E1800
00E30F1800
00F30F1000
00F2073000
0072073000
007607A000
007E03E000
007C03E000
003C03C000
003C03C000
003801C000
0018018000
0018018000
0018008000
ENDCHAR
STARTCHAR 1E85
ENCODING 7813
SWIDTH 777 0
DWIDTH 28 0
BBX 26 24 1 0
BITMAP
0060C000
00E1C000
00E1C000
0060C000
00000000
00000000
00000000
FF7F8FC0
3C1E0300
1C0E0200
1C0F0200
0C0F0400
0E0F0400
0E1B0400
06138800
07138800
03318800
03A1D000
03A1D000
01A0F000
01C0E000
00C0E000
00C04000
00804000
ENDCHAR
STARTCHAR 1E9E
ENCODING 7838
SWIDTH 750 0
DWIDTH 27 0
BBX 25 26 1 1
BITMAP
003FFF00
00FFFE00
01CFFC00
03001800
07003000
06006000
0600C000
0E018000
0E010000
0E020000
0E07E000
0E0C3C00
0E081E00
0E000F00
0E000F00
0E000780
0E000780
0E000780
0E180780
0E3C0780
0E7C0780
0E7C0700
0E780F00
0E701E00
0E303C00
FE1FF000
ENDCHAR
STARTCHAR 1F00
ENCODING 7936
SWIDTH 555 0
DWIDTH 20 0
BBX 17 26 2 1
BITMAP
01C000
03E000
03E000
002000
002000
004000
004000
008000
000000
070700
1F8700
3FCE00
384E00
705C00
603C00
C03800
C03800
C03000
807000
807000
80F000
80D000
81C800
438F80
3F0F80
1E0700
ENDCHAR
STARTCHAR 1F01
ENCODING 7937
SWIDTH 555 0
DWIDTH 20 0
BBX 17 26 2 1
BITMAP
01E000
03E000
03E000
020000
020000
010000
018000
000000
000000
070700
1F8E00
3FCE00
384E00
705C00
605C00
C03800
C03800
C03000
807000
807000
80F000
80D000
81D800
438F80
3F0F80
1E0700
ENDCHAR
STARTCHAR 1F02
ENCODING 7938
SWIDTH 555 0
DWIDTH 20 0
BBX 17 26 2 1
BITMAP
1E7000
1F7000
1F3000
013800
011800
020800
020800
040000
000000
070700
1F8700
3FCE00
384E00
705C00
603C00
C03800
C03800
C03000
807000
807000
80F000
80D000
81D800
438F80
3F0F80
1E0700
ENDCHAR
STARTCHAR 1F03
ENCODING 7939
SWIDTH 555 0
DWIDTH 20 0
BBX 17 26 2 1
BITMAP
0F7000
1F7000
1F3000
103800
101800
100800
080800
000000
000000
070700
1F8700
3FCE00
384E00
705C00
603C00
C03800
C03800
C03000
807000
807000
80F000
80D000
81D800
438F80
3F0F80
1E0700
ENDCHAR
STARTCHAR 1F04
ENCODING 7940
SWIDTH 555 0
DWIDTH 20 0
BBX 17 26 2 1
BITMAP
0F0C00
0F9C00
0F9800
009800
00B000
012000
012000
020000
000000
070700
1F8700
3FCE00
384E00
705C00
603C00
C03800
C03800
C03000
807000
807000
80F000
80D000
81D800
438F80
3F0F80
1E0700
ENDCHAR
STARTCHAR 1F05
ENCODING 7941
SWIDTH 555 0
DWIDTH 20 0
BBX 17 26 2 1
BITMAP
079C00
0F9C00
0F9800
083800
083000
082000
042000
000000
000000
070700
1F8700
3FCE00
384E00
705C00
603C00
C03800
C03800
C03000
807000
807000
80F000
80D000
81D800
438F80
3F0F80
1E0700
ENDCHAR
STARTCHAR 1F06
ENCODING 7942
SWIDTH 555 0
DWIDTH 20 0
BBX 17 31 2 0
BITMAP
0F0C00
138E00
31C600
38E600
387C00
038000
03C000
03E000
002000
002000
002000
004000
004000
000000
070700
1F8700
3FCE00
384E00
705C00
603C00
C03800
C03800
C03000
807000
807000
80F000
80D000
81C800
438F80
3F0F80
1E0700
ENDCHAR
STARTCHAR 1F07
ENCODING 7943
SWIDTH 555 0
DWIDTH 20 0
BBX 17 31 2 0
BITMAP
0F0C00
138E00
31C600
38E600
387C00
00C000
01E000
03E000
020000
020000
020000
010000
010000
000000
070700
1F8700
3FCE00
384E00
705C00
605C00
C03800
C03800
C03000
807000
807000
80F000
80D000
81D800
438F80
3F0F80
1E0700
ENDCHAR
STARTCHAR 1F08
ENCODING 7944
SWIDTH 805 0
DWIDTH 29 0
BBX 26 26 2 1
BITMAP
F0040000
F8060000
F80E0000
080E0000
080F0000
101F0000
101F0000
20178000
00378000
00338000
0063C000
0063C000
0061C000
00C1E000
00C0E000
00C0E000
0180F000
01FFF000
01807000
03007800
03003800
07003800
06003C00
0F001C00
7FE1FFC0
7FE1FFC0
ENDCHAR
STARTCHAR 1F09
ENCODING 7945
SWIDTH 805 0
DWIDTH 29 0
BBX 26 26 2 1
BITMAP
78040000
F8060000
F80E0000
800E0000
800F0000
801F0000
401F0000
20178000
00378000
00338000
0063C000
0063C000
0061C000
00C1E000
00C0E000
0080E000
0180F000
01FFF000
01007000
03007800
03003800
06003800
06003C00
0E001C00
7FE1FFC0
7FE1FFC0
ENDCHAR
STARTCHAR 1F0A
ENCODING 7946
SWIDTH 833 0
DWIDTH 30 0
BBX 30 26 -1 1
BITMAP
E7004000
F3006000
F380E000
1180E000
1180F000
10C1F000
2041F000
40417800
00037800
00033800
00023C00
00063C00
00061C00
000C1E00
000C0E00
000C0E00
00180F00
001FFF00
00100700
00300780
00300380
00200380
006003C0
006001C0
00F003E0
07FE1FFC
ENDCHAR
STARTCHAR 1F0B
ENCODING 7947
SWIDTH 833 0
DWIDTH 30 0
BBX 30 26 -1 1
BITMAP
77004000
FB006000
F380E000
8180E000
8180F000
80C1F000
4041F000
20417800
00037800
00033800
00023C00
00063C00
00061C00
000C1E00
000C0E00
000C0E00
00180F00
001FFF00
00100700
00300780
00300380
00200380
006003C0
006001C0
00F003E0
07FE1FFC
ENDCHAR
STARTCHAR 1F0C
ENCODING 7948
SWIDTH 833 0
DWIDTH 30 0
BBX 29 26 0 1
BITMAP
F0C08000
F9C0C000
F9C1C000
0981C000
0B01E000
1303E000
1203E000
2202F000
0006F000
00067000
00047800
000C7800
000C3800
00183C00
00181C00
00181C00
00301E00
003FFE00
00300E00
00600F00
00600700
00600700
00C00780
00C00380
01E007C0
0FFC3FF8
ENDCHAR
STARTCHAR 1F0D
ENCODING 7949
SWIDTH 833 0
DWIDTH 30 0
BBX 29 26 0 1
BITMAP
78C08000
F9C0C000
F9C1C000
8181C000
8301E000
8303E000
4203E000
2402F000
0006F000
00067000
00047800
000C7800
000C3800
00183C00
00181C00
00181C00
00301E00
003FFE00
00200E00
00600F00
00600700
00400700
00C00780
00C00380
01E007C0
0FFC3FF8
ENDCHAR
STARTCHAR 1F0E
ENCODING 7950
SWIDTH 805 0
DWIDTH 29 0
BBX 30 30 -2 0
BITMAP
7C300000
CE380000
C7180000
E3F00000
0E004000
0E006000
0F00E000
0100E000
0100F000
0101F000
02017000
00017800
00033800
00033800
00063C00
00061C00
00061C00
000C1E00
000C0E00
000C0E00
001C0F00
001FFF00
00180700
00380780
00300380
00700380
007003C0
00F001C0
07FE1FFC
07FE1FFC
ENDCHAR
STARTCHAR 1F0F
ENCODING 7951
SWIDTH 805 0
DWIDTH 29 0
BBX 30 30 -2 0
BITMAP
7C300000
CE380000
C7180000
E3F00000
07004000
07806000
0F00E000
0800E000
0800F000
0801F000
04017000
00017800
00033800
00033800
00063C00
00061C00
00061C00
000C1E00
000C0E00
000C0E00
001C0F00
001FFF00
00180700
00380780
00300380
00700380
007003C0
00F001C0
07FE1FFC
07FE1FFC
ENDCHAR
STARTCHAR 1F10
ENCODING 7952
SWIDTH 444 0
DWIDTH 16 0
BBX 12 26 2 1
BITMAP
0F00
0F80
0F80
0080
0080
0100
0300
0000
0000
1F80
3FE0
70E0
E000
C000
C000
4F80
3FC0
4F80
C000
C000
C000
C010
F030
7FE0
3FE0
0F80
ENDCHAR
STARTCHAR 1F11
ENCODING 7953
SWIDTH 444 0
DWIDTH 16 0
BBX 12 26 2 1
BITMAP
0700
0F80
0F80
0800
0800
0800
0400
0200
0000
1F80
3FE0
70E0
E000
C000
C000
4F80
3FC0
4F80
C000
C000
C000
C010
F030
7FE0
3FE0
0F80
ENDCHAR
STARTCHAR 1F12
ENCODING 7954
SWIDTH 444 0
DWIDTH 16 0
BBX 12 26 2 1
BITMAP
7980
7DC0
7CC0
04C0
0460
0860
1020
2000
0000
1F80
3FE0
70E0
E000
C000
C000
4F80
3FC0
4F80
C000
C000
C000
C010
F030
7FE0
3FE0
0F80
ENDCHAR
STARTCHAR 1F13
ENCODING 7955
SWIDTH 444 0
DWIDTH 16 0
BBX 12 26 2 1
BITMAP
3B80
7980
79C0
40C0
4040
4060
2020
1000
0000
1F80
3FE0
70E0
E000
C000
C000
4F80
3FC0
4F80
C000
C000
C000
C010
F030
7FE0
3FE0
0F80
ENDCHAR
STARTCHAR 1F14
ENCODING 7956
SWIDTH 444 0
DWIDTH 16 0
BBX 12 26 2 1
BITMAP
3860
3C60
3CE0
04C0
0480
0980
0900
1100
0000
1F80
3FE0
70E0
E000
C000
C000
4F80
3FC0
4F80
C000
C000
C000
C010
F030
7FE0
3FC0
0F80
ENDCHAR
STARTCHAR 1F15
ENCODING 7957
SWIDTH 444 0
DWIDTH 16 0
BBX 12 26 2 1
BITMAP
1C60
3E60
3EE0
20C0
20C0
2080
1100
0900
0000
1F80
3FE0
70E0
E000
C000
C000
4F80
3FC0
4780
C000
C000
C000
C010
F030
7FE0
3FC0
0F80
ENDCHAR
STARTCHAR 1F18
ENCODING 7960
SWIDTH 888 0
DWIDTH 32 0
BBX 28 26 2 1
BITMAP
E1FFFFF0
F1FFFFF0
F01C00F0
101C0070
101C0030
201C0010
601C0010
001C0810
001C0800
001C0800
001C1800
001C1800
001FF800
001FF800
001C1800
001C0800
001C0810
001C0810
001C0010
001C0010
001C0030
001C0030
001C0030
001C0070
001C01F0
01FFFFF0
ENDCHAR
STARTCHAR 1F19
ENCODING 7961
SWIDTH 888 0
DWIDTH 32 0
BBX 28 26 2 1
BITMAP
78FFFFF0
F8FFFFF0
F80E0070
800E0030
800E0030
400E0010
200E0010
000E0410
000E0400
000E0400
000E0C00
000E0C00
000FFC00
000FFC00
000E0C00
000E0400
000E0410
000E0410
000E0010
000E0010
000E0030
000E0030
000E0030
000E0070
000E01F0
00FFFFF0
ENDCHAR
STARTCHAR 1F1A
ENCODING 7962
SWIDTH 916 0
DWIDTH 33 0
BBX 32 26 -1 1
BITMAP
E70FFFFF
F70FFFFF
F380E007
1180E003
1180E003
20C0E001
6040E001
0000E041
0000E040
0000E040
0000E0C0
0000E0C0
0000FFC0
0000FFC0
0000E0C0
0000E040
0000E041
0000E041
0000E001
0000E001
0000E003
0000E003
0000E003
0000E007
0000E01F
000FFFFF
ENDCHAR
STARTCHAR 1F1B
ENCODING 7963
SWIDTH 944 0
DWIDTH 34 0
BBX 33 26 -1 1
BITMAP
730FFFFF80
FB0FFFFF80
FB80E00780
8180E00380
8080E00180
40C0E00080
6040E00080
0000E02080
0000E02000
0000E02000
0000E06000
0000E06000
0000FFE000
0000FFE000
0000E06000
0000E02000
0000E02080
0000E02080
0000E00080
0000E00080
0000E00180
0000E00180
0000E00180
0000E00380
0000E00F80
000FFFFF80
ENDCHAR
STARTCHAR 1F1C
ENCODING 7964
SWIDTH 972 0
DWIDTH 35 0
BBX 33 26 0 1
BITMAP
E18FFFFF80
F38FFFFF80
F380E00780
1300E00380
1600E00180
2600E00080
6400E00080
0000E04080
0000E04000
0000E04000
0000E0C000
0000E0C000
0000FFC000
0000FFC000
0000E0C000
0000E04000
0000E04080
0000E04080
0000E00080
0000E00080
0000E00180
0000E00180
0000E00180
0000E00380
0000E00F80
000FFFFF80
ENDCHAR
STARTCHAR 1F1D
ENCODING 7965
SWIDTH 972 0
DWIDTH 35 0
BBX 33 26 0 1
BITMAP
71CFFFFF80
F98FFFFF80
F380E00780
8300E00380
8300E00180
4600E00080
6400E00080
0000E02080
0000E02000
0000E02000
0000E06000
0000E06000
0000FFE000
0000FFE000
0000E06000
0000E02000
0000E02080
0000E02080
0000E00080
0000E00080
0000E00180
0000E00180
0000E00180
0000E00380
0000E00F80
000FFFFF80
ENDCHAR
STARTCHAR 1F20
ENCODING 7968
SWIDTH 583 0
DWIDTH 21 0
BBX 18 36 1 -9
BITMAP
00E000
01F000
01F000
001000
001000
002000
002000
004000
000000
701E00
F83F80
8C7180
04E0C0
02C040
03C040
038040
038040
038040
030040
0300C0
0700C0
0700C0
0700C0
0701C0
0701C0
0601C0
0001C0
000380
000380
000380
000780
000780
000780
000780
000780
000300
ENDCHAR
STARTCHAR 1F21
ENCODING 7969
SWIDTH 555 0
DWIDTH 20 0
BBX 17 36 1 -9
BITMAP
00E000
01E000
01E000
010000
010000
010000
008000
004000
000000
703C00
F87F00
98F300
04C180
05C080
058080
038080
070080
070080
070080
070180
060180
060180
0E0180
0E0380
0E0380
0E0380
000380
000700
000700
000700
000F00
000F00
000F00
000F00
000F00
000600
ENDCHAR
STARTCHAR 1F22
ENCODING 7970
SWIDTH 583 0
DWIDTH 21 0
BBX 18 36 1 -9
BITMAP
073800
0FB800
0F9800
009C00
008C00
010400
010600
020000
000000
701E00
F83F80
8C7180
04E0C0
02C040
03C040
038040
038040
038040
030040
0300C0
0700C0
0700C0
0700C0
0701C0
0701C0
0601C0
0001C0
000380
000380
000380
000780
000780
000780
000780
000780
000300
ENDCHAR
STARTCHAR 1F23
ENCODING 7971
SWIDTH 555 0
DWIDTH 20 0
BBX 17 36 1 -9
BITMAP
07B000
0FB800
0F9800
081C00
080C00
080400
040600
020000
000000
703C00
F87F00
98F100
04E080
05C080
058080
038080
078080
070080
070080
070080
070080
070080
0E0080
0E0180
0E0180
0E0180
000180
000380
000380
000380
000780
000780
000780
000780
000780
000300
ENDCHAR
STARTCHAR 1F24
ENCODING 7972
SWIDTH 555 0
DWIDTH 20 0
BBX 17 36 1 -9
BITMAP
070C00
0F9C00
079800
009800
00B000
013000
012000
020000
000000
703C00
F87F00
98E300
0CC180
058080
058080
070080
070080
070080
070080
060180
060180
0E0180
0E0180
0E0380
0E0380
0C0380
000380
000700
000700
000700
000F00
000F00
000F00
000F00
000F00
000600
ENDCHAR
STARTCHAR 1F25
ENCODING 7973
SWIDTH 555 0
DWIDTH 20 0
BBX 17 36 1 -9
BITMAP
038E00
07CE00
07CC00
041C00
041800
041000
023000
012000
000000
701C00
F87F00
8CF100
04E080
05C080
05C080
038080
038080
030080
070080
070080
070080
070080
070080
0E0180
0E0180
0E0180
000180
000380
000380
000380
000780
000780
000780
000780
000780
000300
ENDCHAR
STARTCHAR 1F26
ENCODING 7974
SWIDTH 555 0
DWIDTH 20 0
BBX 17 41 1 -10
BITMAP
0F0600
19C700
18E700
1C6300
1C3E00
01C000
01C000
01E000
002000
002000
002000
004000
004000
000000
703C00
F87F00
88F300
04C180
05C080
058080
038080
030080
030080
070080
070080
060180
060180
0E0180
0E0180
0E0180
0E0380
000380
000300
000300
000300
000700
000700
000700
000700
000700
000700
ENDCHAR
STARTCHAR 1F27
ENCODING 7975
SWIDTH 555 0
DWIDTH 20 0
BBX 17 41 1 -10
BITMAP
0F0600
19C700
18E700
1C6300
1C3E00
006000
00F000
01E000
010000
010000
010000
008000
008000
000000
703C00
F87F00
88F300
04C180
05C080
058080
038080
030080
030080
070080
070080
060180
060180
0E0180
0E0180
0E0180
0E0380
000380
000300
000300
000300
000700
000700
000700
000700
000700
000700
ENDCHAR
STARTCHAR 1F28
ENCODING 7976
SWIDTH 1000 0
DWIDTH 36 0
BBX 32 26 2 1
BITMAP
E0FFC3FF
F0FFC3FF
F01C0070
101C0070
101C0070
201C0070
201C0070
401C0070
001C0070
001C0070
001C0070
001FFFF0
001FFFF0
001C0070
001C0070
001C0070
001C0070
001C0070
001C0070
001C0070
001C0070
001C0070
001C0070
001C0070
00FFC3FF
00FFC3FF
ENDCHAR
STARTCHAR 1F29
ENCODING 7977
SWIDTH 1000 0
DWIDTH 36 0
BBX 32 26 2 1
BITMAP
70FFC3FF
F8FFC3FF
F80E0038
800E0038
800E0038
800E0038
400E0038
200E0038
000E0038
000E0038
000E0038
000FFFF8
000FFFF8
000E0038
000E0038
000E0038
000E0038
000E0038
000E0038
000E0038
000E0038
000E0038
000E0038
000E0038
00FFC3FF
00FFC3FF
ENDCHAR
STARTCHAR 1F2A
ENCODING 7978
SWIDTH 1055 0
DWIDTH 38 0
BBX 37 26 -1 1
BITMAP
E70FFC1FF8
F70FFC1FF8
F300E00380
1180E00380
1180E00380
2080E00380
20C0E00380
4000E00380
0000E00380
0000E00380
0000E00380
0000FFFF80
0000FFFF80
0000E00380
0000E00380
0000E00380
0000E00380
0000E00380
0000E00380
0000E00380
0000E00380
0000E00380
0000E00380
0000E00380
000FFC1FF8
000FFC1FF8
ENDCHAR
STARTCHAR 1F2B
ENCODING 7979
SWIDTH 1055 0
DWIDTH 38 0
BBX 37 26 -1 1
BITMAP
7B07FE1FF8
FB87FE1FF8
F980E001C0
8180E001C0
80C0E001C0
4040E001C0
4040E001C0
2000E001C0
0000E001C0
0000E001C0
0000E001C0
0000FFFFC0
0000FFFFC0
0000E001C0
0000E001C0
0000E001C0
0000E001C0
0000E001C0
0000E001C0
0000E001C0
0000E001C0
0000E001C0
0000E001C0
0000E001C0
0007FE1FF8
0007FE1FF8
ENDCHAR
STARTCHAR 1F2C
ENCODING 7980
SWIDTH 1083 0
DWIDTH 39 0
BBX 37 27 0 0
BITMAP
0080000000
E1C7FE1FF8
F1C7FE1FF8
F380E00380
1300E00380
1300E00380
2600E00380
2400E00380
4000E00380
0000E00380
0000E00380
0000E00380
0000FFFF80
0000FFFF80
0000E00380
0000E00380
0000E00380
0000E00380
0000E00380
0000E00380
0000E00380
0000E00380
0000E00380
0000E00380
0000E00380
0007FE1FF8
0007FE1FF8
ENDCHAR
STARTCHAR 1F2D
ENCODING 7981
SWIDTH 1083 0
DWIDTH 39 0
BBX 37 26 0 1
BITMAP
71C7FE1FF8
F9C7FE1FF8
F980E001C0
8380E001C0
8300E001C0
8200E001C0
4600E001C0
2000E001C0
0000E001C0
0000E001C0
0000E001C0
0000FFFFC0
0000FFFFC0
0000E001C0
0000E001C0
0000E001C0
0000E001C0
0000E001C0
0000E001C0
0000E001C0
0000E001C0
0000E001C0
0000E001C0
0000E001C0
0007FE1FF8
0007FE1FF8
ENDCHAR
STARTCHAR 1F2E
ENCODING 7982
SWIDTH 1027 0
DWIDTH 37 0
BBX 37 30 -2 0
BITMAP
7C30000000
CE38000000
C718000000
E3F0000000
0E07FE1FF8
0E07FE1FF8
0F007001C0
01007001C0
01007001C0
01007001C0
02007001C0
00007001C0
00007001C0
00007001C0
00007001C0
00007FFFC0
00007FFFC0
00007001C0
00007001C0
00007001C0
00007001C0
00007001C0
00007001C0
00007001C0
00007001C0
00007001C0
00007001C0
00007001C0
0007FE1FF8
0007FE1FF8
ENDCHAR
STARTCHAR 1F2F
ENCODING 7983
SWIDTH 1027 0
DWIDTH 37 0
BBX 37 30 -2 0
BITMAP
7C30000000
CE38000000
C718000000
E3F0000000
0707FE1FF8
0787FE1FF8
0F007001C0
08007001C0
08007001C0
08007001C0
04007001C0
00007001C0
00007001C0
00007001C0
00007001C0
00007FFFC0
00007FFFC0
00007001C0
00007001C0
00007001C0
00007001C0
00007001C0
00007001C0
00007001C0
00007001C0
00007001C0
00007001C0
00007001C0
0007FE1FF8
0007FE1FF8
ENDCHAR
STARTCHAR 1F30
ENCODING 7984
SWIDTH 305 0
DWIDTH 11 0
BBX 6 26 3 1
BITMAP
F0
F8
F8
08
08
10
30
00
00
70
F0
F0
F0
E0
E0
E0
C0
C0
80
80
80
84
84
DC
7C
38
ENDCHAR
STARTCHAR 1F31
ENCODING 7985
SWIDTH 305 0
DWIDTH 11 0
BBX 6 26 3 1
BITMAP
78
F8
F8
80
80
80
40
20
00
60
E0
E0
E0
E0
E0
C0
C0
C0
80
80
80
80
84
DC
7C
38
ENDCHAR
STARTCHAR 1F32
ENCODING 7986
SWIDTH 305 0
DWIDTH 11 0
BBX 10 26 0 1
BITMAP
E700
F380
F380
1180
10C0
20C0
2040
4000
0000
0C00
1C00
1C00
1C00
1C00
1C00
1800
1800
1800
1000
1000
1000
1000
1180
1B80
0F80
0700
ENDCHAR
STARTCHAR 1F33
ENCODING 7987
SWIDTH 305 0
DWIDTH 11 0
BBX 10 26 0 1
BITMAP
7F00
FB80
FB80
8180
80C0
80C0
4040
2000
0000
0C00
1C00
1C00
1C00
1C00
1C00
1800
1800
1800
1000
1000
1000
1000
1180
1B80
0F80
0700
ENDCHAR
STARTCHAR 1F34
ENCODING 7988
SWIDTH 305 0
DWIDTH 11 0
BBX 9 26 1 1
BITMAP
E180
F180
F380
1300
1300
2600
2400
4400
0000
1800
3800
3800
3800
3800
3800
3000
3000
3000
2000
2000
2000
2000
2300
3700
1F00
0E00
ENDCHAR
STARTCHAR 1F35
ENCODING 7989
SWIDTH 333 0
DWIDTH 12 0
BBX 10 26 1 1
BITMAP
79C0
F9C0
F980
8380
8300
8200
4200
2000
0000
1C00
3C00
3C00
3C00
3800
3800
3000
3000
3000
2000
2000
2000
2100
2100
3700
1F00
0E00
ENDCHAR
STARTCHAR 1F36
ENCODING 7990
SWIDTH 277 0
DWIDTH 10 0
BBX 11 31 -1 0
BITMAP
7820
9C20
8E20
C720
C3C0
1C00
1E00
1F00
0100
0100
0100
0200
0000
0000
0E00
1E00
1E00
1E00
1C00
1C00
1800
1800
1800
1000
1000
1000
1080
1080
0B80
0F80
0700
ENDCHAR
STARTCHAR 1F37
ENCODING 7991
SWIDTH 277 0
DWIDTH 10 0
BBX 11 31 -1 0
BITMAP
7820
9C20
8E20
C720
C3C0
0700
0F00
1F00
1000
1000
1000
0800
0800
0000
0E00
1E00
1E00
1C00
1C00
1C00
1800
1800
1800
1000
1000
1000
1080
1080
1B80
0F80
0700
ENDCHAR
STARTCHAR 1F38
ENCODING 7992
SWIDTH 611 0
DWIDTH 22 0
BBX 18 26 2 1
BITMAP
E0FFC0
F0FFC0
F01C00
101C00
101C00
101C00
201C00
401C00
001C00
001C00
001C00
001C00
001C00
001C00
001C00
001C00
001C00
001C00
001C00
001C00
001C00
001C00
001C00
001C00
00FFC0
00FFC0
ENDCHAR
STARTCHAR 1F39
ENCODING 7993
SWIDTH 611 0
DWIDTH 22 0
BBX 18 26 2 1
BITMAP
70FFC0
F8FFC0
F80E00
800E00
800E00
800E00
400E00
200E00
000E00
000E00
000E00
000E00
000E00
000E00
000E00
000E00
000E00
000E00
000E00
000E00
000E00
000E00
000E00
000E00
00FFC0
00FFC0
ENDCHAR
STARTCHAR 1F3A
ENCODING 7994
SWIDTH 638 0
DWIDTH 23 0
BBX 22 26 -1 1
BITMAP
E70FFC
F70FFC
F300E0
1380E0
1180E0
1080E0
2080E0
4040E0
0000E0
0000E0
0000E0
0000E0
0000E0
0000E0
0000E0
0000E0
0000E0
0000E0
0000E0
0000E0
0000E0
0000E0
0000E0
0000E0
000FFC
000FFC
ENDCHAR
STARTCHAR 1F3B
ENCODING 7995
SWIDTH 666 0
DWIDTH 24 0
BBX 23 26 -1 1
BITMAP
7B07FE
FB87FE
F980E0
8180E0
80C0E0
80C0E0
4040E0
2020E0
0000E0
0000E0
0000E0
0000E0
0000E0
0000E0
0000E0
0000E0
0000E0
0000E0
0000E0
0000E0
0000E0
0000E0
0000E0
0000E0
0007FE
0007FE
ENDCHAR
STARTCHAR 1F3C
ENCODING 7996
SWIDTH 694 0
DWIDTH 25 0
BBX 23 27 0 0
BITMAP
008000
E1C7FE
F1C7FE
F380E0
1300E0
1300E0
1600E0
2400E0
4400E0
0000E0
0000E0
0000E0
0000E0
0000E0
0000E0
0000E0
0000E0
0000E0
0000E0
0000E0
0000E0
0000E0
0000E0
0000E0
0000E0
0007FE
0007FE
ENDCHAR
STARTCHAR 1F3D
ENCODING 7997
SWIDTH 694 0
DWIDTH 25 0
BBX 23 26 0 1
BITMAP
71C7FE
F9C7FE
F980E0
8380E0
8300E0
8200E0
4600E0
2400E0
0000E0
0000E0
0000E0
0000E0
0000E0
0000E0
0000E0
0000E0
0000E0
0000E0
0000E0
0000E0
0000E0
0000E0
0000E0
0000E0
0007FE
0007FE
ENDCHAR
STARTCHAR 1F3E
ENCODING 7998
SWIDTH 638 0
DWIDTH 23 0
BBX 23 30 -2 0
BITMAP
7C3000
CE3800
C71800
E3F000
0E07FE
0E07FE
0F0070
010070
010070
010070
020070
000070
000070
000070
000070
000070
000070
000070
000070
000070
000070
000070
000070
000070
000070
000070
000070
000070
0007FE
0007FE
ENDCHAR
STARTCHAR 1F3F
ENCODING 7999
SWIDTH 638 0
DWIDTH 23 0
BBX 23 30 -2 0
BITMAP
7C3000
CE3800
C71800
E3F000
0707FE
0787FE
0F0070
080070
080070
080070
040070
000070
000070
000070
000070
000070
000070
000070
000070
000070
000070
000070
000070
000070
000070
000070
000070
000070
0007FE
0007FE
ENDCHAR
STARTCHAR 1F40
ENCODING 8000
SWIDTH 500 0
DWIDTH 18 0
BBX 14 26 2 1
BITMAP
0700
0F80
0F80
0080
0080
0100
0100
0200
0000
07C0
1FE0
3C10
7808
7008
F008
E00C
E00C
C01C
C01C
C03C
C038
4078
40F0
21F0
1FE0
0F80
ENDCHAR
STARTCHAR 1F41
ENCODING 8001
SWIDTH 500 0
DWIDTH 18 0
BBX 14 26 2 1
BITMAP
0780
0F80
0F80
0800
0800
0400
0400
0200
0000
07C0
1FE0
3C10
7808
7008
F008
E00C
E00C
C01C
C01C
C03C
C038
4078
40F0
21F0
1FE0
0F80
ENDCHAR
STARTCHAR 1F42
ENCODING 8002
SWIDTH 500 0
DWIDTH 18 0
BBX 14 26 2 1
BITMAP
79C0
7DC0
7CC0
0460
0460
0820
0810
1010
0000
07C0
1FE0
3C10
7808
7008
F008
E00C
E00C
C01C
C01C
C03C
C038
4078
40F0
21F0
1FE0
0F80
ENDCHAR
STARTCHAR 1F43
ENCODING 8003
SWIDTH 500 0
DWIDTH 18 0
BBX 14 26 2 1
BITMAP
3DC0
7DC0
7CC0
40E0
4060
4020
2030
1010
0000
07C0
1FE0
3C10
7808
7008
F008
E00C
E00C
C01C
C01C
C03C
C038
4078
40F0
21F0
1FE0
0F80
ENDCHAR
STARTCHAR 1F44
ENCODING 8004
SWIDTH 500 0
DWIDTH 18 0
BBX 14 26 2 1
BITMAP
3C30
3E70
3E70
0260
02C0
04C0
0480
0800
0000
07C0
1FE0
3C10
7808
7008
F008
E00C
E00C
C01C
C01C
C03C
C038
4078
40F0
21F0
1FE0
0F80
ENDCHAR
STARTCHAR 1F45
ENCODING 8005
SWIDTH 500 0
DWIDTH 18 0
BBX 14 26 2 1
BITMAP
1E30
3E70
3E70
2060
20C0
20C0
1080
0800
0000
07C0
1FE0
3C10
7808
7008
F008
E00C
E00C
C01C
C01C
C03C
C038
4078
40F0
21F0
1FE0
0F80
ENDCHAR
STARTCHAR 1F48
ENCODING 8008
SWIDTH 861 0
DWIDTH 31 0
BBX 27 26 2 1
BITMAP
E00FF000
F0180C00
F0300600
10700700
10E00380
10E00380
21E003C0
41C001C0
01C001C0
03C001E0
03C001E0
03C001E0
03C001E0
03C001E0
03C001E0
03C001E0
03C001E0
01C001C0
01C001C0
01E003C0
00E00380
00E00380
00700700
00300600
00180C00
000FF800
ENDCHAR
STARTCHAR 1F49
ENCODING 8009
SWIDTH 888 0
DWIDTH 32 0
BBX 28 26 2 1
BITMAP
7007F800
F01C0E00
F0380700
80700380
80E001C0
80E001C0
41E001E0
21C000E0
01C000E0
03C000F0
03C000F0
03C000F0
03C000F0
03C000F0
03C000F0
03C000F0
03C000F0
01C000E0
01C000E0
01E001E0
00E001C0
00E001C0
00700380
00300700
001C0E00
0007F800
ENDCHAR
STARTCHAR 1F4A
ENCODING 8010
SWIDTH 916 0
DWIDTH 33 0
BBX 32 27 -1 0
BITMAP
00000400
E7007F80
F700C060
F3018030
13838038
1187001C
1087001C
20CF001E
404E000E
000E000E
001E000F
001E000F
001E000F
001E000F
001E000F
001E000F
001E000F
001E000F
000E000E
000E000E
000F001E
0007001C
0007001C
00038038
00018030
0000C060
00007F80
ENDCHAR
STARTCHAR 1F4B
ENCODING 8011
SWIDTH 916 0
DWIDTH 33 0
BBX 32 27 -1 0
BITMAP
00000400
77007F80
FB00C060
F3018030
81838038
8187001C
8087001C
40CF001E
204E000E
000E000E
001E000F
001E000F
001E000F
001E000F
001E000F
001E000F
001E000F
001E000F
000E000E
000E000E
000F001E
0007001C
0007001C
00038038
00018030
0000C060
00007F80
ENDCHAR
STARTCHAR 1F4C
ENCODING 8012
SWIDTH 888 0
DWIDTH 32 0
BBX 30 26 0 1
BITMAP
E180FF00
F1830180
F38600C0
130600E0
130C0070
161C0070
241C0078
44380038
00380038
0038003C
0038003C
0038003C
0038003C
0038003C
0038003C
0038003C
0038003C
00380038
00380038
001C0078
001C0070
000C0070
000600E0
000600C0
00030180
0000FF00
ENDCHAR
STARTCHAR 1F4D
ENCODING 8013
SWIDTH 916 0
DWIDTH 33 0
BBX 31 26 0 1
BITMAP
71C0FF00
F9C180C0
F9830060
83870070
830E0038
820E0038
461E003C
241C001C
001C001C
003C001E
003C001E
003C001E
003C001E
003C001E
003C001E
003C001E
003C001E
001C001C
001C001C
001E003C
000E0038
000E0038
00070070
00030060
000180C0
0000FF80
ENDCHAR
STARTCHAR 1F50
ENCODING 8016
SWIDTH 472 0
DWIDTH 17 0
BBX 13 26 2 1
BITMAP
1C00
1E00
1E00
0200
0200
0400
0400
0800
0000
E080
E040
E060
E020
4030
4030
C038
8038
8038
8038
8038
8078
8070
40F0
40E0
3FC0
0F80
ENDCHAR
STARTCHAR 1F51
ENCODING 8017
SWIDTH 472 0
DWIDTH 17 0
BBX 13 27 2 0
BITMAP
0400
0E00
1E00
1E00
1000
1000
1000
0800
0400
0000
E080
E040
E060
E020
4030
4030
C038
8038
8038
8038
8038
8078
8070
40F0
40E0
3FC0
0F80
ENDCHAR
STARTCHAR 1F52
ENCODING 8018
SWIDTH 472 0
DWIDTH 17 0
BBX 13 26 2 1
BITMAP
E700
F700
F300
1300
1180
2080
2080
4000
0000
E080
E040
E060
E020
4030
4030
C038
8038
8038
8038
8038
8078
8070
40F0
61E0
3FC0
0F80
ENDCHAR
STARTCHAR 1F53
ENCODING 8019
SWIDTH 500 0
DWIDTH 18 0
BBX 14 26 2 1
BITMAP
7700
F300
F380
8180
8080
80C0
4040
2000
0000
E040
E060
E030
E030
4018
4018
C01C
801C
801C
801C
801C
8038
8038
4078
61F0
3FE0
0F80
ENDCHAR
STARTCHAR 1F54
ENCODING 8020
SWIDTH 472 0
DWIDTH 17 0
BBX 13 26 2 1
BITMAP
70C0
F9C0
79C0
0980
0B00
1300
1200
2000
0000
E000
E040
E020
E030
C030
C010
C018
8018
8018
8038
8038
8038
8070
40F0
61E0
3FC0
0F80
ENDCHAR
STARTCHAR 1F55
ENCODING 8021
SWIDTH 472 0
DWIDTH 17 0
BBX 13 26 2 1
BITMAP
38C0
79C0
79C0
4180
4100
4300
2200
0000
0000
E000
E040
E020
6030
4030
4010
4018
8018
8018
8038
8038
8038
8070
40F0
61E0
3FC0
0F80
ENDCHAR
STARTCHAR 1F56
ENCODING 8022
SWIDTH 500 0
DWIDTH 18 0
BBX 15 31 1 0
BITMAP
7830
CE38
C738
E318
E1F0
0E00
0E00
0F00
0100
0100
0100
0200
0200
0000
7020
7010
7018
7018
200C
200C
600E
400E
400E
400E
400E
401C
401C
203C
2078
1FF0
07C0
ENDCHAR
STARTCHAR 1F57
ENCODING 8023
SWIDTH 500 0
DWIDTH 18 0
BBX 15 31 1 0
BITMAP
7830
CE38
C738
E318
E1F0
0300
0780
0F00
0800
0800
0800
0400
0400
0000
7020
7010
7018
7018
200C
200C
600E
400E
400E
400E
400E
401C
401C
203C
2078
1FF0
07C0
ENDCHAR
ENDFONT
